<svg id="svg" version="1.1" xmlns="http://www.w3.org/2000/svg" xmlns:xlink="http://www.w3.org/1999/xlink" width="400" height="397" viewBox="0, 0, 400,397"><g id="svgg"><path id="path0" d="M37.554 1.092 C 37.434 1.406,36.562 1.589,35.186 1.589 C 33.580 1.589,32.913 1.760,32.644 2.241 C 32.398 2.680,31.943 2.829,31.254 2.697 C 30.609 2.574,30.152 2.700,30.022 3.038 C 29.909 3.333,29.383 3.575,28.853 3.575 C 28.324 3.575,27.787 3.843,27.662 4.171 C 27.536 4.499,27.081 4.767,26.650 4.767 C 26.219 4.767,25.756 4.945,25.621 5.164 C 25.486 5.382,25.047 5.561,24.647 5.561 C 24.246 5.561,23.815 5.829,23.690 6.157 C 23.564 6.485,23.178 6.753,22.833 6.753 C 22.488 6.753,21.561 7.378,20.773 8.143 C 19.986 8.908,19.146 9.539,18.906 9.546 C 18.276 9.566,16.683 10.971,16.683 11.507 C 16.683 11.758,16.504 11.853,16.286 11.718 C 16.068 11.583,15.888 11.706,15.888 11.992 C 15.887 12.278,15.363 12.863,14.724 13.291 C 14.085 13.719,13.638 14.192,13.730 14.342 C 13.822 14.491,13.631 14.716,13.305 14.842 C 12.978 14.967,12.711 15.433,12.711 15.876 C 12.711 16.329,12.449 16.683,12.115 16.683 C 11.787 16.683,11.519 16.869,11.519 17.097 C 11.519 17.325,11.154 17.903,10.707 18.383 C 9.764 19.395,8.739 21.334,8.739 22.107 C 8.739 22.401,8.460 22.642,8.120 22.642 C 7.779 22.642,7.591 22.788,7.702 22.968 C 7.813 23.147,7.645 23.793,7.328 24.404 C 7.012 25.014,6.753 25.917,6.753 26.412 C 6.753 26.906,6.485 27.533,6.157 27.805 C 5.829 28.077,5.561 28.804,5.561 29.419 C 5.561 30.035,5.382 30.649,5.164 30.785 C 4.945 30.920,4.767 32.092,4.767 33.390 C 4.767 35.223,4.634 35.750,4.171 35.750 C 3.266 35.750,3.293 43.898,4.199 44.246 C 4.716 44.444,4.801 45.098,4.696 48.063 C 4.601 50.728,4.695 51.640,5.065 51.639 C 5.367 51.639,5.561 52.181,5.561 53.029 C 5.561 54.000,5.741 54.419,6.157 54.419 C 6.547 54.419,6.753 54.810,6.753 55.550 C 6.753 56.845,7.810 59.186,8.396 59.186 C 8.612 59.186,8.741 59.499,8.683 59.881 C 8.550 60.748,9.554 62.363,10.225 62.363 C 10.500 62.363,10.725 62.727,10.725 63.170 C 10.725 63.614,10.992 64.080,11.318 64.205 C 11.645 64.330,11.812 64.594,11.691 64.791 C 11.569 64.988,11.748 65.257,12.090 65.388 C 12.432 65.519,12.711 66.054,12.711 66.577 C 12.711 67.100,12.869 67.527,13.061 67.527 C 13.254 67.527,14.541 68.643,15.922 70.007 C 17.596 71.660,18.689 72.443,19.202 72.356 C 19.776 72.258,19.909 72.391,19.723 72.876 C 19.585 73.234,19.639 73.424,19.841 73.299 C 20.044 73.174,20.354 73.325,20.532 73.635 C 20.709 73.945,21.524 74.592,22.344 75.073 C 23.163 75.554,23.833 76.084,23.833 76.250 C 23.833 76.417,24.280 76.468,24.826 76.363 C 25.539 76.227,25.819 76.347,25.819 76.788 C 25.819 77.126,26.221 77.464,26.713 77.539 C 27.205 77.614,27.569 77.874,27.523 78.117 C 27.470 78.396,27.919 78.493,28.746 78.382 C 29.618 78.264,30.224 78.412,30.567 78.825 C 30.849 79.166,31.694 79.444,32.445 79.444 C 33.196 79.444,33.713 79.602,33.593 79.796 C 33.309 80.256,34.731 80.623,36.819 80.630 C 37.734 80.633,38.594 80.814,38.729 81.033 C 38.872 81.264,41.116 81.430,44.115 81.430 C 47.277 81.430,49.255 81.277,49.255 81.033 C 49.255 80.814,50.216 80.636,51.391 80.636 C 52.805 80.636,53.694 80.434,54.022 80.040 C 54.325 79.675,55.196 79.444,56.268 79.444 C 57.458 79.444,58.092 79.253,58.248 78.848 C 58.373 78.520,58.904 78.252,59.427 78.252 C 59.950 78.252,60.377 78.073,60.377 77.855 C 60.377 77.637,60.740 77.458,61.184 77.458 C 61.628 77.458,62.094 77.190,62.220 76.862 C 62.346 76.534,62.876 76.266,63.399 76.266 C 63.922 76.266,64.350 76.087,64.350 75.869 C 64.350 75.650,64.682 75.472,65.088 75.472 C 65.495 75.472,66.163 75.025,66.573 74.479 C 66.983 73.932,67.544 73.486,67.820 73.486 C 68.096 73.486,68.322 73.256,68.322 72.974 C 68.322 72.693,68.650 72.438,69.050 72.408 C 70.136 72.326,76.483 65.926,76.337 65.061 C 76.270 64.670,76.453 64.350,76.741 64.350 C 77.343 64.350,78.405 62.853,78.432 61.966 C 78.442 61.639,78.688 61.420,78.977 61.480 C 79.266 61.540,79.407 61.434,79.291 61.245 C 79.174 61.056,79.419 60.267,79.834 59.492 C 80.250 58.716,80.481 57.972,80.348 57.839 C 80.215 57.706,80.404 57.597,80.768 57.597 C 81.239 57.597,81.430 57.253,81.430 56.405 C 81.430 55.750,81.609 55.214,81.827 55.214 C 82.046 55.214,82.224 54.607,82.224 53.866 C 82.224 53.034,82.453 52.430,82.820 52.289 C 83.241 52.128,83.416 51.472,83.416 50.062 C 83.416 48.728,83.581 48.064,83.913 48.064 C 84.499 48.065,84.397 34.919,83.808 34.555 C 83.617 34.437,83.406 33.272,83.339 31.967 C 83.255 30.329,83.064 29.624,82.721 29.692 C 82.391 29.758,82.224 29.268,82.224 28.236 C 82.224 27.380,82.063 26.620,81.865 26.548 C 81.667 26.475,81.444 25.879,81.370 25.223 C 81.295 24.568,81.095 23.929,80.926 23.804 C 80.756 23.679,80.538 23.167,80.442 22.666 C 80.278 21.814,79.219 20.696,78.550 20.668 C 78.386 20.661,78.252 20.285,78.252 19.833 C 78.252 18.953,77.393 17.875,76.692 17.875 C 76.458 17.875,76.266 17.509,76.266 17.061 C 76.266 16.614,75.819 15.834,75.273 15.328 C 74.727 14.822,74.280 14.204,74.280 13.956 C 74.280 13.708,74.101 13.505,73.882 13.505 C 73.484 13.505,70.308 10.414,70.308 10.026 C 70.308 9.617,68.903 8.764,68.210 8.751 C 67.821 8.745,67.400 8.472,67.275 8.145 C 67.149 7.819,66.887 7.651,66.691 7.772 C 66.496 7.892,66.336 7.713,66.336 7.372 C 66.336 7.007,65.992 6.753,65.499 6.753 C 65.039 6.753,64.311 6.306,63.881 5.760 C 63.449 5.210,62.689 4.767,62.179 4.767 C 61.672 4.767,61.154 4.499,61.028 4.171 C 60.894 3.821,60.298 3.575,59.583 3.575 C 58.914 3.575,58.276 3.339,58.165 3.050 C 58.038 2.719,57.529 2.589,56.787 2.698 C 55.950 2.821,55.611 2.706,55.611 2.301 C 55.611 1.890,55.029 1.704,53.534 1.636 C 52.392 1.584,51.349 1.366,51.216 1.151 C 50.834 0.533,37.790 0.477,37.554 1.092 M350.979 0.852 C 351.219 1.240,350.051 1.589,348.515 1.589 C 347.664 1.589,347.058 1.814,346.916 2.185 C 346.767 2.573,346.149 2.781,345.141 2.781 C 344.291 2.781,343.595 2.959,343.595 3.178 C 343.595 3.396,343.080 3.575,342.452 3.575 C 341.823 3.575,341.080 3.851,340.799 4.189 C 340.519 4.527,340.055 4.713,339.768 4.603 C 339.481 4.492,339.101 4.662,338.924 4.979 C 338.746 5.296,338.128 5.595,337.551 5.643 C 336.974 5.691,336.533 5.915,336.572 6.142 C 336.611 6.369,336.420 6.509,336.147 6.455 C 335.874 6.400,335.650 6.624,335.650 6.951 C 335.650 7.279,335.318 7.547,334.912 7.547 C 334.505 7.547,333.837 7.994,333.427 8.540 C 333.017 9.086,332.456 9.533,332.180 9.533 C 331.904 9.533,331.678 9.801,331.678 10.129 C 331.678 10.457,331.410 10.725,331.082 10.725 C 330.755 10.725,330.487 10.881,330.487 11.071 C 330.487 11.262,329.146 12.798,327.507 14.486 C 325.869 16.173,324.528 17.804,324.528 18.111 C 324.528 18.418,324.350 18.669,324.131 18.669 C 323.913 18.669,323.734 18.948,323.734 19.289 C 323.734 19.629,323.553 19.796,323.332 19.659 C 323.109 19.522,322.822 19.950,322.688 20.623 C 322.555 21.289,322.288 21.737,322.097 21.619 C 321.905 21.500,321.748 21.931,321.748 22.576 C 321.748 23.251,321.495 23.845,321.152 23.977 C 320.824 24.103,320.556 24.569,320.556 25.012 C 320.556 25.456,320.377 25.819,320.159 25.819 C 319.940 25.819,319.762 26.426,319.762 27.167 C 319.762 27.999,319.533 28.602,319.166 28.743 C 318.758 28.900,318.570 29.539,318.570 30.772 C 318.570 31.947,318.398 32.572,318.073 32.572 C 317.688 32.571,317.603 34.443,317.692 40.913 C 317.760 45.907,317.960 49.255,318.188 49.255 C 318.398 49.255,318.570 50.051,318.570 51.023 C 318.570 52.245,318.770 52.903,319.219 53.154 C 319.674 53.408,319.814 53.884,319.687 54.747 C 319.571 55.539,319.693 56.049,320.031 56.179 C 320.320 56.290,320.556 56.749,320.556 57.200 C 320.556 57.650,320.824 58.122,321.152 58.248 C 321.480 58.373,321.748 58.698,321.748 58.969 C 321.748 59.678,322.974 62.034,323.812 62.935 C 324.206 63.358,324.529 63.895,324.529 64.127 C 324.531 64.799,333.111 73.486,333.774 73.486 C 334.104 73.486,334.481 73.765,334.612 74.107 C 334.743 74.448,335.012 74.628,335.209 74.506 C 335.406 74.384,335.670 74.552,335.795 74.878 C 335.920 75.205,336.287 75.472,336.611 75.472 C 336.934 75.472,337.681 75.919,338.270 76.465 C 338.882 77.032,339.818 77.458,340.452 77.458 C 341.062 77.458,341.672 77.637,341.807 77.855 C 341.942 78.073,342.381 78.252,342.781 78.252 C 343.182 78.252,343.613 78.520,343.738 78.848 C 343.874 79.201,344.470 79.444,345.200 79.444 C 345.877 79.444,346.700 79.712,347.028 80.040 C 347.433 80.445,348.435 80.636,350.154 80.636 C 351.545 80.636,352.794 80.814,352.929 81.033 C 353.299 81.630,363.348 81.556,363.548 80.955 C 363.647 80.659,364.392 80.515,365.523 80.574 C 366.732 80.636,367.544 80.463,367.951 80.056 C 368.288 79.719,369.118 79.444,369.795 79.444 C 370.525 79.444,371.121 79.201,371.257 78.848 C 371.398 78.480,372.001 78.252,372.833 78.252 C 373.574 78.252,374.181 78.073,374.181 77.855 C 374.181 77.637,374.608 77.458,375.131 77.458 C 375.654 77.458,376.185 77.190,376.310 76.862 C 376.436 76.534,376.889 76.266,377.317 76.266 C 377.745 76.266,378.447 75.819,378.876 75.273 C 379.306 74.727,379.936 74.280,380.276 74.280 C 380.617 74.280,381.503 73.654,382.245 72.890 C 382.988 72.125,383.812 71.500,384.075 71.500 C 384.339 71.500,384.461 71.347,384.346 71.160 C 384.053 70.687,385.882 69.040,386.290 69.410 C 386.472 69.576,386.509 69.515,386.372 69.273 C 386.081 68.763,387.813 66.992,388.212 67.391 C 388.360 67.539,388.481 67.433,388.481 67.157 C 388.481 66.880,389.106 66.028,389.871 65.263 C 390.636 64.499,391.261 63.552,391.261 63.161 C 391.261 62.769,391.529 62.346,391.857 62.220 C 392.185 62.094,392.453 61.628,392.453 61.184 C 392.453 60.740,392.632 60.377,392.850 60.377 C 393.069 60.377,393.247 59.930,393.247 59.384 C 393.247 58.766,393.472 58.391,393.843 58.391 C 394.210 58.391,394.439 58.019,394.439 57.422 C 394.439 56.888,394.618 56.342,394.836 56.207 C 395.055 56.072,395.233 55.457,395.233 54.841 C 395.233 54.226,395.501 53.499,395.829 53.227 C 396.157 52.955,396.425 52.254,396.425 51.669 C 396.425 51.084,396.597 50.434,396.807 50.224 C 397.423 49.608,397.534 31.777,396.922 31.777 C 396.600 31.777,396.425 31.165,396.425 30.039 C 396.425 28.959,396.194 28.108,395.815 27.793 C 395.479 27.515,395.255 26.912,395.318 26.454 C 395.386 25.955,395.233 25.661,394.935 25.720 C 394.613 25.784,394.439 25.327,394.439 24.417 C 394.439 23.538,394.217 22.929,393.845 22.786 C 393.519 22.661,393.351 22.398,393.472 22.203 C 393.592 22.007,393.413 21.847,393.072 21.847 C 392.541 21.847,392.234 20.900,392.401 19.776 C 392.424 19.620,392.162 19.600,391.818 19.732 C 391.372 19.903,391.215 19.756,391.273 19.222 C 391.416 17.877,391.272 17.478,390.642 17.478 C 390.301 17.478,390.133 17.299,390.268 17.080 C 390.403 16.862,390.326 16.683,390.097 16.683 C 389.469 16.683,388.095 15.396,388.326 15.023 C 388.437 14.844,388.238 14.697,387.885 14.697 C 387.531 14.697,387.340 14.539,387.460 14.345 C 387.579 14.151,387.411 13.772,387.086 13.502 C 386.761 13.232,386.495 12.782,386.495 12.503 C 386.495 12.223,385.958 11.807,385.303 11.579 C 384.647 11.350,384.111 10.965,384.111 10.722 C 384.111 10.479,383.932 10.391,383.714 10.526 C 383.496 10.661,383.317 10.493,383.317 10.153 C 383.317 9.812,383.125 9.533,382.891 9.533 C 382.382 9.533,381.331 8.539,381.331 8.057 C 381.331 7.870,380.958 7.688,380.502 7.654 C 380.046 7.619,379.281 7.135,378.801 6.576 C 378.322 6.018,377.522 5.561,377.024 5.561 C 376.523 5.561,376.229 5.384,376.365 5.164 C 376.616 4.758,376.118 4.619,374.867 4.747 C 374.475 4.788,374.211 4.592,374.271 4.306 C 374.331 4.024,373.966 3.730,373.461 3.653 C 372.956 3.576,372.456 3.286,372.350 3.009 C 372.215 2.657,371.559 2.561,370.189 2.693 C 368.560 2.849,368.222 2.771,368.222 2.235 C 368.222 1.738,367.827 1.589,366.514 1.589 C 365.575 1.589,364.637 1.424,364.429 1.222 C 364.008 0.813,350.728 0.448,350.979 0.852 M98.368 40.455 C 97.878 40.995,97.697 41.977,97.674 44.202 C 97.649 46.622,97.532 47.174,97.084 47.001 C 96.342 46.717,96.367 47.439,97.120 48.064 C 97.551 48.421,97.716 49.368,97.716 51.489 C 97.716 54.315,97.750 54.419,98.667 54.419 C 99.189 54.419,99.720 54.687,99.846 55.015 C 100.171 55.863,108.640 55.892,109.116 55.047 C 109.291 54.736,110.060 54.424,110.824 54.351 L 112.214 54.220 112.323 47.577 L 112.432 40.934 111.430 40.682 C 110.878 40.543,110.427 40.271,110.427 40.076 C 110.427 39.303,99.088 39.659,98.368 40.455 M124.334 40.418 C 124.008 40.784,123.794 41.388,123.857 41.760 C 123.925 42.163,123.631 42.545,123.129 42.704 C 122.593 42.874,122.369 43.187,122.513 43.564 C 122.639 43.890,122.741 45.125,122.741 46.309 C 122.741 47.957,122.880 48.461,123.337 48.461 C 123.813 48.461,123.932 49.057,123.932 51.440 C 123.932 54.154,124.003 54.419,124.727 54.419 C 125.164 54.419,125.521 54.673,125.521 54.984 C 125.521 55.439,126.412 55.550,130.122 55.554 C 133.957 55.558,134.686 55.464,134.504 54.989 C 134.331 54.539,134.720 54.419,136.358 54.419 L 138.431 54.420 138.431 47.766 C 138.431 39.220,138.901 39.716,130.821 39.737 C 125.818 39.750,124.836 39.853,124.334 40.418 M150.426 40.532 C 149.307 41.840,149.590 54.143,150.745 54.359 C 151.182 54.441,151.682 54.756,151.857 55.059 C 152.333 55.886,161.375 55.848,162.207 55.015 C 162.535 54.687,163.173 54.419,163.626 54.419 C 164.427 54.419,164.449 54.234,164.449 47.468 C 164.449 41.554,164.360 40.516,163.853 40.516 C 163.525 40.516,163.257 40.338,163.257 40.119 C 163.257 39.241,151.200 39.629,150.426 40.532 M237.799 40.930 C 237.975 41.811,237.857 42.273,237.365 42.633 C 236.563 43.219,236.342 52.986,237.114 53.757 C 237.347 53.990,237.537 54.394,237.537 54.655 C 237.537 55.469,238.615 55.611,244.830 55.611 C 252.663 55.611,252.182 56.126,252.254 47.655 C 252.326 39.154,252.900 39.722,244.238 39.722 L 237.557 39.722 237.799 40.930 M264.438 40.521 C 263.850 41.207,263.754 42.246,263.754 47.869 L 263.754 54.419 265.707 54.419 C 266.913 54.419,267.723 54.608,267.825 54.914 C 268.097 55.732,274.654 55.848,275.862 55.056 C 276.397 54.706,277.089 54.419,277.401 54.419 C 278.768 54.419,279.013 42.215,277.679 40.616 C 276.587 39.307,265.545 39.228,264.438 40.521 M290.252 40.489 C 289.534 41.216,289.203 54.455,289.906 54.360 C 290.867 54.231,291.559 54.505,291.559 55.015 C 291.559 55.513,292.372 55.611,296.496 55.611 C 300.355 55.611,301.563 55.481,302.029 55.015 C 302.356 54.687,302.995 54.419,303.447 54.419 C 304.700 54.419,304.726 41.767,303.476 40.516 C 302.327 39.368,291.382 39.345,290.252 40.489 M155.710 66.137 C 155.710 66.615,155.103 66.733,152.632 66.733 L 149.553 66.733 149.642 73.386 C 149.692 77.046,149.736 80.145,149.742 80.274 C 149.806 81.779,162.195 81.991,163.585 80.511 C 164.707 79.316,164.943 67.295,163.853 66.877 C 163.525 66.751,163.257 66.399,163.257 66.095 C 163.257 65.660,162.444 65.541,159.484 65.541 C 156.394 65.541,155.710 65.649,155.710 66.137 M238.873 66.137 C 238.747 66.465,238.412 66.733,238.128 66.733 C 237.807 66.733,237.690 67.034,237.819 67.527 C 237.933 67.963,237.700 68.812,237.300 69.413 C 236.491 70.629,236.522 71.588,237.415 72.950 C 237.862 73.633,237.978 74.717,237.874 77.249 C 237.771 79.768,237.863 80.636,238.232 80.636 C 238.505 80.636,238.729 80.814,238.729 81.033 C 238.729 81.281,241.112 81.430,245.084 81.430 C 250.469 81.430,251.440 81.339,251.440 80.834 C 251.440 80.506,251.663 80.239,251.936 80.239 C 252.319 80.239,252.406 78.687,252.316 73.486 C 252.203 67.008,252.165 66.733,251.393 66.733 C 250.951 66.733,250.321 66.465,249.993 66.137 C 249.525 65.669,248.295 65.541,244.249 65.541 C 240.040 65.541,239.060 65.650,238.873 66.137 M238.959 92.104 C 238.842 92.294,238.250 92.548,237.645 92.669 L 236.544 92.889 236.664 98.948 C 236.766 104.098,236.885 105.081,237.458 105.500 C 237.829 105.771,238.000 106.125,237.838 106.286 C 236.686 107.438,248.081 108.377,251.639 107.423 C 252.939 107.074,252.640 92.752,251.330 92.653 C 250.851 92.617,250.396 92.401,250.320 92.173 C 250.150 91.663,239.273 91.597,238.959 92.104 M149.670 99.534 C 149.606 103.374,149.691 106.761,149.860 107.061 C 150.324 107.887,163.257 107.855,163.257 107.028 C 163.257 106.713,163.525 106.455,163.853 106.455 C 164.637 106.455,164.749 93.806,163.972 93.029 C 163.638 92.695,161.443 92.552,156.641 92.552 L 149.787 92.552 149.670 99.534 M149.671 125.583 C 149.521 134.236,148.810 133.510,157.301 133.376 L 164.250 133.267 164.359 126.018 L 164.467 118.769 157.127 118.769 L 149.788 118.769 149.671 125.583 M237.925 118.967 C 237.919 119.076,237.910 122.339,237.904 126.216 L 237.894 133.267 244.330 133.377 C 252.648 133.518,252.152 133.974,252.313 126.057 C 252.471 118.277,252.999 118.769,244.489 118.769 C 240.884 118.769,237.930 118.858,237.925 118.967 M149.670 151.759 C 149.602 155.928,149.711 159.087,149.930 159.306 C 150.340 159.714,162.792 159.836,163.821 159.441 C 164.633 159.129,164.773 145.865,163.972 145.065 C 163.638 144.731,161.443 144.588,156.641 144.588 L 149.786 144.588 149.670 151.759 M238.133 144.892 C 237.915 145.052,237.736 145.809,237.736 146.574 C 237.736 147.355,237.547 147.930,237.306 147.887 C 236.808 147.798,236.812 147.765,236.660 153.525 C 236.494 159.778,236.424 159.729,245.441 159.663 L 252.202 159.614 252.317 152.101 L 252.433 144.587 245.482 144.594 C 241.658 144.597,238.352 144.731,238.133 144.892 M170.804 160.278 C 170.804 160.606,170.555 160.874,170.251 160.874 C 169.947 160.874,169.590 161.153,169.459 161.495 C 169.328 161.836,169.037 162.002,168.811 161.863 C 168.586 161.723,168.450 161.757,168.511 161.937 C 168.725 162.582,163.473 167.916,162.810 167.726 C 162.619 167.671,162.463 167.895,162.463 168.222 C 162.463 168.550,162.314 168.818,162.133 168.818 C 161.951 168.818,161.563 169.265,161.271 169.811 C 160.979 170.357,160.588 170.804,160.403 170.804 C 160.217 170.804,159.458 171.430,158.715 172.195 C 157.507 173.438,155.687 174.189,156.306 173.188 C 156.441 172.969,156.364 172.790,156.135 172.790 C 155.507 172.790,154.133 171.503,154.364 171.131 C 154.474 170.951,154.287 170.804,153.946 170.804 C 153.605 170.804,153.327 170.536,153.327 170.209 C 153.327 169.881,153.148 169.613,152.929 169.613 C 152.711 169.613,151.817 168.898,150.943 168.024 C 150.070 167.150,149.355 166.256,149.355 166.038 C 149.355 165.819,149.190 165.641,148.990 165.641 C 148.522 165.641,144.588 161.697,144.588 161.228 C 144.588 161.033,143.515 160.874,142.205 160.874 C 140.847 160.874,139.821 161.049,139.821 161.280 C 139.821 161.503,139.374 161.889,138.828 162.138 C 138.282 162.387,137.835 162.738,137.835 162.919 C 137.835 163.484,136.493 164.846,135.936 164.846 C 135.644 164.846,135.506 165.009,135.629 165.208 C 135.752 165.408,135.137 166.138,134.262 166.831 C 131.903 168.699,132.017 170.141,134.742 172.888 C 135.880 174.036,136.770 175.123,136.718 175.303 C 136.666 175.483,136.775 175.537,136.960 175.422 C 137.306 175.208,138.871 176.772,138.741 177.202 C 138.701 177.335,139.106 177.678,139.642 177.964 C 140.177 178.251,140.616 178.724,140.616 179.014 C 140.616 179.305,140.758 179.543,140.931 179.543 C 141.425 179.543,144.588 182.609,144.588 183.087 C 144.588 183.323,144.826 183.515,145.117 183.515 C 145.407 183.515,145.884 183.962,146.177 184.508 C 146.469 185.055,146.946 185.501,147.237 185.501 C 147.528 185.501,147.766 185.640,147.766 185.810 C 147.766 186.330,150.046 188.649,150.304 188.392 C 150.437 188.258,150.546 188.448,150.546 188.812 C 150.546 189.176,150.749 189.474,150.997 189.474 C 151.245 189.474,151.862 189.921,152.368 190.467 C 152.875 191.013,153.551 191.460,153.870 191.460 C 154.190 191.460,154.520 191.662,154.602 191.910 C 154.689 192.171,155.653 192.360,156.902 192.360 C 158.150 192.360,159.114 192.171,159.201 191.910 C 159.284 191.662,159.649 191.457,160.013 191.453 C 160.782 191.446,163.257 189.375,163.257 188.739 C 163.257 188.501,163.525 188.410,163.853 188.536 C 164.185 188.663,164.449 188.546,164.449 188.273 C 164.449 187.730,167.970 184.310,168.529 184.310 C 169.043 184.310,172.214 181.018,172.085 180.618 C 172.025 180.431,172.161 180.393,172.386 180.532 C 172.612 180.671,172.903 180.506,173.034 180.164 C 173.165 179.823,173.522 179.543,173.826 179.543 C 174.130 179.543,174.379 179.275,174.379 178.947 C 174.379 178.620,174.667 178.352,175.018 178.352 C 175.431 178.352,175.573 178.135,175.419 177.735 C 175.283 177.379,175.350 177.222,175.578 177.363 C 175.796 177.497,176.081 177.328,176.212 176.986 C 176.343 176.645,176.699 176.365,177.004 176.365 C 177.308 176.365,177.557 176.097,177.557 175.770 C 177.557 175.442,177.736 175.174,177.954 175.174 C 178.173 175.174,178.352 174.816,178.352 174.379 C 178.352 173.942,178.529 173.585,178.746 173.585 C 179.389 173.585,181.529 170.364,181.529 169.397 C 181.529 168.482,179.292 165.760,178.688 165.938 C 178.503 165.993,178.352 165.878,178.352 165.683 C 178.352 165.241,173.589 160.340,173.573 160.764 C 173.566 160.934,173.379 160.760,173.156 160.377 C 172.654 159.515,170.804 159.437,170.804 160.278 M228.534 159.948 C 228.872 160.285,227.642 161.668,227.006 161.668 C 224.781 161.668,218.529 169.887,220.251 170.548 C 220.585 170.676,220.739 171.038,220.608 171.382 C 220.471 171.737,220.639 172.091,221.011 172.234 C 221.362 172.368,221.648 172.727,221.648 173.032 C 221.648 173.336,221.801 173.540,221.988 173.486 C 222.422 173.359,227.607 178.560,227.607 179.122 C 227.607 179.354,227.792 179.543,228.017 179.543 C 228.531 179.543,230.785 181.818,230.785 182.337 C 230.785 182.548,230.970 182.721,231.197 182.721 C 231.786 182.721,234.771 185.752,234.474 186.049 C 234.338 186.185,234.420 186.296,234.656 186.296 C 235.245 186.296,237.932 188.947,237.640 189.239 C 237.510 189.368,237.684 189.474,238.024 189.474 C 238.365 189.474,238.751 189.753,238.882 190.095 C 239.013 190.436,239.286 190.613,239.489 190.488 C 239.691 190.363,240.126 190.531,240.456 190.860 C 240.786 191.190,241.247 191.460,241.481 191.460 C 241.715 191.460,241.906 191.683,241.906 191.956 C 241.905 192.540,246.628 192.423,247.249 191.824 C 247.457 191.623,247.961 191.460,248.370 191.460 C 249.183 191.460,250.248 190.575,250.248 189.899 C 250.248 189.665,250.472 189.465,250.745 189.455 C 251.018 189.445,251.778 188.738,252.433 187.885 C 253.088 187.031,253.878 186.324,254.187 186.314 C 254.497 186.304,254.647 186.193,254.521 186.067 C 254.243 185.788,261.739 178.352,262.298 178.352 C 262.516 178.352,262.590 178.247,262.463 178.120 C 262.173 177.831,263.603 176.365,264.174 176.365 C 264.406 176.365,264.485 176.187,264.350 175.968 C 264.215 175.750,264.383 175.571,264.723 175.571 C 265.064 175.571,265.343 175.375,265.343 175.135 C 265.343 174.895,266.236 173.878,267.329 172.875 C 268.985 171.354,269.315 170.821,269.315 169.663 C 269.315 168.517,268.968 167.941,267.329 166.361 C 266.236 165.308,265.343 164.268,265.343 164.050 C 265.343 163.833,265.139 163.654,264.891 163.654 C 264.642 163.654,263.904 163.029,263.251 162.264 C 262.598 161.500,261.723 160.874,261.307 160.874 C 260.891 160.874,260.453 160.618,260.333 160.305 C 260.102 159.704,258.590 159.608,258.590 160.195 C 258.590 160.731,256.333 162.854,256.056 162.577 C 255.920 162.441,255.809 162.628,255.809 162.992 C 255.809 163.357,255.612 163.654,255.370 163.654 C 255.128 163.654,254.579 164.101,254.149 164.647 C 253.720 165.194,253.203 165.641,253.000 165.641 C 252.797 165.641,252.310 165.953,251.918 166.336 C 251.525 166.718,250.438 167.694,249.502 168.504 C 248.565 169.314,247.761 170.240,247.714 170.562 C 247.375 172.867,244.532 174.223,243.669 172.491 C 243.425 172.003,243.130 171.699,243.013 171.817 C 242.896 171.934,242.351 171.496,241.802 170.843 C 241.253 170.191,240.694 169.766,240.561 169.900 C 240.427 170.033,240.318 169.864,240.318 169.523 C 240.318 169.182,240.038 168.796,239.697 168.665 C 239.349 168.532,239.201 168.224,239.361 167.965 C 239.539 167.677,239.473 167.611,239.185 167.789 C 238.926 167.949,238.618 167.801,238.485 167.453 C 238.354 167.112,238.074 166.832,237.864 166.832 C 237.348 166.832,236.346 165.801,236.346 165.272 C 236.346 165.038,236.077 164.846,235.750 164.846 C 235.422 164.846,235.154 164.704,235.154 164.531 C 235.154 164.098,232.397 161.196,231.193 160.362 C 230.275 159.727,227.951 159.365,228.534 159.948 M54.022 193.247 C 53.750 193.575,53.281 193.843,52.980 193.843 C 52.679 193.843,52.478 193.983,52.532 194.153 C 52.664 194.565,49.201 198.042,48.786 197.915 C 48.607 197.860,48.461 197.949,48.460 198.113 C 48.459 198.620,46.411 200.800,46.035 200.695 C 45.391 200.515,45.625 204.174,46.274 204.424 C 46.600 204.549,46.768 204.811,46.648 205.007 C 46.527 205.202,46.572 205.365,46.749 205.369 C 47.273 205.379,49.652 207.614,49.652 208.096 C 49.652 208.340,49.890 208.540,50.181 208.540 C 50.472 208.540,50.949 208.987,51.241 209.533 C 51.534 210.079,51.916 210.526,52.092 210.526 C 52.673 210.526,58.594 216.749,58.553 217.317 C 58.455 218.660,58.373 218.903,58.078 218.721 C 57.906 218.615,57.552 219.007,57.290 219.592 C 57.029 220.177,56.286 221.008,55.639 221.438 C 54.992 221.869,54.527 222.286,54.606 222.365 C 54.806 222.565,53.302 224.032,52.897 224.032 C 52.716 224.032,52.328 224.479,52.036 225.025 C 51.743 225.571,51.256 226.018,50.952 226.018 C 50.648 226.018,50.510 226.197,50.645 226.415 C 50.781 226.634,50.705 226.812,50.479 226.812 C 50.252 226.812,49.080 227.815,47.873 229.041 C 44.594 232.373,44.699 232.933,49.499 237.709 C 54.381 242.568,55.394 242.754,58.815 239.424 C 59.994 238.277,61.095 237.383,61.263 237.438 C 61.432 237.493,61.569 237.338,61.569 237.094 C 61.569 236.574,76.485 221.648,77.005 221.648 C 77.709 221.648,77.565 214.227,76.856 213.955 C 76.504 213.820,76.327 213.530,76.463 213.310 C 76.599 213.090,76.510 212.910,76.266 212.910 C 76.022 212.910,75.924 212.745,76.048 212.544 C 76.172 212.343,75.801 211.807,75.223 211.353 C 74.646 210.898,74.299 210.526,74.453 210.526 C 74.731 210.526,72.907 208.722,70.393 206.510 C 69.676 205.879,69.203 205.362,69.343 205.362 C 69.483 205.362,69.023 204.826,68.322 204.171 C 67.620 203.515,66.886 202.979,66.691 202.979 C 66.495 202.979,66.336 202.822,66.336 202.631 C 66.336 201.950,58.876 194.825,57.454 194.147 C 56.659 193.769,56.008 193.277,56.008 193.055 C 56.008 192.437,54.579 192.575,54.022 193.247 M344.389 193.224 C 344.389 193.561,344.032 194.060,343.595 194.333 C 343.158 194.605,342.800 195.054,342.800 195.329 C 342.800 195.604,342.532 195.829,342.205 195.829 C 341.877 195.829,341.609 196.017,341.609 196.245 C 341.609 196.790,339.567 198.581,338.928 198.597 C 338.654 198.604,338.425 198.833,338.418 199.106 C 338.402 199.757,336.847 201.505,335.501 202.388 C 334.914 202.772,334.519 203.171,334.622 203.275 C 334.843 203.495,332.441 205.760,331.987 205.760 C 331.817 205.760,331.678 206.028,331.678 206.356 C 331.678 206.683,331.535 206.951,331.360 206.951 C 331.184 206.951,330.042 207.934,328.821 209.136 C 327.600 210.338,326.689 211.321,326.797 211.321 C 326.905 211.321,326.439 211.807,325.761 212.402 C 325.083 212.997,324.528 213.801,324.528 214.190 C 324.528 214.578,324.350 214.896,324.131 214.896 C 323.913 214.896,323.734 215.868,323.734 217.057 C 323.734 218.246,323.913 219.329,324.131 219.464 C 324.350 219.599,324.528 219.974,324.528 220.298 C 324.528 220.621,325.243 221.566,326.117 222.397 C 326.991 223.229,327.706 224.205,327.706 224.566 C 327.706 224.928,327.885 225.223,328.103 225.223 C 328.322 225.223,328.500 225.492,328.500 225.819 C 328.500 226.147,328.769 226.415,329.096 226.415 C 329.424 226.415,329.692 226.694,329.692 227.034 C 329.692 227.375,329.871 227.543,330.089 227.408 C 330.308 227.273,330.487 227.441,330.487 227.782 C 330.487 228.123,330.755 228.401,331.082 228.401 C 331.410 228.401,331.678 228.540,331.678 228.710 C 331.678 229.011,333.126 230.525,336.147 233.385 C 336.966 234.160,337.637 234.876,337.637 234.974 C 337.637 235.073,337.994 235.511,338.431 235.948 C 338.868 236.385,339.225 236.672,339.225 236.585 C 339.225 236.498,340.386 237.571,341.804 238.968 C 343.223 240.366,344.653 241.509,344.982 241.509 C 345.311 241.509,345.581 241.761,345.581 242.068 C 345.581 242.431,345.859 242.554,346.375 242.419 C 346.812 242.305,347.170 242.053,347.170 241.860 C 347.170 241.667,347.438 241.509,347.766 241.509 C 348.093 241.509,348.361 241.222,348.361 240.871 C 348.361 240.510,348.586 240.319,348.879 240.431 C 349.179 240.547,349.609 240.152,349.901 239.491 C 350.179 238.864,350.527 238.368,350.674 238.388 C 351.647 238.523,352.334 238.244,352.334 237.712 C 352.334 237.372,352.493 237.192,352.689 237.312 C 352.884 237.433,353.155 237.086,353.292 236.541 C 353.429 235.997,353.716 235.551,353.930 235.551 C 354.144 235.551,354.320 235.272,354.320 234.932 C 354.320 234.591,354.479 234.411,354.674 234.531 C 355.157 234.830,356.306 232.999,356.306 231.929 C 356.306 231.112,353.423 228.004,352.665 228.004 C 352.483 228.004,352.334 227.736,352.334 227.408 C 352.334 227.080,352.066 226.812,351.738 226.812 C 351.410 226.812,351.142 226.514,351.142 226.150 C 351.142 225.786,351.049 225.581,350.936 225.694 C 350.620 226.010,347.152 222.396,347.395 222.003 C 347.512 221.813,347.331 221.764,346.992 221.894 C 346.653 222.024,346.375 221.943,346.375 221.713 C 346.375 221.483,345.482 220.415,344.389 219.340 C 343.297 218.265,342.403 217.210,342.403 216.996 C 342.403 216.500,343.988 215.048,344.004 215.529 C 344.011 215.727,344.198 215.576,344.421 215.194 C 344.644 214.811,345.056 214.499,345.337 214.499 C 345.618 214.499,346.503 213.769,347.303 212.877 C 348.104 211.986,348.759 211.360,348.759 211.487 C 348.759 211.954,350.348 210.113,350.359 209.633 C 350.374 209.010,352.579 206.554,353.123 206.554 C 353.344 206.554,353.525 206.377,353.525 206.161 C 353.525 205.551,354.820 204.188,355.185 204.413 C 355.365 204.524,355.511 204.336,355.511 203.996 C 355.511 203.655,355.690 203.376,355.909 203.376 C 356.484 203.376,356.373 201.313,355.753 200.497 C 355.463 200.114,355.101 199.801,354.950 199.801 C 354.575 199.801,348.361 193.480,348.361 193.098 C 348.361 192.931,347.468 192.753,346.375 192.703 C 344.812 192.631,344.389 192.742,344.389 193.224 M171.742 203.178 C 171.563 203.646,170.755 203.774,167.981 203.774 C 165.891 203.774,164.449 203.936,164.449 204.171 C 164.449 204.389,163.747 204.568,162.888 204.568 C 162.030 204.568,161.092 204.791,160.803 205.065 C 160.190 205.644,158.671 206.398,157.392 206.756 C 156.898 206.895,156.595 207.174,156.721 207.377 C 156.846 207.580,156.591 207.746,156.154 207.746 C 155.717 207.746,155.249 207.925,155.114 208.143 C 154.979 208.361,154.530 208.540,154.116 208.540 C 153.702 208.540,152.916 208.987,152.370 209.533 C 151.824 210.079,151.023 210.526,150.591 210.526 C 150.152 210.526,149.693 210.880,149.551 211.327 C 149.412 211.767,149.131 212.024,148.929 211.899 C 148.726 211.774,148.560 211.831,148.560 212.026 C 148.560 212.568,145.566 215.690,145.046 215.690 C 144.794 215.690,144.588 215.872,144.588 216.094 C 144.588 216.317,143.962 217.106,143.198 217.849 C 142.433 218.591,141.807 219.386,141.807 219.615 C 141.807 219.845,141.275 220.638,140.625 221.379 C 139.974 222.120,139.572 222.877,139.731 223.062 C 139.890 223.247,139.573 223.092,139.027 222.718 C 138.481 222.344,137.627 221.863,137.130 221.650 C 136.633 221.437,135.839 220.903,135.367 220.463 C 134.894 220.023,133.995 219.662,133.367 219.662 C 132.708 219.662,132.331 219.495,132.473 219.265 C 132.616 219.033,132.212 218.868,131.503 218.868 C 130.688 218.868,130.288 218.672,130.288 218.272 C 130.288 217.847,129.855 217.676,128.779 217.676 C 127.948 217.676,127.065 217.472,126.815 217.222 C 126.532 216.939,125.103 216.798,123.029 216.848 C 120.388 216.911,119.589 216.796,119.170 216.290 C 118.485 215.466,114.149 215.528,113.827 216.367 C 113.668 216.782,112.758 216.898,110.037 216.849 C 107.959 216.811,106.239 216.963,105.940 217.212 C 105.656 217.448,104.762 217.685,103.953 217.740 C 103.000 217.804,102.483 218.036,102.483 218.398 C 102.483 218.798,102.131 218.907,101.254 218.778 C 100.480 218.664,99.954 218.786,99.831 219.106 C 99.723 219.385,99.113 219.729,98.474 219.869 C 97.835 220.009,97.413 220.288,97.537 220.489 C 97.661 220.690,97.316 220.854,96.770 220.854 C 96.224 220.854,95.666 221.033,95.531 221.251 C 95.396 221.470,94.939 221.648,94.515 221.648 C 94.091 221.648,93.744 221.902,93.744 222.211 C 93.744 222.520,93.227 223.002,92.595 223.282 C 91.927 223.578,91.529 224.008,91.644 224.309 C 91.782 224.669,91.448 224.826,90.542 224.826 C 89.827 224.826,89.340 224.925,89.461 225.045 C 89.747 225.331,86.421 228.798,85.860 228.798 C 85.622 228.798,85.530 229.067,85.656 229.394 C 85.793 229.752,85.658 229.990,85.320 229.990 C 85.009 229.990,84.457 230.616,84.092 231.380 C 83.727 232.145,83.247 232.771,83.025 232.771 C 82.803 232.771,82.622 233.039,82.622 233.366 C 82.622 233.694,82.456 233.962,82.254 233.962 C 81.815 233.962,80.636 236.218,80.636 237.056 C 80.636 237.380,80.189 238.059,79.643 238.565 C 79.017 239.145,78.649 239.918,78.649 240.654 C 78.649 241.325,78.396 241.919,78.054 242.050 C 77.680 242.194,77.458 242.801,77.458 243.682 C 77.458 244.453,77.279 245.084,77.061 245.084 C 76.842 245.084,76.663 245.889,76.663 246.872 C 76.663 248.117,76.499 248.659,76.122 248.659 C 75.711 248.659,75.562 249.501,75.505 252.135 C 75.464 254.047,75.261 255.670,75.054 255.743 C 74.847 255.816,74.677 256.085,74.677 256.342 C 74.677 256.651,74.074 256.760,72.893 256.666 C 71.533 256.558,71.050 256.676,70.864 257.160 C 70.707 257.570,70.141 257.795,69.272 257.795 C 68.531 257.795,67.925 257.974,67.925 258.193 C 67.925 258.411,67.580 258.590,67.158 258.590 C 66.737 258.590,66.124 258.858,65.797 259.186 C 65.469 259.513,64.820 259.782,64.354 259.782 C 63.889 259.782,63.619 259.960,63.754 260.179 C 63.889 260.397,63.637 260.576,63.195 260.576 C 62.753 260.576,61.830 261.124,61.144 261.794 C 60.459 262.464,59.648 262.917,59.343 262.800 C 59.038 262.683,58.788 262.777,58.788 263.009 C 58.788 263.388,51.708 270.563,51.096 270.804 C 50.957 270.859,50.812 271.038,50.773 271.202 C 50.734 271.365,50.466 271.736,50.177 272.024 C 49.889 272.313,49.652 272.805,49.652 273.117 C 49.652 273.429,49.482 273.684,49.274 273.684 C 49.066 273.684,48.581 274.355,48.197 275.174 C 47.812 275.993,47.254 276.913,46.955 277.219 C 46.657 277.525,46.502 278.117,46.612 278.534 C 46.727 278.975,46.573 279.385,46.245 279.511 C 45.934 279.630,45.680 280.079,45.680 280.508 C 45.680 280.937,45.412 281.556,45.084 281.884 C 44.757 282.212,44.489 283.003,44.489 283.643 C 44.489 284.283,44.310 284.806,44.091 284.806 C 43.862 284.806,43.694 286.064,43.694 287.786 C 43.694 290.235,43.583 290.765,43.067 290.765 C 42.241 290.765,42.369 301.116,43.198 301.391 C 43.527 301.500,43.694 302.423,43.694 304.128 C 43.694 305.742,43.842 306.609,44.091 306.455 C 44.328 306.309,44.489 306.786,44.489 307.635 C 44.489 308.537,44.708 309.146,45.084 309.290 C 45.441 309.427,45.680 310.025,45.680 310.778 C 45.680 312.094,46.780 313.406,47.882 313.406 C 48.214 313.406,48.589 313.674,48.714 314.002 C 48.881 314.437,49.567 314.598,51.260 314.598 C 52.535 314.598,53.688 314.777,53.823 314.995 C 53.958 315.214,55.047 315.392,56.242 315.392 C 57.808 315.392,58.480 315.559,58.645 315.988 C 58.812 316.423,59.497 316.584,61.191 316.584 C 62.465 316.584,63.619 316.763,63.754 316.981 C 63.889 317.200,65.056 317.378,66.347 317.378 C 68.146 317.378,68.646 317.503,68.490 317.911 C 68.333 318.319,68.907 318.464,70.936 318.529 C 72.617 318.584,73.797 318.825,74.161 319.188 C 74.503 319.531,75.513 319.762,76.668 319.762 C 77.732 319.762,78.713 319.940,78.848 320.159 C 78.983 320.377,79.987 320.556,81.080 320.556 C 82.303 320.556,82.971 320.709,82.820 320.953 C 82.538 321.410,83.119 321.478,86.296 321.361 C 88.155 321.293,88.580 321.395,88.580 321.910 C 88.580 322.422,89.062 322.542,91.119 322.542 C 93.010 322.542,93.717 322.694,93.887 323.138 C 94.056 323.577,94.751 323.734,96.535 323.734 C 98.047 323.734,98.862 323.883,98.709 324.131 C 98.555 324.380,99.417 324.528,101.020 324.528 C 102.808 324.528,103.726 324.707,104.071 325.124 C 104.386 325.503,105.263 325.720,106.475 325.720 C 107.642 325.720,108.616 325.488,108.980 325.124 C 109.308 324.796,109.835 324.528,110.151 324.528 C 110.838 324.528,111.718 323.568,111.360 323.210 C 111.221 323.072,111.401 322.845,111.760 322.708 C 112.119 322.570,112.413 322.208,112.413 321.904 C 112.413 321.600,112.692 321.351,113.032 321.351 C 113.373 321.351,113.541 321.172,113.406 320.953 C 113.271 320.735,113.439 320.556,113.780 320.556 C 114.168 320.556,114.399 320.202,114.399 319.609 C 114.399 319.037,114.792 318.404,115.392 318.011 C 116.027 317.595,116.385 316.990,116.385 316.334 C 116.385 315.676,116.564 315.376,116.882 315.497 C 117.212 315.624,117.414 315.207,117.485 314.249 C 117.543 313.458,117.766 312.751,117.981 312.678 C 118.196 312.605,118.371 311.845,118.371 310.990 C 118.371 309.986,118.541 309.469,118.850 309.533 C 119.354 309.638,119.433 309.387,119.513 307.424 C 119.542 306.725,119.732 306.314,119.960 306.455 C 120.212 306.610,120.357 305.598,120.357 303.698 L 120.357 300.695 122.542 300.695 C 124.766 300.695,125.886 302.261,124.141 302.931 C 123.676 303.109,123.606 303.639,123.801 305.500 C 124.008 307.482,123.948 307.845,123.414 307.845 C 122.932 307.845,122.754 308.339,122.662 309.930 C 122.581 311.339,122.381 311.984,122.046 311.917 C 121.715 311.850,121.549 312.347,121.549 313.406 C 121.549 314.280,121.370 314.995,121.152 314.995 C 120.933 314.995,120.755 315.423,120.755 315.946 C 120.755 316.468,120.487 316.999,120.159 317.125 C 119.831 317.251,119.563 317.717,119.563 318.160 C 119.563 318.604,119.429 318.923,119.265 318.868 C 119.101 318.813,118.967 318.915,118.967 319.094 C 118.967 319.274,118.654 319.595,118.272 319.809 C 117.890 320.023,117.577 320.534,117.577 320.944 C 117.577 321.354,117.130 322.042,116.584 322.471 C 115.224 323.541,115.054 327.772,116.385 327.424 C 116.821 327.310,117.619 327.505,118.158 327.859 C 118.737 328.238,119.967 328.500,121.166 328.500 C 122.440 328.500,123.417 328.722,123.791 329.096 C 124.174 329.480,125.156 329.692,126.543 329.692 C 127.729 329.692,128.699 329.871,128.699 330.089 C 128.699 330.317,129.900 330.487,131.508 330.487 C 133.475 330.487,134.495 330.665,134.913 331.082 C 135.319 331.488,136.322 331.678,138.062 331.678 C 139.500 331.678,140.616 331.852,140.616 332.075 C 140.616 332.309,141.990 332.473,143.943 332.473 C 146.417 332.473,147.398 332.626,147.766 333.069 C 148.129 333.506,149.092 333.664,151.389 333.664 C 153.211 333.664,154.518 333.830,154.518 334.062 C 154.518 334.305,156.422 334.459,159.435 334.459 C 163.321 334.459,164.455 334.584,164.846 335.055 C 165.244 335.534,166.460 335.650,171.052 335.650 C 175.356 335.650,176.763 335.773,176.762 336.147 C 176.762 336.532,178.622 336.618,185.043 336.529 C 192.104 336.432,193.398 336.505,193.831 337.026 C 194.522 337.859,196.320 337.794,197.353 336.899 L 198.204 336.161 198.219 302.638 L 198.234 269.116 194.994 268.918 C 192.617 268.772,191.704 268.851,191.565 269.215 C 191.448 269.519,190.620 269.712,189.431 269.712 C 187.968 269.712,187.488 269.859,187.488 270.308 C 187.488 270.636,187.247 270.904,186.953 270.904 C 186.270 270.904,184.000 272.029,183.698 272.518 C 183.572 272.722,183.122 272.890,182.698 272.890 C 182.273 272.890,181.927 273.069,181.927 273.287 C 181.927 273.505,181.548 273.684,181.086 273.684 C 180.623 273.684,179.596 274.373,178.802 275.215 C 178.008 276.058,176.956 276.874,176.465 277.030 C 175.973 277.185,175.571 277.479,175.571 277.683 C 175.571 277.887,175.437 278.009,175.273 277.954 C 175.109 277.900,174.930 277.989,174.876 278.153 C 174.678 278.746,173.379 279.910,173.088 279.755 C 172.925 279.667,172.790 280.040,172.790 280.583 C 172.790 281.164,172.381 281.893,171.797 282.352 C 171.251 282.782,170.804 283.312,170.804 283.530 C 170.804 283.748,170.536 284.030,170.209 284.156 C 169.881 284.281,169.613 284.633,169.613 284.937 C 169.613 285.241,169.166 285.825,168.620 286.235 C 168.073 286.646,167.627 287.385,167.627 287.880 C 167.627 288.374,167.448 288.779,167.229 288.779 C 167.011 288.779,166.832 289.494,166.832 290.367 C 166.832 291.515,166.667 291.956,166.236 291.956 C 165.820 291.956,165.641 292.376,165.641 293.347 C 165.641 294.272,165.455 294.737,165.085 294.737 C 164.692 294.737,164.547 295.202,164.589 296.326 C 164.627 297.364,164.475 297.915,164.151 297.915 C 163.799 297.915,163.654 298.762,163.654 300.827 C 163.654 303.941,162.469 305.627,161.184 304.342 C 160.926 304.084,160.393 303.873,160.000 303.873 C 159.092 303.873,158.989 301.688,159.881 301.346 C 160.310 301.181,160.477 300.509,160.477 298.944 C 160.477 297.748,160.655 296.659,160.874 296.524 C 161.092 296.389,161.271 295.401,161.271 294.329 C 161.271 292.907,161.409 292.431,161.780 292.574 C 162.101 292.697,162.319 292.391,162.373 291.741 C 162.420 291.175,162.740 290.430,163.085 290.086 C 163.479 289.692,163.625 289.111,163.477 288.523 C 163.307 287.847,163.410 287.587,163.845 287.587 C 164.177 287.587,164.449 287.395,164.449 287.161 C 164.449 286.927,164.727 286.457,165.068 286.117 C 165.408 285.777,165.589 285.244,165.469 284.933 C 165.350 284.622,165.424 284.474,165.633 284.603 C 165.843 284.733,166.135 284.359,166.282 283.772 C 166.429 283.185,167.239 282.016,168.081 281.174 C 168.924 280.332,169.615 279.419,169.619 279.146 C 169.622 278.873,170.498 277.800,171.565 276.763 C 172.632 275.725,173.394 274.876,173.258 274.876 C 172.831 274.876,174.943 273.508,175.494 273.427 C 175.783 273.384,176.385 272.933,176.831 272.425 C 177.278 271.916,177.803 271.544,177.998 271.599 C 178.192 271.653,178.352 271.430,178.352 271.102 C 178.352 270.775,178.560 270.506,178.814 270.506 C 179.555 270.506,182.324 269.193,182.324 268.841 C 182.324 268.665,182.771 268.520,183.317 268.520 C 183.863 268.520,184.310 268.342,184.310 268.123 C 184.310 267.905,184.658 267.726,185.085 267.726 C 185.511 267.726,186.002 267.482,186.177 267.184 C 186.488 266.652,187.285 266.432,191.241 265.786 C 192.322 265.609,193.275 265.259,193.359 265.006 C 193.452 264.729,194.440 264.548,195.862 264.548 L 198.213 264.548 198.213 238.364 C 198.213 223.963,198.321 211.897,198.454 211.552 C 198.612 211.140,198.475 210.924,198.056 210.924 C 197.705 210.924,197.418 210.645,197.418 210.304 C 197.418 209.964,197.248 209.790,197.041 209.918 C 196.833 210.046,196.475 209.799,196.245 209.369 C 195.985 208.883,195.525 208.644,195.033 208.739 C 194.596 208.823,194.240 208.678,194.240 208.414 C 194.240 207.807,192.856 206.935,191.507 206.693 C 190.935 206.591,190.297 206.339,190.089 206.133 C 189.882 205.928,189.409 205.760,189.040 205.760 C 188.670 205.760,188.264 205.492,188.138 205.164 C 187.982 204.756,187.343 204.568,186.110 204.568 C 185.120 204.568,184.310 204.389,184.310 204.171 C 184.310 203.937,182.910 203.774,180.905 203.774 C 178.408 203.774,177.341 203.615,176.905 203.178 C 176.520 202.794,175.538 202.582,174.140 202.582 C 172.579 202.582,171.907 202.749,171.742 203.178 M217.854 204.152 C 217.646 204.360,216.825 204.574,216.030 204.627 C 215.031 204.695,214.645 204.885,214.782 205.242 C 214.925 205.616,214.527 205.760,213.349 205.760 C 212.212 205.760,211.718 205.929,211.718 206.318 C 211.718 206.680,211.440 206.804,210.928 206.670 C 210.428 206.540,210.049 206.698,209.893 207.105 C 209.758 207.457,209.303 207.746,208.882 207.746 C 208.462 207.746,208.025 207.988,207.911 208.285 C 207.798 208.581,207.274 208.776,206.747 208.719 C 206.094 208.647,205.713 208.856,205.548 209.377 C 205.414 209.797,205.139 210.038,204.937 209.913 C 204.734 209.788,204.568 209.964,204.568 210.304 C 204.568 210.645,204.392 210.879,204.176 210.824 C 203.653 210.692,203.616 288.039,204.139 288.362 C 204.345 288.489,204.570 289.394,204.640 290.374 C 204.727 291.596,204.932 292.121,205.293 292.046 C 205.623 291.977,205.792 292.274,205.745 292.840 C 205.624 294.328,205.738 294.797,206.157 294.538 C 206.380 294.400,206.554 294.719,206.554 295.267 C 206.554 295.802,206.834 296.348,207.175 296.479 C 207.546 296.621,207.746 297.079,207.672 297.614 C 207.595 298.168,207.737 298.472,208.044 298.411 C 208.317 298.357,208.540 298.580,208.540 298.908 C 208.540 299.235,208.808 299.503,209.136 299.503 C 209.507 299.503,209.732 299.879,209.732 300.497 C 209.732 301.043,209.911 301.490,210.129 301.490 C 210.348 301.490,210.526 301.768,210.526 302.109 C 210.526 302.449,210.706 302.617,210.926 302.481 C 211.146 302.345,211.434 302.513,211.565 302.855 C 211.696 303.196,212.052 303.476,212.356 303.476 C 212.661 303.476,212.910 303.661,212.910 303.888 C 212.910 304.437,215.907 307.448,216.453 307.448 C 216.689 307.448,216.882 307.593,216.882 307.770 C 216.882 308.432,218.573 309.877,219.107 309.672 C 219.412 309.555,219.662 309.657,219.662 309.899 C 219.662 310.442,220.866 311.390,221.578 311.407 C 221.866 311.414,222.371 311.688,222.698 312.016 C 223.026 312.344,223.620 312.612,224.018 312.612 C 224.416 312.612,224.843 312.877,224.967 313.201 C 225.095 313.534,225.457 313.689,225.801 313.557 C 226.156 313.421,226.510 313.589,226.653 313.961 C 226.832 314.427,227.426 314.598,228.864 314.598 C 230.075 314.598,230.737 314.751,230.586 314.995 C 230.432 315.243,231.253 315.392,232.776 315.392 C 234.410 315.392,235.406 315.588,235.806 315.988 C 236.134 316.316,236.926 316.584,237.566 316.584 C 238.712 316.584,238.729 316.616,238.729 318.785 L 238.729 320.986 237.153 320.893 C 236.286 320.841,235.488 320.566,235.378 320.281 C 235.245 319.933,234.388 319.762,232.783 319.762 C 231.451 319.762,230.387 319.585,230.387 319.364 C 230.387 319.146,229.806 318.962,229.096 318.955 C 228.386 318.948,227.458 318.680,227.034 318.359 C 226.610 318.038,225.851 317.776,225.346 317.776 C 224.796 317.776,224.429 317.537,224.429 317.180 C 224.429 316.813,224.056 316.584,223.459 316.584 C 222.926 316.584,222.379 316.405,222.244 316.187 C 222.109 315.968,221.646 315.789,221.215 315.789 C 220.784 315.789,220.329 315.521,220.203 315.194 C 220.077 314.866,219.577 314.598,219.091 314.598 C 218.552 314.598,217.998 314.205,217.670 313.592 C 217.352 313.000,216.847 312.633,216.440 312.699 C 216.037 312.764,214.992 312.022,213.938 310.924 C 212.943 309.886,211.991 309.028,211.824 309.018 C 211.656 309.008,210.983 308.302,210.328 307.448 C 209.672 306.594,208.996 305.887,208.825 305.877 C 208.340 305.849,206.360 303.709,206.316 303.166 C 206.294 302.900,206.249 302.491,206.216 302.258 C 206.184 302.025,205.665 301.891,205.065 301.960 L 203.972 302.085 203.972 319.364 C 203.972 335.056,204.031 336.634,204.614 336.539 C 204.968 336.481,205.481 336.705,205.755 337.035 C 206.504 337.937,219.265 337.930,219.265 337.028 C 219.265 336.498,220.500 336.423,228.898 336.445 C 234.196 336.459,238.764 336.465,239.050 336.458 C 239.336 336.451,239.462 336.270,239.331 336.057 C 239.180 335.813,241.554 335.630,245.762 335.561 C 250.841 335.478,252.409 335.333,252.334 334.955 C 252.258 334.579,253.435 334.459,257.176 334.459 C 260.042 334.459,262.221 334.292,262.363 334.062 C 262.498 333.843,264.020 333.664,265.744 333.664 C 268.186 333.664,268.956 333.526,269.229 333.037 C 269.516 332.525,270.207 332.434,273.023 332.541 C 275.583 332.638,276.466 332.544,276.466 332.175 C 276.465 331.821,277.348 331.677,279.543 331.672 C 282.110 331.667,284.787 331.079,283.416 330.821 C 283.198 330.780,284.181 330.643,285.601 330.517 L 288.183 330.288 288.304 328.402 C 288.406 326.804,288.270 326.373,287.410 325.576 C 286.852 325.059,286.395 324.422,286.395 324.161 C 286.395 323.900,286.248 323.778,286.069 323.889 C 285.602 324.177,284.498 322.774,284.332 321.681 C 284.255 321.172,283.972 320.799,283.705 320.854 C 283.437 320.909,283.217 320.685,283.217 320.357 C 283.217 320.030,283.039 319.762,282.820 319.762 C 282.602 319.762,282.423 319.399,282.423 318.955 C 282.423 318.511,282.155 318.045,281.827 317.919 C 281.500 317.793,281.231 317.363,281.231 316.962 C 281.231 316.561,281.053 316.123,280.834 315.988 C 280.616 315.853,280.437 315.390,280.437 314.959 C 280.437 314.528,280.169 314.073,279.841 313.947 C 279.473 313.806,279.245 313.202,279.245 312.371 C 279.245 311.629,279.067 311.023,278.848 311.023 C 278.630 311.023,278.451 310.123,278.451 309.024 C 278.451 307.614,278.275 306.958,277.855 306.797 C 277.400 306.622,277.259 305.876,277.259 303.632 C 277.259 301.286,277.379 300.695,277.855 300.695 C 278.183 300.695,278.451 300.427,278.451 300.099 C 278.451 299.700,278.851 299.503,279.666 299.503 C 280.334 299.503,280.782 299.663,280.661 299.859 C 280.540 300.055,280.693 300.311,281.001 300.430 C 281.374 300.573,281.635 301.549,281.782 303.351 C 282.277 309.423,282.487 310.626,283.056 310.626 C 283.363 310.626,283.615 310.905,283.615 311.246 C 283.615 312.403,284.893 315.783,285.248 315.563 C 285.442 315.443,285.601 315.803,285.601 316.362 C 285.601 316.921,285.805 317.378,286.054 317.378 C 286.668 317.378,287.559 318.607,287.574 319.476 C 287.581 319.865,287.854 320.286,288.180 320.412 C 288.507 320.537,288.682 320.787,288.571 320.968 C 288.459 321.149,288.910 321.618,289.574 322.010 C 290.237 322.402,290.707 322.915,290.616 323.150 C 290.526 323.385,290.925 323.798,291.502 324.067 C 292.080 324.335,293.088 325.243,293.744 326.083 C 294.399 326.924,295.051 327.544,295.192 327.462 C 295.333 327.380,295.551 327.580,295.676 327.907 C 295.979 328.697,302.740 328.792,302.582 328.004 C 302.512 327.654,303.422 327.441,305.660 327.282 C 307.408 327.159,308.659 326.995,308.441 326.919 C 308.222 326.842,309.384 326.638,311.023 326.464 C 319.086 325.609,319.909 325.477,320.063 325.016 C 320.175 324.679,321.322 324.528,323.767 324.528 C 325.863 324.528,327.309 324.366,327.309 324.131 C 327.309 323.904,328.505 323.734,330.102 323.734 C 332.218 323.734,332.950 323.589,333.123 323.138 C 333.296 322.690,334.017 322.542,336.042 322.542 C 337.975 322.542,338.873 322.371,339.237 321.932 C 339.625 321.464,340.489 321.338,342.942 321.390 C 345.033 321.435,346.193 321.302,346.291 321.007 C 346.374 320.759,347.243 320.556,348.222 320.556 C 350.101 320.556,351.816 319.174,352.369 317.214 C 352.497 316.758,352.824 316.434,353.093 316.494 C 353.363 316.554,353.470 316.419,353.331 316.194 C 353.192 315.968,353.357 315.677,353.699 315.546 C 354.040 315.414,354.320 314.969,354.320 314.555 C 354.320 314.142,354.496 313.803,354.712 313.803 C 354.928 313.803,355.219 313.088,355.359 312.214 C 355.499 311.341,355.769 310.626,355.959 310.626 C 356.150 310.626,356.306 310.173,356.306 309.620 C 356.306 309.067,356.574 308.512,356.902 308.386 C 357.306 308.231,357.498 307.597,357.498 306.412 C 357.498 305.453,357.676 304.667,357.895 304.667 C 358.147 304.667,358.292 301.630,358.292 296.349 C 358.292 291.232,358.139 287.937,357.895 287.786 C 357.676 287.650,357.498 286.848,357.498 286.003 C 357.498 285.158,357.229 284.198,356.902 283.870 C 356.574 283.542,356.306 282.825,356.306 282.276 C 356.306 281.727,356.127 281.168,355.909 281.033 C 355.690 280.898,355.511 280.351,355.511 279.818 C 355.511 279.221,355.282 278.848,354.916 278.848 C 354.588 278.848,354.320 278.499,354.320 278.073 C 354.320 277.647,354.024 277.133,353.663 276.931 C 353.259 276.705,353.103 276.308,353.259 275.903 C 353.413 275.502,353.281 275.154,352.923 275.017 C 352.599 274.893,352.334 274.403,352.334 273.929 C 352.334 273.047,350.999 271.576,350.580 271.996 C 350.452 272.123,350.348 271.995,350.348 271.711 C 350.348 271.426,349.901 270.779,349.355 270.273 C 348.808 269.767,348.356 269.121,348.349 268.837 C 348.329 268.035,347.412 267.018,346.574 266.868 C 345.701 266.713,344.389 265.544,344.389 264.922 C 344.389 264.691,344.234 264.597,344.045 264.714 C 343.855 264.831,343.301 264.407,342.814 263.772 C 342.327 263.136,341.320 262.327,340.577 261.974 C 339.834 261.622,339.225 261.152,339.225 260.931 C 339.225 260.710,339.079 260.620,338.899 260.731 C 338.720 260.842,338.073 260.674,337.463 260.357 C 336.853 260.041,336.106 259.782,335.804 259.782 C 335.501 259.782,335.253 259.606,335.253 259.392 C 335.253 259.178,334.806 258.890,334.260 258.753 C 333.714 258.616,333.267 258.355,333.267 258.174 C 333.267 257.992,332.597 257.788,331.778 257.720 C 330.846 257.643,330.325 257.411,330.387 257.100 C 330.455 256.763,329.922 256.604,328.723 256.604 C 326.899 256.604,326.251 256.123,326.450 254.916 C 326.518 254.501,326.314 254.220,325.944 254.220 C 325.426 254.220,325.323 253.621,325.323 250.633 C 325.323 247.776,325.199 246.998,324.714 246.812 C 324.280 246.646,324.132 246.112,324.200 244.965 C 324.258 243.983,324.107 243.289,323.816 243.192 C 323.552 243.104,323.337 242.611,323.337 242.096 C 323.337 241.581,323.158 241.049,322.939 240.914 C 322.721 240.779,322.542 240.316,322.542 239.885 C 322.542 239.454,322.274 238.998,321.946 238.873 C 321.619 238.747,321.351 238.316,321.351 237.915 C 321.351 237.515,321.172 237.076,320.953 236.941 C 320.735 236.806,320.556 236.385,320.556 236.006 C 320.556 235.626,320.027 234.877,319.381 234.341 C 318.735 233.805,318.194 233.098,318.180 232.771 C 318.149 232.093,315.167 228.798,314.583 228.798 C 314.373 228.798,314.201 228.640,314.201 228.447 C 314.201 227.913,310.903 224.826,310.332 224.826 C 310.056 224.826,309.831 224.558,309.831 224.230 C 309.831 223.903,309.516 223.635,309.131 223.635 C 308.746 223.635,308.095 223.188,307.685 222.642 C 307.275 222.095,306.643 221.648,306.280 221.648 C 305.917 221.648,305.451 221.487,305.243 221.290 C 305.036 221.093,304.544 220.869,304.150 220.793 C 303.756 220.717,303.478 220.477,303.531 220.258 C 303.585 220.040,303.103 219.762,302.460 219.640 C 301.817 219.519,301.323 219.243,301.363 219.028 C 301.403 218.806,300.820 218.708,300.016 218.802 C 298.995 218.921,298.497 218.787,298.237 218.322 C 297.988 217.879,297.328 217.676,296.131 217.676 C 295.171 217.676,294.276 217.498,294.141 217.279 C 293.990 217.034,290.636 216.882,285.402 216.882 C 280.168 216.882,276.815 217.034,276.663 217.279 C 276.528 217.498,275.817 217.676,275.084 217.676 C 273.446 217.676,272.423 218.037,272.717 218.512 C 272.838 218.708,272.490 218.868,271.944 218.868 C 271.397 218.868,270.840 219.047,270.705 219.265 C 270.570 219.484,269.934 219.662,269.291 219.662 C 268.161 219.662,266.362 220.946,266.832 221.417 C 266.960 221.544,266.582 221.648,265.992 221.648 C 265.403 221.648,264.818 221.917,264.692 222.244 C 264.566 222.572,264.035 222.840,263.513 222.840 C 262.990 222.840,262.562 223.031,262.562 223.264 C 262.562 223.497,261.892 224.321,261.072 225.094 C 260.149 225.965,259.631 226.789,259.709 227.261 C 259.785 227.725,259.630 227.979,259.311 227.913 C 259.000 227.849,258.737 228.250,258.662 228.904 C 258.593 229.509,258.369 229.901,258.166 229.775 C 257.812 229.556,257.641 230.077,257.754 231.029 C 257.782 231.273,257.535 231.697,257.205 231.972 C 256.874 232.246,256.604 232.908,256.604 233.443 C 256.604 233.978,256.336 234.684,256.008 235.012 C 255.603 235.417,255.412 236.419,255.412 238.138 C 255.412 239.530,255.233 240.779,255.015 240.914 C 254.796 241.049,254.618 241.774,254.618 242.526 L 254.618 243.893 252.433 243.893 L 250.248 243.893 250.248 241.751 C 250.248 240.213,250.416 239.544,250.844 239.380 C 251.275 239.214,251.440 238.539,251.440 236.941 C 251.440 235.373,251.608 234.667,252.019 234.510 C 252.431 234.351,252.528 233.939,252.354 233.072 C 252.184 232.219,252.293 231.724,252.722 231.410 C 253.058 231.164,253.409 230.610,253.503 230.179 C 253.596 229.747,253.859 229.430,254.088 229.475 C 254.317 229.519,254.455 229.106,254.395 228.556 C 254.331 227.977,254.522 227.466,254.849 227.341 C 255.159 227.222,255.412 226.808,255.412 226.421 C 255.412 226.034,255.678 225.497,256.004 225.227 C 256.329 224.957,256.489 224.564,256.359 224.354 C 256.107 223.946,257.507 222.443,258.138 222.443 C 258.948 222.443,258.584 218.496,257.698 217.671 C 257.232 217.237,256.745 216.882,256.615 216.882 C 256.484 216.882,256.059 216.342,255.670 215.683 C 255.280 215.024,254.795 214.588,254.591 214.714 C 254.387 214.840,254.220 214.683,254.220 214.366 C 254.220 214.049,253.941 213.682,253.599 213.551 C 253.258 213.420,253.088 213.134,253.223 212.917 C 253.364 212.689,253.207 212.622,252.851 212.758 C 252.481 212.900,252.234 212.779,252.233 212.456 C 252.233 212.159,251.709 211.566,251.070 211.138 C 250.431 210.710,249.972 210.255,250.050 210.128 C 250.129 210.001,249.830 209.869,249.387 209.836 C 248.943 209.803,248.359 209.473,248.089 209.103 C 247.818 208.733,247.351 208.513,247.050 208.613 C 246.749 208.714,246.078 208.291,245.560 207.675 C 244.923 206.918,244.241 206.554,243.460 206.554 C 242.824 206.554,242.304 206.375,242.304 206.157 C 242.304 205.938,241.857 205.760,241.311 205.760 C 240.734 205.760,240.318 205.531,240.318 205.214 C 240.318 204.835,239.753 204.657,238.464 204.632 C 237.444 204.611,236.426 204.410,236.200 204.184 C 235.670 203.654,218.382 203.624,217.854 204.152 M4.568 210.526 C 4.429 210.963,4.149 211.321,3.945 211.321 C 3.272 211.321,3.484 222.295,4.171 222.982 C 4.499 223.310,4.767 223.769,4.767 224.003 C 4.767 224.268,5.892 224.429,7.746 224.429 C 10.072 224.429,10.725 224.554,10.725 225.000 C 10.725 225.326,11.066 225.546,11.519 225.511 C 11.956 225.479,12.314 225.229,12.314 224.958 C 12.314 224.620,13.225 224.427,15.194 224.347 C 17.836 224.240,18.084 224.157,18.200 223.337 C 18.270 222.845,18.583 222.443,18.896 222.443 C 19.748 222.443,19.722 212.828,18.868 211.973 C 18.540 211.646,18.272 211.007,18.272 210.555 C 18.272 209.292,4.968 209.265,4.568 210.526 M30.184 210.507 C 29.091 211.851,29.714 224.191,30.884 224.357 C 31.375 224.427,31.778 224.747,31.778 225.068 C 31.778 225.560,32.758 225.644,37.934 225.600 C 42.939 225.557,44.091 225.443,44.091 224.988 C 44.091 224.681,44.359 224.429,44.687 224.429 C 45.276 224.429,45.306 223.736,45.283 210.228 C 45.281 209.482,30.800 209.749,30.184 210.507 M356.968 209.997 C 356.389 210.576,356.672 223.975,357.271 224.310 C 357.583 224.485,357.806 224.806,357.767 225.025 C 357.723 225.271,359.929 225.464,363.566 225.532 C 370.986 225.671,371.369 225.485,371.388 221.724 C 371.396 220.158,371.549 219.310,371.797 219.464 C 372.210 219.719,372.230 219.641,372.390 217.180 C 372.458 216.137,372.324 215.690,371.944 215.690 C 371.532 215.690,371.400 214.967,371.400 212.711 L 371.400 209.732 364.316 209.732 C 360.420 209.732,357.114 209.851,356.968 209.997 M383.714 210.313 C 383.714 210.649,383.442 210.924,383.109 210.924 C 382.586 210.924,382.518 211.833,382.612 217.577 L 382.721 224.230 385.899 224.455 C 387.646 224.579,388.898 224.716,388.679 224.759 C 388.007 224.893,389.419 225.608,390.367 225.615 C 390.888 225.618,391.261 225.379,391.261 225.042 C 391.261 224.596,391.951 224.436,394.260 224.346 L 397.259 224.230 397.338 217.014 L 397.418 209.797 390.566 209.750 C 384.646 209.709,383.714 209.785,383.714 210.313 M36.795 315.492 C 36.401 316.958,36.507 393.972,36.902 394.216 C 37.099 394.338,110.788 394.439,200.656 394.441 L 364.052 394.445 364.310 392.703 C 364.452 391.745,364.764 390.593,365.005 390.144 C 365.885 388.500,365.592 322.837,364.700 321.809 C 363.954 320.948,361.867 320.610,361.867 321.351 C 361.867 321.580,360.623 321.748,358.930 321.748 C 356.686 321.748,355.940 321.888,355.765 322.344 C 355.592 322.794,354.862 322.939,352.767 322.939 C 351.244 322.939,349.887 323.118,349.752 323.337 C 349.617 323.555,348.260 323.734,346.737 323.734 C 344.641 323.734,343.911 323.879,343.738 324.330 C 343.566 324.779,342.842 324.926,340.795 324.926 C 339.302 324.926,337.970 325.104,337.835 325.323 C 337.700 325.541,336.183 325.720,334.464 325.720 C 332.149 325.720,331.175 325.882,330.713 326.345 C 330.273 326.784,329.489 326.939,328.074 326.864 C 326.887 326.801,325.947 326.942,325.782 327.209 C 325.617 327.475,324.172 327.692,322.256 327.739 C 319.942 327.794,318.950 327.972,318.802 328.357 C 318.651 328.751,317.732 328.898,315.428 328.898 C 313.686 328.898,312.151 329.076,312.016 329.295 C 311.881 329.513,310.703 329.692,309.398 329.692 C 307.656 329.692,306.965 329.850,306.797 330.288 C 306.618 330.756,305.810 330.884,303.036 330.884 C 300.422 330.884,299.529 331.013,299.603 331.380 C 299.674 331.735,298.994 331.877,297.219 331.877 C 295.496 331.877,294.736 332.029,294.736 332.373 C 294.737 332.726,293.881 332.870,291.781 332.870 C 290.156 332.870,288.715 333.049,288.580 333.267 C 288.445 333.486,286.758 333.664,284.832 333.664 C 282.202 333.664,281.205 333.813,280.834 334.260 C 280.509 334.652,279.622 334.856,278.246 334.856 C 276.689 334.856,276.090 335.020,275.907 335.495 C 275.705 336.023,275.146 336.108,272.690 335.984 C 270.889 335.893,269.664 335.993,269.583 336.239 C 269.506 336.470,267.550 336.701,265.012 336.778 C 262.572 336.852,260.576 337.075,260.576 337.274 C 260.576 337.474,258.788 337.637,256.604 337.637 C 253.638 337.637,252.657 337.762,252.731 338.133 C 252.806 338.509,251.099 338.681,245.680 338.842 C 241.748 338.959,238.709 339.096,238.928 339.146 C 240.924 339.606,236.846 340.019,230.597 339.989 C 225.512 339.966,223.014 340.094,222.917 340.384 C 222.716 340.988,198.542 340.985,197.938 340.381 C 197.655 340.098,194.483 339.925,188.822 339.884 C 182.114 339.836,180.162 339.708,180.238 339.325 C 180.315 338.943,178.770 338.828,173.557 338.828 C 167.921 338.828,166.670 338.723,166.151 338.204 C 165.665 337.717,164.839 337.608,162.409 337.707 C 160.183 337.799,159.237 337.693,159.102 337.339 C 158.967 336.985,157.720 336.842,154.778 336.842 C 151.792 336.842,150.520 336.693,150.198 336.306 C 149.869 335.909,148.980 335.819,146.783 335.960 C 144.466 336.109,143.594 336.008,142.823 335.503 C 142.218 335.106,141.004 334.856,139.685 334.856 C 138.259 334.856,137.369 334.656,137.041 334.260 C 136.689 333.836,135.758 333.664,133.814 333.664 C 132.258 333.664,131.082 333.493,131.082 333.267 C 131.082 333.047,130.034 332.870,128.732 332.870 C 127.267 332.870,126.323 332.692,126.224 332.397 C 126.121 332.088,125.284 331.960,123.807 332.029 C 122.051 332.110,121.493 331.994,121.307 331.509 C 121.127 331.040,120.492 330.884,118.769 330.884 C 117.092 330.884,116.408 330.723,116.242 330.288 C 116.086 329.881,115.449 329.692,114.237 329.692 C 113.259 329.692,112.350 329.513,112.214 329.295 C 112.079 329.076,110.723 328.898,109.199 328.898 C 107.104 328.898,106.374 328.753,106.201 328.302 C 106.034 327.866,105.346 327.706,103.632 327.706 C 102.336 327.706,101.291 327.529,101.291 327.309 C 101.291 327.085,100.166 326.912,98.709 326.912 C 96.855 326.912,96.155 326.772,96.226 326.415 C 96.293 326.080,95.649 325.880,94.240 325.799 C 93.093 325.732,92.155 325.509,92.155 325.302 C 92.155 325.095,91.077 324.926,89.759 324.926 C 87.996 324.926,87.303 324.768,87.135 324.330 C 86.967 323.893,86.280 323.734,84.565 323.734 C 82.957 323.734,82.225 323.578,82.225 323.237 C 82.226 322.880,81.556 322.779,79.842 322.875 C 77.872 322.987,77.458 322.900,77.458 322.379 C 77.458 321.888,77.025 321.748,75.505 321.748 C 74.328 321.748,73.488 321.556,73.391 321.266 C 73.282 320.939,72.376 320.816,70.563 320.883 C 68.593 320.956,67.737 320.822,67.286 320.372 C 66.948 320.033,65.992 319.762,65.139 319.762 C 64.294 319.762,63.492 319.583,63.357 319.364 C 63.221 319.146,61.781 318.967,60.155 318.967 C 57.793 318.967,57.200 318.848,57.200 318.371 C 57.200 317.908,56.669 317.776,54.804 317.776 C 53.041 317.776,52.348 317.618,52.179 317.180 C 52.019 316.762,51.368 316.584,50.007 316.584 C 48.938 316.584,48.064 316.405,48.064 316.187 C 48.064 315.967,47.018 315.789,45.723 315.789 C 44.008 315.789,43.321 315.630,43.153 315.194 C 42.732 314.097,37.098 314.361,36.795 315.492 " stroke="none" fill="#fcbcb4" fill-rule="evenodd"></path><path id="path1" d="" stroke="none" fill="#100bcb4" fill-rule="evenodd"></path><path id="path2" d="" stroke="none" fill="#100bcb4" fill-rule="evenodd"></path><path id="path3" d="" stroke="none" fill="#100bcb4" fill-rule="evenodd"></path><path id="path4" d="" stroke="none" fill="#100bcb4" fill-rule="evenodd"></path></g></svg>