<svg id="svg" version="1.1" xmlns="http://www.w3.org/2000/svg" xmlns:xlink="http://www.w3.org/1999/xlink" width="400" height="397" viewBox="0, 0, 400,397"><g id="svgg"><path id="path0" d="M109.633 1.192 C 109.633 1.410,108.939 1.589,108.092 1.589 C 107.180 1.589,106.342 1.842,106.036 2.210 C 105.721 2.591,105.180 2.746,104.643 2.611 C 104.117 2.479,103.568 2.628,103.274 2.983 C 103.004 3.309,102.377 3.575,101.881 3.575 C 101.385 3.575,100.876 3.843,100.750 4.171 C 100.624 4.499,100.069 4.767,99.516 4.767 C 98.963 4.767,98.510 4.945,98.510 5.164 C 98.510 5.382,98.064 5.561,97.517 5.561 C 96.883 5.561,96.524 5.785,96.524 6.180 C 96.524 6.521,96.346 6.689,96.127 6.554 C 95.909 6.419,95.730 6.587,95.730 6.928 C 95.730 7.484,95.482 7.621,94.673 7.512 C 94.529 7.492,94.252 7.760,94.058 8.107 C 93.863 8.455,93.558 8.739,93.379 8.739 C 93.200 8.739,92.250 9.543,91.266 10.526 C 90.283 11.509,89.556 12.314,89.650 12.314 C 89.744 12.314,89.234 12.850,88.516 13.505 C 87.798 14.161,87.072 14.697,86.903 14.697 C 86.733 14.697,86.594 15.144,86.594 15.690 C 86.594 16.325,86.370 16.683,85.975 16.683 C 85.634 16.683,85.453 16.842,85.573 17.035 C 85.693 17.229,85.525 17.609,85.199 17.879 C 84.874 18.148,84.608 18.628,84.608 18.945 C 84.608 19.618,83.661 20.655,83.047 20.655 C 82.813 20.655,82.622 21.294,82.622 22.074 C 82.622 22.854,82.343 23.771,82.003 24.111 C 81.663 24.452,81.478 24.975,81.593 25.275 C 81.712 25.584,81.550 25.819,81.219 25.819 C 80.833 25.819,80.636 26.231,80.636 27.039 C 80.636 27.710,80.355 28.540,80.011 28.884 C 79.525 29.370,79.415 30.196,79.515 32.630 C 79.609 34.931,79.512 35.751,79.146 35.751 C 78.548 35.750,78.461 38.367,79.047 38.729 C 79.275 38.870,79.444 40.959,79.444 43.642 C 79.444 47.130,79.591 48.504,80.027 49.080 C 80.348 49.504,80.616 50.432,80.623 51.142 C 80.630 51.852,80.814 52.433,81.033 52.433 C 81.251 52.433,81.430 52.775,81.430 53.193 C 81.430 54.155,83.800 58.880,84.498 59.309 C 84.786 59.487,84.930 59.781,84.817 59.963 C 84.704 60.145,84.900 60.404,85.251 60.539 C 85.655 60.694,85.814 61.074,85.683 61.574 C 85.569 62.008,85.620 62.363,85.796 62.363 C 86.349 62.363,88.580 64.503,88.580 65.034 C 88.580 65.313,88.771 65.541,89.006 65.541 C 89.555 65.541,90.566 66.552,90.566 67.102 C 90.566 67.336,90.834 67.527,91.162 67.527 C 91.490 67.527,91.713 67.743,91.658 68.006 C 91.604 68.269,91.738 68.495,91.956 68.509 C 92.647 68.552,94.111 70.036,93.861 70.440 C 93.728 70.655,93.825 70.702,94.080 70.544 C 94.332 70.389,94.538 70.447,94.538 70.674 C 94.538 70.901,94.985 71.199,95.531 71.336 C 96.077 71.473,96.524 71.829,96.524 72.126 C 96.524 72.423,96.769 72.572,97.069 72.457 C 97.368 72.342,97.720 72.527,97.851 72.867 C 97.981 73.207,98.441 73.486,98.872 73.486 C 99.303 73.486,99.766 73.664,99.901 73.883 C 100.036 74.101,100.474 74.280,100.875 74.280 C 101.275 74.280,101.706 74.548,101.832 74.876 C 101.975 75.250,102.583 75.472,103.463 75.472 C 104.235 75.472,104.866 75.650,104.866 75.869 C 104.866 76.087,105.676 76.266,106.666 76.266 C 107.899 76.266,108.538 76.454,108.694 76.862 C 109.037 77.755,126.911 77.755,127.254 76.862 C 127.397 76.488,128.005 76.266,128.885 76.266 C 129.657 76.266,130.288 76.087,130.288 75.869 C 130.288 75.650,131.003 75.472,131.877 75.472 C 133.024 75.472,133.466 75.306,133.466 74.876 C 133.466 74.505,133.841 74.280,134.459 74.280 C 135.005 74.280,135.452 74.101,135.452 73.883 C 135.452 73.664,135.815 73.486,136.259 73.486 C 136.703 73.486,137.169 73.217,137.294 72.890 C 137.420 72.562,137.848 72.294,138.246 72.294 C 138.644 72.294,139.321 71.847,139.750 71.301 C 140.180 70.755,140.729 70.308,140.971 70.308 C 141.212 70.308,141.410 70.129,141.410 69.911 C 141.410 69.692,141.749 69.513,142.162 69.513 C 142.576 69.513,143.017 69.245,143.143 68.918 C 143.268 68.590,143.568 68.322,143.809 68.322 C 144.263 68.322,145.382 67.356,145.382 66.964 C 145.382 66.483,146.735 65.197,147.042 65.386 C 147.222 65.497,147.368 65.309,147.368 64.969 C 147.368 64.628,147.657 64.350,148.011 64.350 C 148.481 64.350,148.602 64.085,148.463 63.357 C 148.358 62.810,148.452 62.363,148.671 62.363 C 149.235 62.363,150.121 61.102,150.136 60.278 C 150.143 59.896,150.417 59.583,150.745 59.583 C 151.116 59.583,151.341 59.208,151.341 58.590 C 151.341 57.972,151.566 57.597,151.936 57.597 C 152.334 57.597,152.532 57.200,152.532 56.405 C 152.532 55.750,152.711 55.214,152.929 55.214 C 153.148 55.214,153.327 54.756,153.327 54.197 C 153.327 53.634,153.500 53.288,153.716 53.421 C 153.934 53.556,154.219 52.952,154.363 52.054 C 154.504 51.170,154.776 50.447,154.966 50.447 C 155.157 50.447,155.313 49.630,155.313 48.631 C 155.313 47.547,155.553 46.575,155.909 46.219 C 156.385 45.743,156.504 44.435,156.504 39.694 C 156.504 34.687,156.412 33.764,155.909 33.764 C 155.440 33.764,155.313 33.212,155.313 31.182 C 155.313 29.725,155.140 28.600,154.916 28.600 C 154.697 28.600,154.518 27.898,154.518 27.039 C 154.518 26.181,154.250 25.211,153.923 24.883 C 153.595 24.555,153.327 24.017,153.327 23.686 C 153.327 23.356,153.148 22.975,152.929 22.840 C 152.711 22.705,152.532 22.158,152.532 21.625 C 152.532 21.061,152.324 20.697,152.036 20.755 C 151.756 20.811,151.484 20.376,151.414 19.762 C 151.337 19.097,151.048 18.669,150.676 18.669 C 150.276 18.669,150.149 18.447,150.310 18.029 C 150.485 17.571,150.384 17.455,149.955 17.620 C 149.542 17.778,149.355 17.600,149.355 17.049 C 149.355 16.608,148.908 15.834,148.361 15.328 C 147.815 14.822,147.368 14.175,147.368 13.890 C 147.368 13.606,147.267 13.474,147.143 13.598 C 146.863 13.878,144.588 11.695,144.588 11.146 C 144.588 10.926,144.096 10.490,143.496 10.177 C 142.308 9.559,140.616 7.779,140.616 7.147 C 140.616 6.930,140.163 6.753,139.610 6.753 C 139.057 6.753,138.502 6.485,138.376 6.157 C 138.250 5.829,137.720 5.561,137.197 5.561 C 136.674 5.561,136.246 5.382,136.246 5.164 C 136.246 4.945,135.819 4.767,135.296 4.767 C 134.773 4.767,134.242 4.499,134.117 4.171 C 133.991 3.843,133.525 3.575,133.081 3.575 C 132.637 3.575,132.274 3.396,132.274 3.178 C 132.274 2.959,131.732 2.781,131.070 2.781 C 130.366 2.781,129.771 2.533,129.637 2.185 C 129.467 1.741,128.760 1.589,126.869 1.589 C 125.441 1.589,124.330 1.415,124.330 1.192 C 124.330 0.941,121.615 0.794,116.981 0.794 C 112.347 0.794,109.633 0.941,109.633 1.192 M337.835 1.192 C 337.700 1.410,336.907 1.589,336.073 1.589 C 335.173 1.589,334.344 1.845,334.033 2.219 C 333.700 2.621,333.094 2.787,332.359 2.679 C 331.633 2.573,331.132 2.707,331.003 3.043 C 330.891 3.335,330.282 3.575,329.650 3.575 C 328.893 3.575,328.500 3.778,328.500 4.171 C 328.500 4.499,328.154 4.767,327.730 4.767 C 327.305 4.767,326.848 4.945,326.713 5.164 C 326.578 5.382,326.129 5.561,325.716 5.561 C 325.303 5.561,324.822 5.812,324.647 6.119 C 324.473 6.426,323.972 6.739,323.535 6.814 C 322.748 6.950,321.748 7.678,321.748 8.115 C 321.748 8.239,321.390 8.699,320.953 9.136 C 320.516 9.573,320.159 9.830,320.159 9.707 C 320.159 9.585,319.623 10.071,318.967 10.789 C 318.312 11.507,317.776 12.233,317.776 12.402 C 317.776 12.572,317.497 12.711,317.156 12.711 C 316.816 12.711,316.655 12.902,316.799 13.135 C 316.943 13.368,316.707 13.651,316.275 13.764 C 315.843 13.878,315.292 14.402,315.052 14.929 C 314.812 15.457,314.332 15.889,313.987 15.889 C 313.642 15.889,313.458 16.049,313.579 16.244 C 313.700 16.440,313.532 16.702,313.205 16.828 C 312.879 16.953,312.612 17.398,312.612 17.817 C 312.612 18.235,312.165 18.871,311.619 19.229 C 310.992 19.640,310.626 20.250,310.626 20.887 C 310.626 21.457,310.453 21.787,310.228 21.648 C 309.989 21.501,309.831 22.027,309.831 22.973 C 309.831 24.002,309.626 24.621,309.235 24.771 C 308.908 24.897,308.640 25.344,308.640 25.764 C 308.640 26.185,308.371 26.632,308.044 26.757 C 307.635 26.914,307.448 27.552,307.448 28.786 C 307.448 29.786,307.261 30.586,307.028 30.586 C 306.044 30.586,307.054 50.420,308.081 51.272 C 308.388 51.527,308.640 52.340,308.640 53.077 C 308.640 54.005,308.823 54.419,309.235 54.419 C 309.563 54.419,309.831 54.766,309.831 55.190 C 309.831 55.614,310.010 56.072,310.228 56.207 C 310.447 56.342,310.626 56.805,310.626 57.236 C 310.626 57.666,310.894 58.122,311.222 58.248 C 311.599 58.392,311.754 58.825,311.645 59.427 C 311.530 60.061,311.659 60.377,312.032 60.377 C 312.340 60.377,312.873 60.922,313.217 61.588 C 313.967 63.038,314.860 64.170,316.147 65.300 C 317.815 66.766,319.566 68.807,319.464 69.166 C 319.409 69.357,319.502 69.469,319.670 69.414 C 319.838 69.359,320.417 69.725,320.956 70.226 C 321.927 71.130,323.961 72.294,324.569 72.294 C 324.743 72.294,325.367 72.741,325.956 73.287 C 326.656 73.936,327.489 74.280,328.360 74.280 C 329.279 74.280,329.692 74.465,329.692 74.876 C 329.692 75.276,330.092 75.472,330.907 75.472 C 331.616 75.472,332.020 75.637,331.877 75.869 C 331.597 76.322,332.071 76.412,334.107 76.293 C 335.103 76.234,335.617 76.400,335.783 76.833 C 335.975 77.334,336.698 77.458,339.435 77.458 C 341.609 77.458,342.758 77.602,342.602 77.855 C 342.447 78.105,343.506 78.276,345.458 78.315 C 349.374 78.395,350.117 78.322,350.281 77.843 C 350.354 77.631,351.293 77.458,352.367 77.458 C 353.664 77.458,354.320 77.291,354.320 76.961 C 354.320 76.651,355.027 76.420,356.207 76.345 C 357.244 76.279,358.153 76.056,358.226 75.848 C 358.299 75.641,358.790 75.472,359.318 75.472 C 359.901 75.472,360.278 75.241,360.278 74.884 C 360.278 74.465,360.619 74.335,361.465 74.434 C 362.139 74.512,362.846 74.337,363.102 74.029 C 363.350 73.730,363.978 73.486,364.497 73.486 C 365.072 73.486,365.442 73.252,365.442 72.890 C 365.442 72.562,365.665 72.339,365.938 72.393 C 366.212 72.448,366.390 72.269,366.336 71.996 C 366.281 71.723,366.524 71.500,366.875 71.500 C 367.523 71.500,368.648 70.608,370.509 68.620 C 371.071 68.019,371.770 67.527,372.062 67.527 C 372.353 67.527,372.547 67.386,372.493 67.214 C 372.438 67.042,372.840 66.439,373.386 65.875 C 376.357 62.803,377.358 61.577,377.358 61.009 C 377.358 60.661,377.534 60.377,377.748 60.377 C 377.962 60.377,378.250 59.930,378.387 59.384 C 378.524 58.838,378.796 58.391,378.990 58.391 C 379.185 58.391,379.345 57.944,379.345 57.398 C 379.345 56.852,379.575 56.405,379.856 56.405 C 380.137 56.405,380.397 56.006,380.434 55.517 C 380.471 55.029,380.688 54.567,380.916 54.491 C 381.144 54.415,381.331 53.821,381.331 53.171 C 381.331 52.521,381.491 52.088,381.686 52.209 C 382.161 52.502,382.522 51.480,382.522 49.842 C 382.522 49.108,382.701 48.397,382.920 48.262 C 383.166 48.110,383.317 44.551,383.317 38.904 C 383.317 33.094,383.173 29.791,382.920 29.791 C 382.701 29.791,382.522 29.071,382.522 28.190 C 382.522 27.133,382.320 26.511,381.927 26.360 C 381.591 26.231,381.331 25.640,381.331 25.006 C 381.331 24.387,381.152 23.770,380.933 23.635 C 380.715 23.500,380.536 23.042,380.536 22.618 C 380.536 22.194,380.268 21.847,379.940 21.847 C 379.613 21.847,379.345 21.606,379.345 21.312 C 379.345 20.371,378.037 18.115,376.685 16.722 C 375.963 15.978,375.371 15.084,375.368 14.735 C 375.366 14.387,374.653 13.476,373.784 12.711 C 372.914 11.946,372.201 11.087,372.199 10.801 C 372.196 10.515,372.036 10.379,371.842 10.498 C 371.649 10.618,371.269 10.450,370.999 10.125 C 370.729 9.799,370.262 9.533,369.961 9.533 C 369.660 9.533,369.414 9.355,369.414 9.136 C 369.414 8.918,369.116 8.739,368.752 8.739 C 368.388 8.739,368.203 8.626,368.341 8.487 C 368.639 8.190,366.909 6.753,366.254 6.753 C 366.005 6.753,365.407 6.297,364.926 5.740 C 364.445 5.184,363.649 4.699,363.158 4.663 C 362.666 4.627,362.264 4.367,362.264 4.086 C 362.264 3.770,361.751 3.575,360.916 3.575 C 360.117 3.575,359.480 3.345,359.352 3.010 C 359.228 2.686,358.816 2.528,358.388 2.640 C 357.977 2.748,357.408 2.555,357.123 2.212 C 356.770 1.787,355.926 1.589,354.470 1.589 C 353.295 1.589,352.334 1.410,352.334 1.192 C 352.334 0.942,349.693 0.794,345.207 0.794 C 340.885 0.794,337.984 0.951,337.835 1.192 M331.312 27.378 C 332.920 28.986,332.963 31.348,331.397 32.075 C 328.898 33.236,327.251 32.295,327.211 29.684 C 327.163 26.485,329.247 25.313,331.312 27.378 M110.651 45.639 C 110.530 45.834,110.708 46.100,111.046 46.230 C 112.005 46.598,111.694 50.692,110.720 50.528 C 110.334 50.463,109.913 50.686,109.783 51.024 C 109.483 51.808,108.595 51.819,108.297 51.043 C 108.172 50.715,107.706 50.447,107.262 50.447 C 106.715 50.447,106.455 50.186,106.455 49.640 C 106.455 49.196,106.187 48.730,105.859 48.604 C 105.531 48.479,105.263 48.097,105.263 47.756 C 105.263 47.416,105.367 47.241,105.495 47.368 C 105.777 47.651,107.249 46.235,107.249 45.680 C 107.249 45.462,108.064 45.283,109.060 45.283 C 110.056 45.283,110.772 45.443,110.651 45.639 M127.477 46.505 C 129.358 48.386,128.041 51.639,125.398 51.639 C 124.408 51.639,122.944 50.376,123.402 49.918 C 123.548 49.772,123.370 49.652,123.006 49.652 C 121.145 49.652,123.473 45.435,125.391 45.330 C 125.873 45.304,126.796 45.824,127.477 46.505 M92.658 84.111 C 92.533 84.436,91.598 84.608,89.956 84.608 C 88.254 84.608,87.253 84.800,86.849 85.204 C 86.497 85.556,85.526 85.799,84.471 85.799 C 83.490 85.799,82.628 85.969,82.555 86.177 C 82.483 86.384,81.644 86.599,80.692 86.654 C 79.739 86.709,78.876 86.974,78.773 87.242 C 78.670 87.511,78.028 87.715,77.347 87.695 C 76.666 87.676,76.040 87.867,75.956 88.120 C 75.872 88.373,75.482 88.580,75.090 88.580 C 74.698 88.580,74.155 88.848,73.883 89.176 C 73.611 89.503,73.040 89.772,72.614 89.772 C 72.188 89.772,71.583 90.029,71.268 90.344 C 70.953 90.658,70.354 90.850,69.937 90.770 C 69.520 90.689,69.092 90.851,68.985 91.128 C 68.879 91.406,68.195 91.934,67.464 92.302 C 66.734 92.670,65.869 93.125,65.541 93.314 C 65.214 93.502,64.230 93.989,63.357 94.395 C 62.483 94.802,60.763 96.162,59.534 97.418 C 58.306 98.674,57.099 99.702,56.853 99.702 C 56.607 99.702,56.405 99.889,56.405 100.117 C 56.405 100.656,54.346 102.712,53.938 102.582 C 53.765 102.527,53.625 102.682,53.625 102.926 C 53.625 103.170,52.910 104.064,52.036 104.912 C 51.162 105.760,50.447 106.722,50.447 107.050 C 50.447 107.378,50.268 107.646,50.050 107.646 C 49.831 107.646,49.652 108.062,49.652 108.570 C 49.652 109.078,49.206 109.914,48.659 110.427 C 48.113 110.940,47.666 111.575,47.666 111.838 C 47.666 112.101,47.398 112.538,47.071 112.810 C 46.743 113.082,46.475 113.640,46.475 114.051 C 46.475 114.461,46.325 114.796,46.141 114.796 C 45.958 114.796,45.466 115.509,45.049 116.381 C 44.632 117.252,44.156 117.967,43.992 117.970 C 43.828 117.972,43.694 118.310,43.694 118.720 C 43.694 119.130,43.426 119.688,43.098 119.960 C 42.771 120.232,42.502 120.701,42.502 121.002 C 42.502 121.303,42.324 121.549,42.105 121.549 C 41.887 121.549,41.708 121.817,41.708 122.145 C 41.708 122.473,41.478 122.741,41.197 122.741 C 40.916 122.741,40.655 123.140,40.619 123.627 C 40.582 124.114,40.305 124.695,40.003 124.918 C 39.701 125.141,39.528 125.545,39.620 125.816 C 39.793 126.330,38.837 127.507,38.246 127.507 C 38.058 127.507,37.876 127.894,37.840 128.365 C 37.805 128.837,37.556 129.359,37.287 129.525 C 37.019 129.691,36.751 130.149,36.694 130.543 C 36.636 130.937,36.310 131.463,35.971 131.711 C 35.631 131.960,35.353 132.377,35.353 132.639 C 35.353 132.901,35.174 133.005,34.955 132.870 C 34.730 132.730,34.558 133.069,34.558 133.653 C 34.558 134.219,34.310 134.778,34.006 134.894 C 33.703 135.011,33.536 135.420,33.637 135.803 C 33.737 136.187,33.538 136.733,33.195 137.018 C 32.853 137.302,32.572 137.750,32.572 138.013 C 32.572 138.276,32.125 138.911,31.579 139.424 C 31.033 139.937,30.586 140.664,30.586 141.040 C 30.586 141.415,30.321 141.824,29.997 141.948 C 29.673 142.073,29.502 142.421,29.618 142.722 C 29.733 143.023,29.551 143.498,29.214 143.778 C 28.876 144.059,28.600 144.624,28.600 145.034 C 28.600 145.444,28.421 145.780,28.203 145.780 C 27.984 145.780,27.805 146.048,27.805 146.375 C 27.805 146.703,27.622 146.971,27.398 146.971 C 27.174 146.971,26.821 147.418,26.614 147.964 C 26.406 148.510,26.085 148.957,25.901 148.957 C 25.717 148.957,25.324 149.843,25.030 150.925 C 24.735 152.008,24.358 152.810,24.192 152.707 C 24.026 152.605,23.765 152.926,23.611 153.420 C 23.457 153.915,22.953 154.853,22.490 155.506 C 21.328 157.144,20.655 158.477,20.655 159.144 C 20.655 159.454,20.407 159.802,20.103 159.919 C 19.784 160.041,19.636 160.455,19.753 160.900 C 19.863 161.322,19.772 161.668,19.549 161.668 C 19.326 161.668,18.957 162.205,18.729 162.860 C 18.500 163.515,18.125 164.052,17.896 164.052 C 17.666 164.052,17.478 164.577,17.478 165.220 C 17.478 165.862,17.299 166.499,17.080 166.634 C 16.862 166.769,16.683 167.418,16.683 168.076 C 16.683 168.734,16.415 169.540,16.087 169.868 C 15.093 170.862,15.322 177.955,16.328 177.333 C 16.523 177.212,16.683 177.900,16.683 178.863 C 16.683 180.377,17.528 182.899,18.241 183.515 C 18.367 183.625,18.809 184.379,19.222 185.192 C 19.636 186.005,20.127 186.576,20.315 186.460 C 20.502 186.344,20.655 186.451,20.655 186.698 C 20.655 187.217,21.636 188.281,22.117 188.283 C 22.296 188.284,22.793 188.807,23.222 189.447 C 23.650 190.086,24.097 190.601,24.215 190.590 C 25.151 190.507,25.824 190.733,25.621 191.063 C 25.475 191.298,25.937 191.460,26.756 191.460 C 27.515 191.460,28.209 191.677,28.297 191.943 C 28.392 192.227,29.038 192.387,29.864 192.331 C 30.734 192.273,31.459 192.467,31.770 192.841 C 32.568 193.803,89.957 193.753,90.496 192.791 C 90.779 192.285,91.234 192.186,92.502 192.356 C 93.749 192.523,94.141 192.442,94.141 192.018 C 94.141 191.693,94.541 191.460,95.101 191.460 C 95.629 191.460,96.126 191.265,96.206 191.026 C 96.285 190.787,96.836 190.564,97.430 190.529 C 98.024 190.495,98.510 190.243,98.510 189.970 C 98.510 189.697,98.689 189.474,98.908 189.474 C 99.126 189.474,99.305 189.027,99.305 188.481 C 99.305 187.863,99.530 187.488,99.901 187.488 C 100.228 187.488,100.497 187.219,100.497 186.892 C 100.497 186.564,100.748 186.296,101.055 186.296 C 101.403 186.296,101.541 186.019,101.422 185.561 C 101.316 185.156,101.501 184.554,101.833 184.221 C 102.183 183.871,102.489 182.718,102.559 181.481 C 102.626 180.306,102.860 179.374,103.078 179.411 C 103.635 179.504,103.503 177.037,102.942 176.849 C 102.663 176.757,102.483 175.768,102.483 174.334 C 102.483 172.600,102.324 171.910,101.887 171.742 C 101.559 171.617,101.291 171.116,101.291 170.630 C 101.291 170.095,100.900 169.538,100.298 169.215 C 99.752 168.923,99.305 168.476,99.305 168.222 C 99.305 167.969,98.858 167.522,98.312 167.229 C 97.766 166.937,97.319 166.460,97.319 166.169 C 97.319 165.868,96.885 165.641,96.313 165.641 C 95.760 165.641,95.209 165.384,95.089 165.070 C 94.968 164.756,94.621 164.594,94.317 164.711 C 94.013 164.828,93.479 164.638,93.130 164.289 C 92.567 163.726,90.421 163.654,74.119 163.654 C 54.210 163.654,54.686 163.701,56.414 161.933 C 57.065 161.267,57.597 160.516,57.597 160.264 C 57.597 159.504,58.818 157.299,59.238 157.299 C 59.454 157.299,59.531 157.139,59.410 156.943 C 59.289 156.748,59.457 156.485,59.784 156.360 C 60.110 156.235,60.377 155.788,60.377 155.368 C 60.377 154.947,60.642 154.502,60.966 154.377 C 61.325 154.240,61.456 153.892,61.302 153.491 C 61.147 153.086,61.303 152.689,61.706 152.463 C 62.068 152.261,62.363 151.778,62.363 151.390 C 62.363 151.002,62.810 150.265,63.357 149.752 C 63.903 149.239,64.350 148.492,64.350 148.094 C 64.350 147.695,64.516 147.368,64.720 147.368 C 64.924 147.368,65.214 146.979,65.365 146.504 C 65.516 146.028,66.064 145.181,66.583 144.621 L 67.527 143.603 67.527 151.444 C 67.527 158.281,67.607 159.285,68.147 159.285 C 68.487 159.285,68.667 159.445,68.546 159.641 C 68.101 160.361,69.816 160.477,80.895 160.477 C 90.425 160.477,92.306 160.571,92.807 161.072 C 93.135 161.400,93.927 161.668,94.567 161.668 C 95.206 161.668,95.730 161.847,95.730 162.066 C 95.730 162.284,96.085 162.463,96.520 162.463 C 96.954 162.463,97.982 163.177,98.804 164.051 C 99.625 164.925,100.611 165.640,100.993 165.640 C 101.406 165.640,101.688 165.941,101.688 166.379 C 101.688 166.786,102.135 167.454,102.681 167.864 C 103.228 168.275,103.674 169.013,103.674 169.508 C 103.674 170.003,103.853 170.407,104.071 170.407 C 104.290 170.407,104.469 170.922,104.469 171.550 C 104.469 172.179,104.737 172.916,105.065 173.188 C 105.536 173.579,105.660 174.714,105.660 178.611 C 105.660 182.626,105.550 183.583,105.065 183.769 C 104.697 183.910,104.469 184.514,104.469 185.345 C 104.469 186.087,104.290 186.693,104.071 186.693 C 103.853 186.693,103.674 186.942,103.674 187.246 C 103.674 187.551,103.406 187.903,103.078 188.028 C 102.751 188.154,102.483 188.631,102.483 189.087 C 102.483 189.544,102.304 189.807,102.085 189.672 C 101.867 189.537,101.688 189.686,101.688 190.004 C 101.688 190.321,101.458 190.669,101.177 190.777 C 100.895 190.885,100.687 191.485,100.715 192.110 L 100.764 193.247 117.512 193.351 L 134.260 193.455 134.260 192.060 C 134.260 191.293,134.081 190.665,133.863 190.665 C 133.644 190.665,133.466 190.405,133.466 190.088 C 133.466 189.770,133.019 189.063,132.473 188.517 C 131.927 187.971,131.480 187.177,131.480 186.754 C 131.480 186.330,131.189 185.872,130.833 185.736 C 130.341 185.547,130.240 185.157,130.410 184.107 C 130.560 183.184,130.445 182.538,130.064 182.156 C 129.388 181.480,129.236 173.791,129.891 173.386 C 130.109 173.251,130.288 172.526,130.288 171.774 C 130.288 170.824,130.470 170.407,130.884 170.407 C 131.255 170.407,131.480 170.032,131.480 169.414 C 131.480 168.796,131.705 168.421,132.075 168.421 C 132.403 168.421,132.629 168.287,132.577 168.123 C 132.368 167.465,136.404 163.654,137.310 163.654 C 137.865 163.654,138.232 163.417,138.232 163.059 C 138.232 162.731,138.500 162.463,138.828 162.463 C 139.156 162.463,139.424 162.238,139.424 161.963 C 139.424 161.615,139.965 161.507,141.209 161.606 C 142.569 161.714,143.051 161.597,143.237 161.112 C 143.453 160.550,144.801 160.477,154.926 160.477 C 161.220 160.477,166.608 160.385,166.899 160.274 C 167.322 160.112,167.405 158.318,167.314 151.293 C 167.199 142.512,167.483 141.007,168.594 144.507 C 168.747 144.988,169.039 145.382,169.242 145.382 C 169.446 145.382,169.613 145.829,169.613 146.375 C 169.613 147.010,169.836 147.368,170.232 147.368 C 170.573 147.368,170.752 147.528,170.631 147.724 C 170.511 147.920,170.679 148.182,171.005 148.307 C 171.332 148.433,171.599 148.787,171.599 149.095 C 171.599 149.403,171.867 149.877,172.195 150.149 C 172.522 150.421,172.790 150.948,172.790 151.320 C 172.790 151.692,173.237 152.416,173.784 152.929 C 174.330 153.443,174.777 154.189,174.777 154.588 C 174.777 154.986,174.955 155.313,175.174 155.313 C 175.392 155.313,175.571 155.676,175.571 156.120 C 175.571 156.564,175.839 157.030,176.167 157.155 C 176.495 157.281,176.763 157.746,176.763 158.190 C 176.763 158.633,177.210 159.409,177.756 159.916 C 178.302 160.422,178.749 161.102,178.749 161.427 C 178.749 161.753,178.928 162.129,179.146 162.264 C 181.216 163.544,179.758 163.654,160.874 163.654 C 144.544 163.654,142.205 163.729,142.205 164.250 C 142.205 164.644,141.811 164.846,141.046 164.846 C 140.409 164.846,139.828 165.023,139.755 165.240 C 139.682 165.456,139.144 165.673,138.559 165.721 C 137.974 165.770,137.578 165.943,137.680 166.108 C 137.781 166.272,137.500 166.770,137.055 167.215 C 136.610 167.660,136.246 167.910,136.246 167.772 C 136.246 167.633,135.889 167.974,135.452 168.529 C 135.015 169.085,134.657 169.824,134.657 170.172 C 134.657 170.520,134.479 170.804,134.260 170.804 C 134.042 170.804,133.863 171.251,133.863 171.797 C 133.863 172.415,133.638 172.790,133.267 172.790 C 132.380 172.790,132.385 183.578,133.272 184.314 C 133.603 184.589,133.850 185.013,133.821 185.257 C 133.706 186.230,133.883 186.728,134.260 186.495 C 134.479 186.360,134.657 186.528,134.657 186.868 C 134.657 187.209,134.926 187.488,135.253 187.488 C 135.581 187.488,135.828 187.622,135.802 187.786 C 135.637 188.831,135.941 189.474,136.601 189.474 C 137.015 189.474,137.460 189.753,137.591 190.095 C 137.722 190.436,138.010 190.604,138.230 190.468 C 138.450 190.332,138.630 190.500,138.630 190.841 C 138.630 191.231,138.985 191.460,139.590 191.460 C 140.118 191.460,140.621 191.674,140.708 191.935 C 140.795 192.197,141.480 192.420,142.231 192.432 C 143.102 192.445,143.559 192.632,143.496 192.949 C 143.324 193.805,202.819 193.662,203.298 192.805 C 203.569 192.322,204.109 192.201,205.503 192.312 C 206.798 192.415,207.349 192.310,207.349 191.959 C 207.349 191.685,207.795 191.460,208.342 191.460 C 208.888 191.460,209.335 191.281,209.335 191.063 C 209.335 190.844,209.598 190.665,209.921 190.665 C 211.094 190.665,217.411 183.928,217.411 182.676 C 217.411 181.985,217.622 181.529,217.941 181.529 C 218.292 181.529,218.471 181.005,218.471 179.974 C 218.471 179.118,218.672 178.351,218.917 178.269 C 219.473 178.084,219.405 169.081,218.847 168.884 C 218.640 168.812,218.471 167.984,218.471 167.046 C 218.471 166.015,218.235 165.145,217.875 164.846 C 217.547 164.574,217.279 164.027,217.279 163.629 C 217.279 163.232,217.100 162.796,216.882 162.661 C 216.663 162.526,216.485 162.150,216.485 161.825 C 216.485 161.499,216.028 160.810,215.469 160.292 C 214.911 159.775,214.426 158.979,214.392 158.524 C 214.358 158.069,214.099 157.696,213.818 157.696 C 213.537 157.696,213.307 157.488,213.307 157.234 C 213.307 156.493,211.993 153.724,211.642 153.724 C 211.465 153.724,211.321 153.456,211.321 153.128 C 211.321 152.800,211.142 152.532,210.924 152.532 C 210.705 152.532,210.526 152.259,210.526 151.924 C 210.526 151.589,210.258 151.213,209.930 151.087 C 209.603 150.961,209.335 150.431,209.335 149.908 C 209.335 149.385,209.175 148.957,208.980 148.957 C 208.786 148.957,208.525 148.552,208.400 148.056 C 208.276 147.560,207.831 146.786,207.413 146.337 C 206.994 145.888,206.528 145.131,206.377 144.657 C 206.227 144.182,205.937 143.793,205.733 143.793 C 205.529 143.793,205.362 143.458,205.362 143.048 C 205.362 142.637,205.090 142.076,204.758 141.800 C 204.409 141.510,204.252 140.986,204.387 140.560 C 204.548 140.054,204.425 139.821,203.999 139.821 C 203.600 139.821,203.376 139.465,203.376 138.828 C 203.376 138.210,203.151 137.835,202.781 137.835 C 202.453 137.835,202.185 137.567,202.185 137.239 C 202.185 136.912,202.035 136.643,201.851 136.643 C 201.668 136.643,201.271 135.898,200.971 134.987 C 200.670 134.075,200.037 132.943,199.564 132.470 C 199.092 131.998,198.582 131.224,198.432 130.751 C 198.282 130.278,197.992 129.891,197.789 129.891 C 197.585 129.891,197.418 129.546,197.418 129.125 C 197.418 128.703,197.150 128.091,196.822 127.763 C 196.495 127.435,196.226 127.003,196.226 126.802 C 196.226 126.077,194.876 123.722,194.169 123.215 C 193.771 122.929,193.446 122.370,193.446 121.972 C 193.446 121.575,193.173 121.023,192.840 120.747 C 192.507 120.470,192.332 120.147,192.450 120.029 C 192.569 119.911,192.102 119.233,191.414 118.523 C 190.620 117.703,190.252 116.999,190.407 116.595 C 190.552 116.219,190.411 115.865,190.063 115.732 C 189.739 115.608,189.474 115.187,189.474 114.796 C 189.474 114.406,189.194 113.980,188.853 113.849 C 188.511 113.718,188.343 113.430,188.479 113.210 C 188.615 112.990,188.447 112.810,188.107 112.810 C 187.711 112.810,187.488 112.452,187.488 111.817 C 187.488 111.199,187.262 110.824,186.892 110.824 C 186.564 110.824,186.296 110.510,186.296 110.125 C 186.296 109.740,185.849 108.944,185.303 108.355 C 184.757 107.766,184.310 106.919,184.310 106.472 C 184.310 106.002,184.049 105.660,183.691 105.660 C 183.350 105.660,183.182 105.482,183.317 105.263 C 183.452 105.045,183.373 104.866,183.142 104.866 C 182.493 104.866,181.262 103.484,181.438 102.954 C 181.525 102.695,181.312 102.483,180.967 102.483 C 180.621 102.483,180.338 102.214,180.338 101.887 C 180.338 101.137,178.931 99.702,178.195 99.702 C 177.891 99.702,177.535 99.423,177.404 99.081 C 177.273 98.740,177.001 98.562,176.800 98.686 C 176.599 98.810,176.205 98.394,175.924 97.761 C 175.628 97.091,175.198 96.692,174.897 96.808 C 174.604 96.920,174.379 96.730,174.379 96.368 C 174.379 95.952,174.034 95.730,173.386 95.730 C 172.752 95.730,172.393 95.506,172.393 95.111 C 172.393 94.770,172.235 94.589,172.041 94.709 C 171.847 94.829,171.468 94.661,171.198 94.335 C 170.928 94.010,170.461 93.744,170.160 93.744 C 169.859 93.744,169.613 93.476,169.613 93.148 C 169.613 92.820,169.345 92.552,169.017 92.552 C 168.689 92.552,168.421 92.373,168.421 92.155 C 168.421 91.936,167.974 91.758,167.428 91.758 C 166.855 91.758,166.435 91.529,166.435 91.217 C 166.435 90.854,166.108 90.739,165.442 90.866 C 164.714 91.005,164.449 90.884,164.449 90.414 C 164.449 90.002,164.109 89.772,163.504 89.772 C 162.985 89.772,162.338 89.503,162.066 89.176 C 161.794 88.848,161.057 88.580,160.428 88.580 C 159.799 88.580,159.285 88.401,159.285 88.183 C 159.285 87.964,158.679 87.786,157.937 87.786 C 157.106 87.786,156.502 87.557,156.361 87.190 C 156.217 86.816,155.610 86.594,154.729 86.594 C 153.958 86.594,153.327 86.415,153.327 86.197 C 153.327 85.977,152.284 85.799,150.992 85.799 C 149.401 85.799,148.500 85.610,148.163 85.204 C 147.800 84.766,146.836 84.608,144.539 84.608 C 142.301 84.608,141.410 84.466,141.410 84.111 C 141.410 83.719,136.289 83.615,117.129 83.615 C 98.071 83.615,92.807 83.721,92.658 84.111 M346.586 83.721 C 341.042 83.784,336.903 83.991,336.676 84.218 C 336.461 84.432,335.711 84.608,335.008 84.608 C 333.421 84.608,332.407 84.975,332.697 85.444 C 332.818 85.639,332.191 85.799,331.304 85.799 C 330.418 85.799,329.692 85.978,329.692 86.197 C 329.692 86.415,329.329 86.594,328.885 86.594 C 328.441 86.594,327.975 86.862,327.850 87.190 C 327.724 87.517,327.193 87.786,326.671 87.786 C 326.148 87.786,325.720 87.964,325.720 88.183 C 325.720 88.401,325.375 88.580,324.954 88.580 C 324.533 88.580,323.802 89.071,323.329 89.672 C 322.857 90.273,322.263 90.773,322.010 90.783 C 321.756 90.793,321.594 91.016,321.648 91.279 C 321.705 91.551,321.319 91.758,320.755 91.758 C 320.209 91.758,319.762 91.936,319.762 92.155 C 319.762 92.373,319.494 92.552,319.166 92.552 C 318.838 92.552,318.570 92.888,318.570 93.298 C 318.570 93.708,318.304 94.265,317.979 94.535 C 317.653 94.805,317.485 95.184,317.605 95.378 C 317.725 95.571,317.533 95.730,317.180 95.730 C 316.826 95.730,316.633 95.885,316.750 96.075 C 316.867 96.264,316.431 96.827,315.780 97.326 C 315.130 97.824,314.598 98.563,314.598 98.967 C 314.598 99.371,314.319 99.702,313.979 99.702 C 313.638 99.702,313.457 99.861,313.577 100.054 C 313.697 100.248,313.528 100.627,313.203 100.897 C 312.878 101.167,312.612 101.724,312.612 102.134 C 312.612 102.544,312.382 102.880,312.100 102.880 C 311.819 102.880,311.559 103.279,311.522 103.768 C 311.485 104.256,311.269 104.718,311.040 104.794 C 310.812 104.870,310.626 105.543,310.626 106.289 C 310.626 107.138,310.432 107.646,310.110 107.646 C 309.754 107.646,309.644 108.077,309.755 109.033 C 309.873 110.045,309.745 110.485,309.278 110.664 C 308.823 110.839,308.640 111.420,308.640 112.683 C 308.640 113.729,308.395 114.700,308.044 115.052 C 307.532 115.564,307.448 118.175,307.448 133.632 L 307.448 151.616 308.857 153.067 C 309.632 153.865,310.616 154.518,311.042 154.518 C 311.468 154.518,311.817 154.685,311.817 154.888 C 311.817 155.091,312.219 155.319,312.711 155.394 C 313.203 155.469,313.560 155.749,313.505 156.017 C 313.448 156.298,313.825 156.504,314.396 156.504 C 314.941 156.504,315.824 156.885,316.358 157.350 C 317.343 158.206,318.517 158.947,319.960 159.623 C 320.397 159.828,321.184 160.372,321.709 160.832 C 322.234 161.292,322.905 161.668,323.199 161.668 C 323.493 161.668,323.734 161.847,323.734 162.066 C 323.734 162.284,324.162 162.463,324.684 162.463 C 325.207 162.463,325.733 162.717,325.852 163.028 C 325.971 163.339,326.482 163.651,326.987 163.723 C 327.492 163.794,328.081 164.255,328.297 164.747 C 328.570 165.370,329.028 165.641,329.810 165.641 C 330.456 165.641,330.827 165.809,330.685 166.038 C 330.542 166.269,330.946 166.435,331.655 166.435 C 332.344 166.435,332.827 166.627,332.771 166.879 C 332.716 167.123,333.021 167.381,333.449 167.451 C 333.876 167.522,334.665 167.814,335.202 168.100 C 335.976 168.512,336.212 168.517,336.344 168.123 C 336.436 167.850,336.720 167.627,336.975 167.627 C 337.324 167.627,337.415 160.606,337.344 139.027 C 337.261 113.936,337.322 110.427,337.840 110.427 C 338.208 110.427,338.431 110.047,338.431 109.421 C 338.431 108.868,338.688 108.317,339.002 108.197 C 339.323 108.074,339.470 107.710,339.338 107.366 C 339.203 107.015,339.383 106.597,339.760 106.386 C 340.121 106.184,340.417 105.689,340.417 105.286 C 340.417 104.883,340.697 104.446,341.038 104.315 C 341.380 104.184,341.557 103.912,341.432 103.709 C 341.307 103.507,341.474 103.071,341.804 102.742 C 342.133 102.412,342.403 102.027,342.403 101.887 C 342.403 101.355,343.503 100.563,344.424 100.433 C 344.951 100.359,345.362 100.119,345.336 99.901 C 345.274 99.363,346.597 98.474,347.570 98.401 C 348.006 98.368,348.361 98.121,348.361 97.852 C 348.361 97.525,348.891 97.402,349.950 97.483 C 351.083 97.568,351.539 97.448,351.539 97.064 C 351.539 96.327,360.525 96.272,360.770 97.007 C 360.866 97.295,361.519 97.451,362.384 97.393 C 363.446 97.321,363.783 97.435,363.638 97.815 C 363.507 98.157,363.817 98.367,364.539 98.426 C 365.145 98.476,365.700 98.694,365.773 98.911 C 365.846 99.128,366.337 99.305,366.865 99.305 C 367.393 99.305,367.825 99.459,367.825 99.648 C 367.825 99.837,368.719 100.899,369.811 102.009 C 370.904 103.119,371.797 104.305,371.797 104.645 C 371.797 104.985,371.976 105.263,372.195 105.263 C 372.413 105.263,372.592 105.626,372.592 106.070 C 372.592 106.514,372.860 106.980,373.188 107.106 C 373.515 107.231,373.784 107.762,373.784 108.285 C 373.784 108.808,373.962 109.235,374.181 109.235 C 374.428 109.235,374.578 111.472,374.578 115.151 C 374.578 120.005,374.683 121.107,375.165 121.292 C 376.024 121.622,376.036 173.778,375.177 174.923 C 374.729 175.520,374.614 178.078,374.590 188.031 C 374.571 195.694,374.412 200.448,374.171 200.530 C 373.958 200.602,373.784 201.343,373.784 202.175 C 373.784 203.117,373.570 203.770,373.218 203.905 C 372.908 204.025,372.591 204.535,372.514 205.040 C 372.437 205.545,372.174 205.920,371.928 205.873 C 371.667 205.822,371.567 206.113,371.687 206.573 C 371.831 207.121,371.499 207.703,370.592 208.495 C 369.704 209.270,369.372 209.843,369.546 210.298 C 369.687 210.665,369.645 210.868,369.453 210.749 C 369.261 210.630,368.821 210.965,368.475 211.493 C 368.129 212.020,367.440 212.581,366.944 212.739 C 366.448 212.896,365.442 213.625,364.709 214.358 C 363.937 215.129,362.975 215.690,362.423 215.690 C 361.888 215.690,361.470 215.925,361.470 216.226 C 361.470 216.557,360.980 216.775,360.187 216.797 C 359.481 216.817,358.841 217.023,358.763 217.255 C 358.686 217.487,357.763 217.676,356.712 217.676 C 355.381 217.676,354.733 217.857,354.573 218.272 C 354.448 218.600,353.892 218.868,353.339 218.868 C 352.710 218.868,352.334 218.645,352.334 218.272 C 352.334 217.796,351.740 217.676,349.378 217.676 C 347.752 217.676,346.312 217.498,346.177 217.279 C 346.042 217.061,345.335 216.882,344.607 216.882 C 343.796 216.882,343.194 216.651,343.054 216.286 C 342.920 215.938,342.325 215.690,341.621 215.690 C 340.777 215.690,340.417 215.498,340.417 215.048 C 340.417 214.595,340.176 214.469,339.598 214.620 C 339.098 214.751,338.696 214.615,338.564 214.271 C 338.445 213.962,338.188 213.808,337.992 213.928 C 337.797 214.049,337.637 213.870,337.637 213.529 C 337.637 212.916,337.496 212.844,336.147 212.774 C 335.765 212.755,335.309 212.509,335.134 212.228 C 334.959 211.948,334.457 211.718,334.018 211.718 C 333.579 211.718,333.331 211.539,333.466 211.321 C 333.675 210.983,332.563 210.721,331.579 210.876 C 331.415 210.902,331.281 210.729,331.281 210.491 C 331.281 209.946,329.660 208.571,328.997 208.553 C 328.724 208.546,328.500 208.361,328.500 208.143 C 328.500 207.925,327.964 207.746,327.309 207.746 C 326.653 207.746,326.117 207.579,326.117 207.375 C 326.117 207.172,325.730 206.882,325.257 206.732 C 324.784 206.582,323.972 206.033,323.452 205.513 C 322.932 204.993,322.246 204.568,321.928 204.568 C 321.611 204.568,321.351 204.389,321.351 204.171 C 321.351 203.952,320.985 203.774,320.539 203.774 C 320.092 203.774,319.245 203.327,318.656 202.781 C 318.067 202.234,317.290 201.787,316.928 201.787 C 316.567 201.787,316.169 201.519,316.043 201.192 C 315.917 200.864,315.561 200.596,315.252 200.596 C 314.396 200.596,312.691 199.617,311.843 198.639 C 311.239 197.943,310.738 197.792,309.366 197.890 L 307.646 198.014 307.542 212.016 L 307.438 226.018 297.512 226.018 C 291.160 226.018,287.587 226.161,287.587 226.415 C 287.587 226.675,279.915 226.812,265.366 226.812 C 250.981 226.812,243.059 226.952,242.900 227.210 C 242.765 227.428,241.771 227.607,240.692 227.607 C 239.212 227.607,238.729 227.753,238.729 228.203 C 238.729 228.720,236.297 229.104,234.657 228.845 C 234.494 228.820,234.404 229.018,234.459 229.286 C 234.513 229.553,234.156 229.834,233.664 229.909 C 233.173 229.984,232.771 230.200,232.771 230.389 C 232.771 230.577,232.279 230.788,231.678 230.857 C 231.064 230.928,230.629 231.200,230.685 231.480 C 230.740 231.753,230.516 231.976,230.189 231.976 C 229.861 231.976,229.593 232.155,229.593 232.373 C 229.593 232.592,229.321 232.771,228.989 232.771 C 228.657 232.771,227.629 233.248,226.705 233.831 C 225.781 234.415,224.967 234.852,224.897 234.804 C 224.827 234.755,224.275 235.395,223.671 236.226 C 223.067 237.056,221.917 238.292,221.117 238.972 C 220.282 239.682,219.662 240.570,219.662 241.058 C 219.662 241.525,219.447 241.862,219.184 241.807 C 218.921 241.753,218.697 241.915,218.687 242.169 C 218.677 242.422,218.198 243.000,217.623 243.452 C 217.034 243.916,216.345 245.060,216.047 246.070 C 215.755 247.057,215.377 247.865,215.206 247.865 C 215.035 247.865,214.896 248.228,214.896 248.672 C 214.896 249.116,214.628 249.582,214.300 249.707 C 213.972 249.833,213.704 250.349,213.704 250.853 C 213.704 251.358,213.516 251.834,213.285 251.911 C 212.873 252.048,212.602 252.934,212.543 254.343 C 212.526 254.738,212.334 254.951,212.115 254.816 C 211.871 254.665,211.718 255.326,211.718 256.532 C 211.718 257.790,211.505 258.670,211.122 258.987 C 210.730 259.313,210.526 260.200,210.526 261.585 C 210.526 262.741,210.350 263.747,210.134 263.820 C 209.878 263.906,209.705 284.140,209.637 321.797 C 209.554 367.943,209.634 379.602,210.030 379.450 C 210.382 379.315,210.526 379.779,210.526 381.041 C 210.526 382.140,210.755 383.012,211.122 383.317 C 211.450 383.589,211.718 384.136,211.718 384.534 C 211.718 384.931,211.897 385.366,212.115 385.501 C 212.334 385.637,212.512 386.075,212.512 386.475 C 212.512 386.876,212.781 387.307,213.108 387.433 C 213.436 387.558,213.704 388.095,213.704 388.624 C 213.704 389.154,213.984 389.695,214.325 389.826 C 214.667 389.957,214.836 390.242,214.702 390.459 C 214.561 390.688,214.718 390.755,215.074 390.618 C 215.473 390.465,215.690 390.606,215.690 391.020 C 215.690 391.371,215.988 391.658,216.352 391.658 C 216.716 391.658,216.901 391.771,216.763 391.910 C 216.421 392.251,218.242 393.644,219.030 393.644 C 219.378 393.644,219.662 393.907,219.662 394.228 C 219.662 394.559,219.898 394.721,220.207 394.602 C 220.507 394.487,221.030 394.672,221.370 395.012 C 221.711 395.352,222.359 395.631,222.812 395.631 C 223.264 395.631,223.635 395.809,223.635 396.028 C 223.635 396.246,224.528 396.425,225.621 396.425 C 226.713 396.425,227.607 396.604,227.607 396.822 C 227.607 397.067,229.659 397.219,232.969 397.219 C 236.279 397.219,238.332 397.067,238.332 396.822 C 238.332 396.604,239.225 396.425,240.318 396.425 C 241.410 396.425,242.304 396.246,242.304 396.028 C 242.304 395.809,242.732 395.631,243.254 395.631 C 243.777 395.631,244.312 395.351,244.443 395.010 C 244.574 394.668,244.847 394.491,245.050 394.616 C 245.252 394.741,245.687 394.574,246.017 394.244 C 246.347 393.914,246.903 393.644,247.253 393.644 C 247.603 393.644,247.993 393.376,248.119 393.049 C 248.244 392.721,248.520 392.453,248.730 392.453 C 249.246 392.453,250.248 391.422,250.248 390.892 C 250.248 390.658,250.440 390.467,250.674 390.467 C 251.266 390.467,251.907 389.714,252.793 387.978 C 253.210 387.162,253.702 386.495,253.886 386.495 C 254.070 386.495,254.220 385.863,254.220 385.092 C 254.220 384.211,254.442 383.604,254.816 383.460 C 255.184 383.319,255.412 382.716,255.412 381.884 C 255.412 381.071,255.609 380.536,255.909 380.536 C 256.304 380.536,256.384 369.740,256.303 327.605 C 256.202 275.218,256.209 274.668,256.988 274.182 C 257.601 273.799,267.993 273.688,304.061 273.681 C 344.710 273.672,350.348 273.599,350.348 273.082 C 350.348 272.570,353.150 272.174,354.827 272.449 C 354.997 272.477,355.240 272.230,355.366 271.900 C 355.509 271.529,356.109 271.301,356.944 271.301 C 357.685 271.301,358.292 271.122,358.292 270.904 C 358.292 270.685,358.739 270.506,359.285 270.506 C 359.831 270.506,360.278 270.347,360.278 270.152 C 360.278 269.958,360.725 269.686,361.271 269.549 C 361.817 269.412,362.264 269.124,362.264 268.910 C 362.264 268.696,362.711 268.520,363.257 268.520 C 363.866 268.520,364.250 268.294,364.250 267.937 C 364.250 267.596,364.485 267.444,364.814 267.570 C 365.137 267.694,366.053 267.137,366.957 266.267 C 367.825 265.431,369.169 264.411,369.944 264.002 C 370.719 263.592,371.452 263.000,371.573 262.686 C 371.693 262.371,371.999 262.243,372.253 262.400 C 372.541 262.578,372.607 262.511,372.429 262.223 C 372.270 261.965,372.418 261.657,372.765 261.524 C 373.107 261.393,373.386 260.858,373.386 260.335 C 373.386 259.812,373.520 259.429,373.684 259.484 C 373.848 259.538,373.989 259.494,373.998 259.384 C 374.006 259.275,374.587 258.599,375.289 257.881 C 375.990 257.163,376.564 256.396,376.564 256.176 C 376.564 255.955,377.011 255.293,377.557 254.704 C 378.103 254.115,378.550 253.407,378.550 253.132 C 378.550 252.857,378.729 252.632,378.947 252.632 C 379.166 252.632,379.345 252.179,379.345 251.626 C 379.345 251.073,379.575 250.532,379.857 250.424 C 380.138 250.316,380.398 249.833,380.435 249.350 C 380.471 248.867,380.688 248.410,380.916 248.334 C 381.144 248.258,381.331 247.604,381.331 246.881 C 381.331 246.079,381.563 245.477,381.927 245.338 C 382.303 245.193,382.522 244.584,382.522 243.683 C 382.522 242.834,382.683 242.356,382.920 242.502 C 383.169 242.657,383.317 241.778,383.317 240.143 C 383.317 238.089,383.443 237.537,383.914 237.537 C 384.443 237.537,384.499 230.434,384.410 175.074 C 384.330 125.359,384.209 112.632,383.813 112.711 C 383.469 112.780,383.317 112.201,383.317 110.824 C 383.317 109.732,383.138 108.838,382.920 108.838 C 382.701 108.838,382.522 108.315,382.522 107.675 C 382.522 107.035,382.254 106.243,381.927 105.916 C 381.599 105.588,381.331 104.950,381.331 104.497 C 381.331 104.045,381.173 103.674,380.980 103.674 C 380.787 103.674,380.524 103.361,380.395 102.979 C 380.267 102.597,380.006 102.016,379.815 101.688 C 378.889 100.098,378.550 99.248,378.550 98.516 C 378.550 98.070,378.287 97.716,377.954 97.716 C 377.627 97.716,377.358 97.448,377.358 97.120 C 377.358 96.792,377.172 96.524,376.943 96.524 C 376.405 96.524,374.349 94.466,374.479 94.057 C 374.533 93.885,374.310 93.744,373.982 93.744 C 373.654 93.744,373.386 93.565,373.386 93.347 C 373.386 92.792,371.914 91.376,371.632 91.658 C 371.504 91.786,371.400 91.562,371.400 91.162 C 371.400 90.761,371.296 90.538,371.168 90.665 C 370.921 90.913,369.167 89.323,369.287 88.960 C 369.327 88.842,368.972 88.716,368.499 88.680 C 368.026 88.644,367.576 88.429,367.500 88.200 C 367.424 87.972,366.952 87.786,366.450 87.786 C 365.949 87.786,365.317 87.517,365.045 87.190 C 364.773 86.862,364.304 86.594,364.003 86.594 C 363.702 86.594,363.456 86.415,363.456 86.197 C 363.456 85.978,362.825 85.799,362.053 85.799 C 361.173 85.799,360.565 85.578,360.422 85.204 C 360.262 84.788,359.614 84.608,358.279 84.608 C 357.080 84.608,356.316 84.422,356.236 84.111 C 356.136 83.728,353.942 83.639,346.586 83.721 M393.279 83.713 C 389.987 83.846,388.481 84.527,388.481 85.884 C 388.481 86.082,388.304 86.134,388.088 86.001 C 387.829 85.841,387.692 111.171,387.688 160.136 C 387.683 219.041,387.579 234.577,387.188 234.819 C 386.875 235.012,386.642 236.374,386.553 238.514 C 386.476 240.378,386.253 241.804,386.057 241.683 C 385.861 241.562,385.700 242.380,385.700 243.500 C 385.700 244.782,385.479 245.759,385.104 246.134 C 384.777 246.462,384.508 247.154,384.508 247.671 C 384.508 248.189,384.330 248.723,384.111 248.858 C 383.893 248.993,383.714 249.374,383.714 249.704 C 383.714 250.035,383.446 250.573,383.118 250.901 C 382.790 251.229,382.522 251.852,382.522 252.286 C 382.522 252.720,382.356 252.973,382.152 252.847 C 381.949 252.721,381.725 253.113,381.656 253.717 C 381.586 254.322,381.317 254.775,381.057 254.725 C 380.772 254.670,380.650 254.973,380.750 255.489 C 380.919 256.368,378.494 259.196,377.998 258.699 C 377.865 258.566,377.756 258.826,377.756 259.278 C 377.756 260.357,374.696 263.754,373.724 263.754 C 373.306 263.754,372.857 264.032,372.727 264.372 C 372.596 264.713,372.253 264.900,371.965 264.790 C 371.632 264.662,371.521 264.798,371.662 265.164 C 371.800 265.525,371.635 265.740,371.221 265.740 C 370.857 265.740,370.650 265.887,370.761 266.066 C 371.050 266.535,369.541 267.726,368.658 267.726 C 368.247 267.726,367.803 268.005,367.672 268.347 C 367.541 268.688,367.254 268.857,367.034 268.721 C 366.814 268.585,366.634 268.752,366.634 269.093 C 366.634 269.442,366.296 269.712,365.859 269.712 C 365.433 269.712,364.919 270.008,364.716 270.369 C 364.498 270.759,364.090 270.927,363.714 270.783 C 363.364 270.649,362.941 270.785,362.771 271.087 C 362.602 271.388,361.837 271.694,361.072 271.766 C 360.223 271.846,359.721 272.090,359.782 272.393 C 359.843 272.702,359.431 272.890,358.689 272.890 C 358.034 272.890,357.498 273.069,357.498 273.287 C 357.498 273.505,357.063 273.684,356.533 273.684 C 356.002 273.684,355.300 273.952,354.972 274.280 C 354.620 274.633,353.649 274.876,352.594 274.876 C 351.522 274.876,350.745 275.074,350.646 275.371 C 350.535 275.704,349.575 275.867,347.733 275.868 C 345.970 275.869,344.871 276.047,344.667 276.365 C 344.417 276.757,335.737 276.862,303.456 276.862 C 278.496 276.862,262.562 277.006,262.562 277.232 C 262.562 277.435,262.162 277.658,261.672 277.728 C 261.156 277.802,260.721 278.188,260.637 278.649 C 260.556 279.086,260.308 279.669,260.084 279.944 C 258.781 281.549,259.606 284.692,262.064 287.484 L 262.848 288.374 305.704 288.381 C 329.275 288.385,348.794 288.387,349.080 288.385 C 349.366 288.383,349.490 288.203,349.355 287.984 C 349.198 287.731,350.348 287.587,352.521 287.587 C 355.188 287.587,355.984 287.457,356.162 286.991 C 356.322 286.574,356.973 286.395,358.334 286.395 C 359.403 286.395,360.278 286.216,360.278 285.998 C 360.278 285.780,360.993 285.601,361.867 285.601 C 362.926 285.601,363.423 285.435,363.357 285.104 C 363.296 284.801,363.681 284.614,364.350 284.623 C 364.985 284.633,365.442 284.425,365.442 284.127 C 365.442 283.821,365.928 283.615,366.646 283.615 C 367.350 283.615,367.945 283.367,368.079 283.019 C 368.205 282.691,368.618 282.423,368.998 282.423 C 370.001 282.423,372.294 281.244,373.005 280.364 C 373.341 279.947,374.011 279.576,374.494 279.540 C 374.977 279.503,375.372 279.243,375.372 278.962 C 375.372 278.681,375.651 278.451,375.992 278.451 C 376.332 278.451,376.500 278.272,376.365 278.054 C 376.230 277.835,376.399 277.656,376.739 277.656 C 377.080 277.656,377.358 277.388,377.358 277.061 C 377.358 276.726,377.713 276.465,378.165 276.465 C 378.609 276.465,379.071 276.208,379.191 275.894 C 379.312 275.580,379.671 275.423,379.990 275.546 C 380.308 275.668,380.517 275.588,380.453 275.369 C 380.390 275.150,381.008 274.315,381.827 273.514 C 382.646 272.713,383.317 271.876,383.317 271.656 C 383.317 271.435,383.476 271.352,383.671 271.473 C 383.865 271.593,384.340 271.201,384.726 270.602 C 385.112 270.003,385.668 269.370,385.961 269.196 C 386.255 269.021,386.495 268.519,386.495 268.080 C 386.495 267.641,386.673 267.392,386.892 267.527 C 387.110 267.662,387.289 267.586,387.289 267.357 C 387.289 266.763,388.573 265.343,389.110 265.343 C 389.378 265.343,389.485 264.939,389.372 264.350 C 389.240 263.658,389.358 263.357,389.761 263.357 C 390.310 263.357,391.478 261.508,391.330 260.874 C 391.292 260.710,391.493 260.576,391.776 260.576 C 392.088 260.576,392.329 259.990,392.389 259.086 C 392.443 258.267,392.659 257.537,392.867 257.464 C 393.076 257.392,393.247 256.919,393.247 256.415 C 393.247 255.910,393.515 255.394,393.843 255.268 C 394.171 255.143,394.439 254.696,394.439 254.275 C 394.439 253.855,394.685 253.417,394.986 253.301 C 395.342 253.165,395.461 252.716,395.327 252.015 C 395.185 251.272,395.323 250.826,395.773 250.574 C 396.225 250.321,396.425 249.667,396.425 248.441 C 396.425 247.272,396.597 246.673,396.932 246.673 C 397.280 246.673,397.394 246.196,397.294 245.148 C 397.196 244.127,397.357 243.415,397.780 242.992 C 398.234 242.537,398.411 241.596,398.411 239.631 C 398.411 238.130,398.589 236.724,398.806 236.507 C 399.309 236.004,399.368 86.944,398.866 86.620 C 398.675 86.496,398.393 85.993,398.239 85.501 C 398.086 85.010,397.794 84.608,397.590 84.608 C 397.386 84.608,397.219 84.340,397.219 84.012 C 397.219 83.684,397.085 83.452,396.922 83.497 C 396.758 83.541,395.119 83.639,393.279 83.713 M350.673 100.117 C 350.597 100.345,350.135 100.562,349.647 100.599 C 349.158 100.635,348.759 100.896,348.759 101.177 C 348.759 101.458,348.312 101.688,347.766 101.688 C 347.104 101.688,346.773 101.909,346.773 102.350 C 346.773 102.714,346.668 102.908,346.541 102.781 C 346.258 102.498,344.786 103.914,344.786 104.469 C 344.786 104.687,344.561 104.866,344.286 104.866 C 343.602 104.866,341.609 107.969,341.609 109.034 C 341.609 109.309,341.339 109.759,341.008 110.033 C 340.482 110.471,340.410 114.453,340.422 142.513 C 340.429 160.102,340.354 174.575,340.254 174.675 C 339.933 174.996,339.204 174.338,339.447 173.945 C 339.576 173.736,339.534 173.601,339.354 173.644 C 338.844 173.768,336.680 172.666,336.326 172.104 C 336.151 171.826,335.747 171.599,335.427 171.599 C 335.107 171.599,334.535 171.433,334.155 171.231 C 333.776 171.028,333.142 170.761,332.745 170.638 C 332.349 170.514,332.136 170.233,332.272 170.013 C 332.408 169.793,332.241 169.613,331.900 169.613 C 331.560 169.613,331.281 169.434,331.281 169.215 C 331.281 168.997,330.834 168.818,330.288 168.818 C 329.742 168.818,329.295 168.640,329.295 168.421 C 329.295 168.203,328.869 168.024,328.348 168.024 C 327.746 168.024,327.328 167.744,327.200 167.255 C 327.055 166.700,326.767 166.547,326.161 166.706 C 325.563 166.862,325.323 166.740,325.323 166.283 C 325.323 165.870,324.983 165.641,324.372 165.641 C 323.849 165.641,323.334 165.411,323.226 165.130 C 323.118 164.850,322.205 164.196,321.197 163.678 C 320.189 163.159,319.364 162.495,319.364 162.202 C 319.364 161.898,318.938 161.668,318.371 161.668 C 317.825 161.668,317.378 161.490,317.378 161.271 C 317.378 161.053,316.931 160.874,316.385 160.874 C 315.788 160.874,315.392 160.647,315.392 160.304 C 315.392 159.979,314.925 159.681,314.300 159.609 C 313.686 159.539,313.251 159.266,313.307 158.987 C 313.361 158.714,313.272 158.522,313.108 158.560 C 312.685 158.658,310.531 157.606,309.879 156.983 C 309.578 156.695,309.086 156.553,308.787 156.668 C 308.478 156.786,308.242 156.624,308.242 156.293 C 308.242 155.936,307.858 155.710,307.249 155.710 C 306.615 155.710,306.256 155.487,306.256 155.091 C 306.256 154.750,306.096 154.570,305.901 154.691 C 305.705 154.812,305.443 154.644,305.317 154.317 C 305.192 153.991,304.803 153.724,304.453 153.724 C 304.103 153.724,303.548 153.456,303.220 153.128 C 302.893 152.800,302.280 152.532,301.858 152.532 C 301.437 152.532,301.092 152.354,301.092 152.135 C 301.092 151.917,300.735 151.738,300.298 151.738 C 299.861 151.738,299.503 151.559,299.503 151.341 C 299.503 151.122,299.235 150.943,298.908 150.943 C 298.580 150.943,298.312 150.675,298.312 150.348 C 298.312 149.977,297.937 149.752,297.319 149.752 C 296.773 149.752,296.326 149.522,296.326 149.240 C 296.326 148.959,295.924 148.699,295.432 148.663 C 294.940 148.627,294.174 148.142,293.729 147.586 C 293.284 147.029,292.524 146.574,292.041 146.574 C 291.557 146.574,291.162 146.395,291.162 146.177 C 291.162 145.958,290.536 145.780,289.772 145.780 C 288.801 145.780,288.381 145.600,288.381 145.184 C 288.381 144.817,288.009 144.588,287.412 144.588 C 286.878 144.588,286.332 144.409,286.197 144.191 C 285.890 143.694,275.670 143.653,275.670 144.148 C 275.670 144.342,275.223 144.614,274.677 144.751 C 274.131 144.888,273.684 145.176,273.684 145.390 C 273.684 145.604,273.371 145.782,272.989 145.786 C 272.044 145.795,269.712 147.906,269.712 148.754 C 269.712 149.131,269.265 149.790,268.719 150.220 C 268.173 150.650,267.726 151.324,267.726 151.718 C 267.726 152.112,267.488 152.632,267.198 152.873 C 266.885 153.133,266.741 153.801,266.846 154.511 C 267.008 155.614,266.791 155.864,265.740 155.790 C 265.631 155.783,265.541 157.266,265.541 159.086 C 265.541 160.907,265.631 162.390,265.740 162.383 C 266.841 162.305,267.022 162.545,266.817 163.806 C 266.692 164.582,266.795 165.362,267.063 165.652 C 267.425 166.044,267.396 166.091,266.931 165.868 C 266.567 165.693,266.606 165.803,267.031 166.151 C 267.413 166.465,267.726 166.925,267.726 167.174 C 267.726 167.423,267.905 167.627,268.123 167.627 C 268.342 167.627,268.520 167.855,268.520 168.134 C 268.520 168.413,268.833 168.922,269.215 169.265 C 269.598 169.608,270.357 170.445,270.904 171.124 C 271.469 171.827,272.282 172.367,272.790 172.376 C 273.313 172.386,273.684 172.641,273.684 172.989 C 273.684 173.317,273.963 173.585,274.303 173.585 C 274.644 173.585,274.812 173.764,274.677 173.982 C 274.535 174.213,274.924 174.379,275.604 174.379 C 276.280 174.379,276.874 174.632,277.006 174.975 C 277.131 175.303,277.521 175.571,277.871 175.571 C 278.595 175.571,279.643 176.494,279.643 177.132 C 279.643 177.366,280.079 177.557,280.612 177.557 C 281.145 177.557,281.692 177.736,281.827 177.954 C 281.962 178.173,282.420 178.352,282.844 178.352 C 283.268 178.352,283.615 178.620,283.615 178.947 C 283.615 179.275,283.883 179.543,284.211 179.543 C 284.538 179.543,284.806 179.722,284.806 179.940 C 284.806 180.159,285.253 180.338,285.799 180.338 C 286.417 180.338,286.792 180.563,286.792 180.933 C 286.792 181.288,287.157 181.529,287.691 181.529 C 288.186 181.529,288.925 181.975,289.336 182.522 C 289.746 183.069,290.420 183.515,290.833 183.515 C 291.246 183.515,291.683 183.772,291.803 184.086 C 291.923 184.400,292.284 184.556,292.604 184.434 C 292.924 184.311,293.401 184.486,293.664 184.822 C 293.926 185.159,294.499 185.505,294.935 185.591 C 295.372 185.677,295.678 185.982,295.614 186.269 C 295.545 186.583,295.729 186.702,296.078 186.568 C 296.397 186.446,296.756 186.603,296.876 186.917 C 296.997 187.231,297.439 187.488,297.860 187.488 C 298.280 187.488,298.727 187.756,298.853 188.083 C 298.978 188.411,299.444 188.679,299.888 188.679 C 300.332 188.679,300.695 188.858,300.695 189.076 C 300.695 189.295,301.077 189.474,301.543 189.474 C 302.010 189.474,302.806 189.921,303.312 190.467 C 303.818 191.013,304.500 191.460,304.827 191.460 C 305.155 191.460,305.585 191.751,305.784 192.107 C 305.984 192.463,306.384 192.675,306.673 192.579 C 307.245 192.388,308.640 193.583,308.640 194.264 C 308.640 194.495,308.781 194.597,308.954 194.490 C 309.253 194.305,311.343 195.092,312.612 195.867 C 312.939 196.068,313.476 196.354,313.803 196.505 C 314.642 196.889,315.392 197.682,315.392 198.184 C 315.392 198.418,315.918 198.610,316.560 198.610 C 317.203 198.610,317.839 198.788,317.974 199.007 C 318.109 199.225,318.524 199.404,318.895 199.404 C 319.531 199.404,320.808 200.889,320.654 201.449 C 320.615 201.590,320.953 201.609,321.405 201.491 C 321.857 201.373,322.342 201.450,322.484 201.662 C 322.821 202.169,325.293 203.376,325.992 203.376 C 326.293 203.376,326.642 203.644,326.768 203.972 C 326.894 204.300,327.256 204.568,327.573 204.568 C 327.891 204.568,328.040 204.747,327.905 204.965 C 327.691 205.311,328.497 205.551,329.394 205.410 C 329.558 205.384,329.692 205.631,329.692 205.958 C 329.692 206.308,330.062 206.559,330.586 206.567 C 331.077 206.574,331.819 206.836,332.233 207.150 C 332.648 207.464,333.139 207.626,333.326 207.511 C 333.512 207.396,333.664 207.491,333.664 207.722 C 333.664 208.423,335.004 209.533,335.849 209.533 C 336.286 209.533,336.611 209.719,336.572 209.945 C 336.533 210.172,336.959 210.396,337.519 210.442 C 338.079 210.488,338.921 210.973,339.390 211.519 C 339.972 212.196,340.651 212.512,341.522 212.512 C 342.333 212.512,342.764 212.694,342.701 213.009 C 342.645 213.288,343.080 213.560,343.694 213.631 C 344.295 213.700,344.786 213.924,344.786 214.128 C 344.786 214.332,345.814 214.504,347.071 214.511 C 348.327 214.518,349.657 214.754,350.027 215.035 C 350.827 215.643,354.029 215.571,354.239 214.940 C 354.327 214.677,355.425 214.499,356.958 214.499 C 358.572 214.499,359.439 214.350,359.285 214.101 C 359.150 213.883,359.386 213.704,359.809 213.704 C 360.232 213.704,360.801 213.436,361.072 213.108 C 361.344 212.781,361.819 212.512,362.128 212.512 C 362.436 212.512,363.201 211.988,363.827 211.347 C 364.453 210.707,365.028 210.234,365.104 210.297 C 365.181 210.359,365.728 209.901,366.320 209.277 C 366.912 208.653,367.281 208.143,367.139 208.143 C 366.997 208.143,367.265 207.786,367.734 207.349 C 368.203 206.912,368.773 206.554,369.000 206.554 C 369.228 206.554,369.414 206.118,369.414 205.585 C 369.414 205.051,369.593 204.504,369.811 204.369 C 370.030 204.234,370.209 203.796,370.209 203.395 C 370.209 202.995,370.477 202.564,370.804 202.438 C 371.292 202.251,371.400 201.265,371.400 197.005 C 371.400 192.908,371.527 191.673,371.996 191.204 C 372.518 190.683,372.592 185.711,372.592 151.300 C 372.592 116.725,372.520 111.963,371.996 111.762 C 371.665 111.635,371.400 111.045,371.400 110.433 C 371.400 109.828,371.132 109.110,370.804 108.838 C 370.477 108.566,370.209 107.908,370.209 107.376 C 370.209 106.832,370.035 106.515,369.811 106.653 C 369.586 106.793,369.414 106.459,369.414 105.882 C 369.414 105.270,369.190 104.866,368.852 104.866 C 368.542 104.866,368.057 104.343,367.774 103.703 C 367.491 103.063,367.139 102.614,366.992 102.706 C 366.844 102.797,366.503 102.605,366.233 102.280 C 365.963 101.954,365.483 101.688,365.166 101.688 C 364.850 101.688,364.323 101.420,363.995 101.092 C 363.667 100.765,362.976 100.497,362.458 100.497 C 361.940 100.497,361.406 100.318,361.271 100.099 C 360.934 99.554,350.855 99.571,350.673 100.117 M239.921 104.071 C 239.921 104.290,239.429 104.469,238.828 104.469 C 237.670 104.469,237.176 108.784,238.292 109.156 C 238.532 109.236,238.729 109.555,238.729 109.864 C 238.729 110.174,239.008 110.427,239.348 110.427 C 239.689 110.427,239.860 110.601,239.729 110.813 C 239.598 111.025,239.990 111.321,240.599 111.472 C 241.209 111.623,242.091 112.187,242.558 112.726 C 243.026 113.264,243.608 113.582,243.852 113.431 C 244.096 113.281,244.403 113.437,244.534 113.778 C 244.665 114.120,245.181 114.399,245.680 114.399 C 246.180 114.399,246.686 114.653,246.805 114.964 C 246.938 115.310,247.340 115.446,247.841 115.315 C 248.418 115.164,248.659 115.290,248.659 115.743 C 248.659 116.163,249.003 116.385,249.652 116.385 C 250.199 116.385,250.645 116.577,250.645 116.811 C 250.645 117.496,251.716 118.371,252.555 118.371 C 252.980 118.371,253.551 118.640,253.823 118.967 C 254.095 119.295,254.653 119.563,255.064 119.563 C 255.474 119.563,255.809 119.841,255.809 120.182 C 255.809 120.523,255.988 120.691,256.207 120.556 C 256.425 120.421,256.604 120.466,256.604 120.655 C 256.604 121.024,259.346 122.344,260.114 122.344 C 260.368 122.344,260.576 122.505,260.576 122.702 C 260.576 122.899,261.112 123.247,261.768 123.476 C 262.423 123.704,262.959 124.090,262.959 124.332 C 262.959 124.575,263.119 124.675,263.315 124.554 C 263.510 124.433,263.773 124.601,263.898 124.928 C 264.024 125.254,264.470 125.521,264.890 125.521 C 265.311 125.521,265.762 125.801,265.893 126.142 C 266.024 126.484,266.302 126.658,266.510 126.529 C 266.718 126.401,267.837 127.014,268.995 127.893 C 270.154 128.771,271.338 129.491,271.627 129.492 C 271.916 129.493,272.413 129.754,272.731 130.072 C 273.049 130.391,273.550 130.559,273.843 130.447 C 274.136 130.334,274.483 130.521,274.614 130.861 C 274.744 131.201,275.133 131.480,275.478 131.480 C 275.823 131.480,276.520 131.927,277.026 132.473 C 277.532 133.019,278.245 133.466,278.610 133.466 C 279.319 133.466,280.942 134.407,282.200 135.548 C 282.624 135.932,283.299 136.246,283.702 136.246 C 284.105 136.246,284.537 136.514,284.663 136.842 C 284.788 137.170,285.208 137.438,285.595 137.438 C 285.981 137.438,286.522 137.708,286.797 138.039 C 287.071 138.370,287.523 138.593,287.801 138.536 C 288.078 138.478,288.636 138.802,289.039 139.255 C 289.912 140.237,292.182 141.410,293.209 141.410 C 293.612 141.410,293.942 141.614,293.942 141.863 C 293.942 142.473,295.169 143.368,296.028 143.384 C 296.410 143.391,296.678 143.615,296.624 143.883 C 296.569 144.151,296.971 144.434,297.517 144.513 C 298.064 144.591,298.680 144.819,298.888 145.019 C 299.095 145.219,300.391 145.382,301.768 145.382 C 304.270 145.382,304.554 145.194,304.317 143.694 C 304.291 143.530,304.499 143.396,304.779 143.396 C 305.500 143.396,305.562 141.591,304.862 141.010 C 304.541 140.744,304.380 140.363,304.503 140.164 C 304.626 139.964,304.556 139.851,304.347 139.911 C 304.139 139.971,303.509 139.528,302.947 138.928 C 302.385 138.327,301.578 137.835,301.154 137.835 C 300.730 137.835,300.280 137.567,300.154 137.239 C 300.029 136.912,299.563 136.643,299.119 136.643 C 298.675 136.643,298.312 136.465,298.312 136.246 C 298.312 136.028,297.865 135.849,297.319 135.849 C 296.773 135.849,296.326 135.658,296.326 135.423 C 296.326 135.047,295.346 133.830,295.049 133.838 C 294.358 133.856,293.206 133.295,293.374 133.023 C 293.494 132.830,293.088 132.671,292.471 132.671 C 291.739 132.671,291.092 132.327,290.605 131.678 C 290.195 131.132,289.526 130.685,289.120 130.685 C 288.714 130.685,288.381 130.541,288.381 130.364 C 288.381 130.055,285.651 128.699,285.028 128.699 C 284.860 128.699,284.191 128.252,283.542 127.706 C 282.893 127.160,282.108 126.713,281.797 126.713 C 281.486 126.713,281.231 126.529,281.231 126.303 C 281.231 126.078,280.919 125.776,280.536 125.632 C 280.154 125.489,278.911 124.779,277.775 124.056 C 276.638 123.333,275.454 122.741,275.142 122.741 C 274.831 122.741,274.353 122.473,274.081 122.145 C 273.809 121.817,273.251 121.549,272.841 121.549 C 272.431 121.549,272.095 121.370,272.095 121.152 C 272.095 120.933,271.836 120.755,271.520 120.755 C 271.204 120.755,270.462 120.308,269.873 119.762 C 269.284 119.215,268.470 118.769,268.065 118.769 C 267.660 118.769,267.329 118.602,267.329 118.398 C 267.329 118.194,266.927 117.901,266.435 117.747 C 265.943 117.593,265.139 117.035,264.647 116.508 C 264.156 115.981,263.754 115.669,263.754 115.815 C 263.754 115.960,263.313 115.791,262.775 115.438 C 262.236 115.085,261.521 114.796,261.186 114.796 C 260.850 114.796,260.576 114.635,260.576 114.438 C 260.576 114.241,260.040 113.893,259.384 113.664 C 258.729 113.436,258.193 113.050,258.193 112.808 C 258.193 112.565,258.014 112.477,257.795 112.612 C 257.577 112.747,257.398 112.671,257.398 112.444 C 257.398 112.217,256.951 111.919,256.405 111.782 C 255.859 111.645,255.412 111.309,255.412 111.035 C 255.412 110.718,255.051 110.606,254.419 110.727 C 253.691 110.866,253.426 110.745,253.426 110.275 C 253.426 109.855,253.083 109.633,252.433 109.633 C 251.798 109.633,251.440 109.409,251.440 109.013 C 251.440 108.673,251.280 108.493,251.084 108.614 C 250.889 108.735,250.626 108.566,250.501 108.240 C 250.376 107.914,249.821 107.646,249.268 107.646 C 248.715 107.646,248.262 107.468,248.262 107.249 C 248.262 107.031,247.834 106.852,247.312 106.852 C 246.789 106.852,246.258 106.584,246.132 106.256 C 246.007 105.929,245.530 105.660,245.073 105.660 C 244.617 105.660,244.345 105.496,244.469 105.295 C 244.593 105.095,244.156 104.812,243.499 104.668 C 242.842 104.524,242.304 104.241,242.304 104.040 C 242.304 103.839,241.768 103.674,241.112 103.674 C 240.457 103.674,239.921 103.853,239.921 104.071 M125.568 140.516 C 125.594 141.554,125.593 142.542,125.565 142.712 C 125.537 142.882,125.784 143.125,126.113 143.251 C 127.014 143.597,127.017 173.224,126.117 174.124 C 125.635 174.606,125.521 175.981,125.521 181.302 L 125.521 187.885 124.528 187.885 C 123.982 187.885,123.535 188.064,123.535 188.282 C 123.535 188.530,121.210 188.679,117.355 188.679 C 113.336 188.679,111.260 188.540,111.420 188.282 C 111.563 188.050,111.159 187.885,110.450 187.885 L 109.235 187.885 109.235 163.257 L 109.235 138.630 117.378 138.630 L 125.521 138.630 125.568 140.516 M112.910 142.070 C 112.521 142.227,112.413 146.793,112.413 163.022 L 112.413 183.774 113.332 184.638 C 114.470 185.706,118.354 185.884,119.166 184.906 C 119.481 184.526,120.359 184.310,121.590 184.310 L 123.520 184.310 123.520 165.228 C 123.520 148.746,123.439 146.115,122.932 145.920 C 122.523 145.763,122.344 145.101,122.344 143.751 L 122.344 141.807 117.875 141.839 C 115.417 141.856,113.183 141.960,112.910 142.070 M147.865 196.922 L -0.000 197.022 -0.000 202.781 L 0.000 208.540 141.566 208.540 C 268.782 208.540,283.156 208.478,283.368 207.927 C 283.570 207.400,284.624 207.331,290.958 207.431 C 296.848 207.524,298.313 207.443,298.312 207.022 C 298.312 206.734,298.580 206.229,298.908 205.902 C 299.331 205.478,299.503 204.447,299.503 202.342 C 299.503 200.075,299.364 199.326,298.908 199.151 C 298.580 199.025,298.312 198.673,298.312 198.369 C 298.312 198.064,297.929 197.815,297.462 197.815 C 296.994 197.815,296.413 197.592,296.171 197.319 C 295.819 196.923,265.758 196.842,147.865 196.922 M68.024 211.981 C 67.500 212.192,67.263 231.620,67.768 232.937 C 68.189 234.033,69.654 233.625,71.202 231.980 C 72.021 231.109,73.451 229.922,74.380 229.341 C 75.308 228.761,76.213 228.040,76.390 227.739 C 76.567 227.439,76.880 227.297,77.085 227.423 C 77.290 227.550,77.458 227.375,77.458 227.034 C 77.458 226.639,77.816 226.415,78.451 226.415 C 78.997 226.415,79.444 226.256,79.444 226.061 C 79.444 225.866,79.891 225.595,80.437 225.458 C 80.983 225.320,81.430 225.033,81.430 224.819 C 81.430 224.604,82.324 224.429,83.416 224.429 C 84.508 224.429,85.402 224.250,85.402 224.032 C 85.402 223.783,87.918 223.635,92.155 223.635 C 96.392 223.635,98.908 223.783,98.908 224.032 C 98.908 224.250,99.514 224.429,100.255 224.429 C 101.087 224.429,101.691 224.657,101.832 225.025 C 101.958 225.353,102.491 225.621,103.017 225.621 C 103.544 225.621,104.195 225.887,104.465 226.212 C 104.735 226.537,105.080 226.727,105.232 226.633 C 105.383 226.539,105.835 226.899,106.235 227.432 C 106.636 227.965,107.215 228.401,107.522 228.401 C 107.830 228.401,108.496 228.848,109.002 229.394 C 109.508 229.940,110.125 230.387,110.373 230.387 C 110.621 230.387,110.783 230.521,110.732 230.685 C 110.586 231.157,112.121 232.753,112.498 232.520 C 112.684 232.404,112.754 232.771,112.652 233.335 C 112.523 234.046,112.640 234.359,113.035 234.359 C 113.348 234.359,113.605 234.628,113.605 234.955 C 113.605 235.283,113.873 235.551,114.201 235.551 C 114.571 235.551,114.796 235.926,114.796 236.544 C 114.796 237.090,114.964 237.537,115.170 237.537 C 115.375 237.537,115.598 238.208,115.666 239.027 C 115.743 239.958,115.975 240.479,116.286 240.417 C 116.559 240.362,116.783 240.586,116.783 240.914 C 116.783 241.306,117.175 241.509,117.932 241.509 C 119.140 241.509,119.563 240.940,119.563 239.316 C 119.563 238.800,119.742 238.268,119.960 238.133 C 120.179 237.998,120.357 237.522,120.357 237.074 C 120.357 236.489,120.537 236.330,120.998 236.506 C 121.444 236.677,121.572 236.580,121.420 236.184 C 121.300 235.872,121.459 235.518,121.773 235.398 C 122.087 235.277,122.344 234.914,122.344 234.591 C 122.344 234.268,122.790 233.521,123.337 232.932 C 123.883 232.342,124.330 231.534,124.330 231.136 C 124.330 230.646,124.528 230.488,124.945 230.648 C 125.331 230.797,125.972 230.423,126.668 229.643 C 127.278 228.960,128.061 228.401,128.408 228.401 C 128.755 228.401,129.390 227.954,129.820 227.408 C 130.249 226.862,130.977 226.415,131.438 226.415 C 131.898 226.415,132.274 226.236,132.274 226.018 C 132.274 225.799,132.788 225.621,133.417 225.621 C 134.046 225.621,134.783 225.353,135.055 225.025 C 135.327 224.697,136.153 224.429,136.891 224.429 C 137.629 224.429,138.232 224.250,138.232 224.032 C 138.232 223.785,140.425 223.635,144.015 223.635 C 147.530 223.635,149.708 223.781,149.568 224.008 C 149.440 224.214,150.100 224.438,151.034 224.505 C 151.967 224.572,152.698 224.815,152.658 225.045 C 152.618 225.274,153.244 225.505,154.048 225.559 C 154.853 225.612,155.571 225.826,155.644 226.035 C 155.717 226.244,156.208 226.415,156.736 226.415 C 157.264 226.415,157.696 226.582,157.696 226.786 C 157.696 226.989,158.073 227.276,158.533 227.422 C 159.662 227.780,160.882 228.861,160.625 229.276 C 160.511 229.461,160.578 229.563,160.773 229.503 C 160.969 229.443,162.097 230.340,163.280 231.495 C 167.044 235.171,167.012 235.245,167.136 222.542 L 167.242 211.718 117.881 211.749 C 90.733 211.767,68.297 211.871,68.024 211.981 M90.566 226.216 C 90.566 226.689,89.995 226.812,87.809 226.812 C 86.293 226.812,84.941 226.991,84.806 227.210 C 84.671 227.428,84.159 227.607,83.667 227.607 C 83.176 227.607,82.427 227.869,82.002 228.190 C 81.578 228.511,80.938 228.779,80.579 228.786 C 80.220 228.793,79.822 229.071,79.694 229.404 C 79.543 229.796,79.117 229.946,78.484 229.832 C 77.820 229.711,77.567 229.812,77.695 230.145 C 77.798 230.415,77.431 230.877,76.878 231.173 C 76.326 231.469,75.601 232.128,75.267 232.638 C 74.932 233.148,74.395 233.565,74.072 233.565 C 73.750 233.565,73.486 233.805,73.486 234.099 C 73.486 234.393,73.173 234.918,72.790 235.266 C 72.408 235.614,71.762 236.580,71.354 237.413 C 70.946 238.246,70.365 239.402,70.063 239.982 C 69.761 240.562,69.513 241.411,69.513 241.869 C 69.513 242.326,69.344 242.701,69.137 242.701 C 68.930 242.701,68.706 243.640,68.640 244.786 C 68.559 246.195,68.359 246.840,68.024 246.773 C 67.628 246.693,67.527 259.477,67.527 309.633 C 67.527 365.332,67.596 372.592,68.123 372.592 C 68.617 372.592,68.719 373.342,68.719 376.961 C 68.719 379.609,68.875 381.331,69.116 381.331 C 69.335 381.331,69.513 382.046,69.513 382.920 C 69.513 384.067,69.679 384.508,70.109 384.508 C 70.480 384.508,70.705 384.884,70.705 385.501 C 70.705 386.048,70.884 386.495,71.102 386.495 C 71.321 386.495,71.500 386.788,71.500 387.147 C 71.500 387.505,71.991 388.282,72.592 388.872 C 73.193 389.463,73.947 390.331,74.268 390.802 C 74.590 391.273,75.081 391.658,75.361 391.658 C 75.640 391.658,75.869 391.937,75.869 392.278 C 75.869 392.618,76.029 392.798,76.225 392.677 C 76.420 392.556,76.683 392.724,76.808 393.051 C 76.933 393.377,77.404 393.644,77.855 393.644 C 78.306 393.644,78.770 393.893,78.886 394.196 C 79.003 394.500,79.419 394.664,79.812 394.562 C 80.229 394.453,80.626 394.636,80.767 395.003 C 80.899 395.348,81.360 395.631,81.791 395.631 C 82.222 395.631,82.685 395.809,82.820 396.028 C 82.971 396.272,86.201 396.425,91.185 396.425 C 96.334 396.425,99.305 396.280,99.305 396.028 C 99.305 395.809,99.911 395.631,100.653 395.631 C 101.484 395.631,102.088 395.402,102.229 395.035 C 102.355 394.707,102.808 394.439,103.236 394.439 C 103.664 394.439,104.382 393.971,104.832 393.398 C 105.394 392.684,105.902 392.423,106.450 392.567 C 106.890 392.682,107.249 392.614,107.249 392.416 C 107.249 391.917,108.745 390.467,109.259 390.467 C 109.490 390.467,109.581 390.307,109.460 390.111 C 109.339 389.916,109.507 389.653,109.833 389.528 C 110.160 389.403,110.427 388.937,110.427 388.493 C 110.427 388.049,110.678 387.686,110.986 387.686 C 111.345 387.686,111.472 387.408,111.340 386.906 C 111.228 386.475,111.422 385.840,111.775 385.487 C 112.126 385.136,112.413 384.615,112.413 384.330 C 112.413 384.045,112.656 383.610,112.953 383.363 C 113.272 383.098,113.412 382.487,113.294 381.872 C 113.159 381.164,113.305 380.712,113.747 380.464 C 114.314 380.147,114.399 379.172,114.399 373.036 C 114.399 369.150,114.524 365.847,114.676 365.695 C 115.322 365.049,115.371 361.390,115.482 306.093 C 115.585 254.943,115.528 248.027,114.999 247.219 C 114.669 246.716,114.399 245.592,114.399 244.721 C 114.399 243.669,114.181 243.016,113.750 242.775 C 113.293 242.519,113.155 242.044,113.284 241.166 C 113.411 240.304,113.305 239.921,112.940 239.921 C 112.650 239.921,112.413 239.585,112.413 239.175 C 112.413 238.765,112.145 238.206,111.817 237.934 C 111.490 237.662,111.221 237.004,111.221 236.472 C 111.221 235.928,111.048 235.612,110.824 235.750 C 110.606 235.885,110.427 235.717,110.427 235.376 C 110.427 235.035,110.159 234.757,109.831 234.757 C 109.503 234.757,109.235 234.433,109.235 234.037 C 109.235 233.254,107.860 231.579,107.216 231.579 C 106.997 231.579,106.352 231.148,105.784 230.621 C 105.215 230.093,104.510 229.755,104.216 229.867 C 103.922 229.980,103.571 229.786,103.437 229.435 C 103.302 229.085,102.764 228.798,102.242 228.798 C 101.661 228.798,101.291 228.566,101.291 228.203 C 101.291 227.772,100.850 227.607,99.702 227.607 C 98.828 227.607,98.113 227.428,98.113 227.210 C 98.113 226.981,96.870 226.812,95.177 226.812 C 92.933 226.812,92.186 226.672,92.011 226.216 C 91.886 225.889,91.509 225.621,91.174 225.621 C 90.840 225.621,90.566 225.889,90.566 226.216 M137.835 227.158 C 137.835 227.348,136.992 227.598,135.961 227.715 C 134.931 227.831,134.022 228.122,133.942 228.362 C 133.862 228.602,133.380 228.798,132.870 228.798 C 132.360 228.798,131.880 228.987,131.803 229.217 C 131.683 229.579,130.943 229.849,129.768 229.960 C 129.591 229.976,129.537 230.136,129.647 230.314 C 129.757 230.493,129.357 230.928,128.758 231.282 C 128.159 231.636,127.423 232.384,127.124 232.944 C 126.824 233.504,126.405 233.962,126.193 233.962 C 125.686 233.962,124.756 235.204,124.740 235.903 C 124.733 236.205,124.280 236.867,123.734 237.373 C 123.188 237.880,122.741 238.727,122.741 239.257 C 122.741 239.787,122.473 240.443,122.145 240.715 C 121.817 240.987,121.549 241.813,121.549 242.551 C 121.549 243.289,121.370 243.893,121.152 243.893 C 120.889 243.893,120.755 267.130,120.755 312.810 C 120.755 358.491,120.889 381.728,121.152 381.728 C 121.370 381.728,121.549 382.270,121.549 382.932 C 121.549 383.636,121.797 384.231,122.145 384.365 C 122.473 384.491,122.741 385.002,122.741 385.501 C 122.741 386.001,123.020 386.517,123.362 386.648 C 123.703 386.779,123.872 387.066,123.736 387.286 C 123.600 387.506,123.767 387.686,124.108 387.686 C 124.449 387.686,124.727 388.022,124.727 388.434 C 124.727 388.846,125.449 389.835,126.331 390.632 C 127.214 391.429,127.830 392.252,127.701 392.461 C 127.571 392.672,127.741 392.736,128.083 392.604 C 128.435 392.469,128.699 392.578,128.699 392.860 C 128.699 393.600,130.273 394.817,130.913 394.572 C 131.221 394.453,131.583 394.643,131.717 394.994 C 131.875 395.405,132.439 395.631,133.310 395.631 C 134.051 395.631,134.657 395.809,134.657 396.028 C 134.657 396.252,135.791 396.425,137.263 396.425 C 138.899 396.425,139.777 396.573,139.623 396.822 C 139.464 397.079,141.149 397.219,144.389 397.219 C 147.630 397.219,149.315 397.079,149.156 396.822 C 149.008 396.582,149.549 396.425,150.523 396.425 C 151.410 396.425,152.135 396.246,152.135 396.028 C 152.135 395.809,152.766 395.631,153.538 395.631 C 154.418 395.631,155.026 395.409,155.169 395.035 C 155.314 394.658,155.747 394.502,156.348 394.611 C 156.871 394.706,157.299 394.615,157.299 394.409 C 157.299 393.868,159.487 391.658,160.023 391.658 C 160.273 391.658,160.477 391.380,160.477 391.039 C 160.477 390.699,160.655 390.530,160.874 390.665 C 161.092 390.800,161.271 390.703,161.271 390.448 C 161.271 390.193,161.718 389.634,162.264 389.204 C 162.810 388.774,163.257 388.073,163.257 387.645 C 163.257 387.217,163.525 386.764,163.853 386.638 C 164.181 386.512,164.449 385.982,164.449 385.459 C 164.449 384.907,164.683 384.508,165.007 384.508 C 165.382 384.508,165.493 384.229,165.345 383.664 C 165.202 383.118,165.356 382.689,165.780 382.452 C 166.233 382.199,166.435 381.550,166.435 380.351 C 166.435 379.397,166.615 378.556,166.835 378.483 C 167.477 378.269,167.574 246.673,166.931 246.673 C 166.596 246.673,166.435 245.981,166.435 244.537 C 166.435 243.123,166.234 242.234,165.839 241.907 C 165.511 241.635,165.243 240.808,165.243 240.071 C 165.243 239.333,165.065 238.729,164.846 238.729 C 164.628 238.729,164.449 238.282,164.449 237.736 C 164.449 237.101,164.225 236.743,163.830 236.743 C 163.489 236.743,163.309 236.583,163.430 236.387 C 163.551 236.192,163.383 235.929,163.056 235.804 C 162.730 235.679,162.463 235.308,162.463 234.981 C 162.463 234.397,159.694 231.332,159.670 231.890 C 159.664 232.047,159.476 231.862,159.253 231.480 C 159.031 231.097,158.500 230.785,158.074 230.785 C 157.637 230.785,157.299 230.514,157.299 230.165 C 157.299 229.825,157.119 229.657,156.899 229.793 C 156.679 229.929,156.392 229.761,156.261 229.419 C 156.129 229.078,155.706 228.798,155.319 228.798 C 154.932 228.798,154.418 228.560,154.175 228.268 C 153.933 227.976,152.973 227.708,152.041 227.671 C 151.110 227.635,150.288 227.427,150.215 227.209 C 150.050 226.715,137.835 226.665,137.835 227.158 " stroke="none" fill="#fcbcb4" fill-rule="evenodd"></path><path id="path1" d="" stroke="none" fill="#100bcb4" fill-rule="evenodd"></path></g></svg>