<svg id="svg" version="1.1" xmlns="http://www.w3.org/2000/svg" xmlns:xlink="http://www.w3.org/1999/xlink" width="400" height="396.9773299748111" viewBox="0, 0, 400,396.9773299748111"><g id="svgg"><path id="path0" d="M113.048 1.541 C 110.347 1.814,107.439 2.475,105.592 3.236 C 104.982 3.487,103.622 4.047,102.569 4.479 C 101.516 4.912,100.065 5.615,99.345 6.042 C 98.625 6.469,97.703 6.984,97.298 7.187 C 96.494 7.590,93.321 10.124,91.411 11.889 C 89.917 13.270,86.175 17.831,85.493 19.102 C 85.214 19.624,84.774 20.468,84.514 20.977 C 84.255 21.487,83.904 22.020,83.735 22.161 C 83.565 22.302,83.426 22.554,83.426 22.721 C 83.426 22.888,83.075 23.851,82.645 24.862 C 81.457 27.660,80.442 31.017,80.188 32.988 C 79.617 37.421,80.163 47.116,81.106 49.270 C 81.252 49.602,81.505 50.418,81.670 51.083 C 82.212 53.274,83.909 56.962,85.054 58.438 C 85.355 58.826,85.669 59.369,85.751 59.645 C 86.222 61.219,91.274 66.842,93.804 68.606 C 94.579 69.147,95.641 69.983,96.163 70.462 C 96.684 70.942,97.240 71.335,97.397 71.335 C 97.555 71.335,97.792 71.465,97.923 71.624 C 98.634 72.480,105.100 75.213,107.501 75.673 C 108.357 75.837,109.143 76.023,109.247 76.088 C 111.256 77.329,123.933 77.319,126.341 76.074 C 126.654 75.912,127.305 75.722,127.787 75.651 C 128.950 75.479,131.779 74.371,134.480 73.028 C 135.683 72.429,136.744 71.940,136.838 71.940 C 137.253 71.940,140.848 69.325,142.355 67.926 C 146.578 64.008,148.779 61.339,150.420 58.151 C 150.929 57.161,151.416 56.254,151.503 56.135 C 151.590 56.017,151.805 55.557,151.981 55.113 C 152.157 54.670,152.571 53.673,152.901 52.897 C 153.231 52.121,153.563 51.169,153.638 50.781 C 153.713 50.393,153.894 49.758,154.040 49.370 C 155.229 46.212,155.453 44.229,155.283 38.388 C 155.147 33.685,154.949 31.956,154.363 30.327 C 154.163 29.773,153.897 28.656,153.772 27.844 C 153.646 27.032,153.332 25.944,153.073 25.426 C 152.814 24.908,152.438 24.030,152.238 23.476 C 152.037 22.922,151.719 22.287,151.531 22.065 C 151.343 21.844,151.145 21.481,151.091 21.259 C 150.985 20.821,149.500 18.535,148.459 17.204 C 148.101 16.747,147.491 15.934,147.103 15.397 C 145.147 12.688,139.869 7.916,138.070 7.230 C 137.813 7.132,137.178 6.758,136.660 6.400 C 135.082 5.308,131.207 3.574,128.440 2.722 C 125.818 1.915,116.459 1.196,113.048 1.541 M110.218 44.531 C 112.728 45.251,113.780 48.583,112.174 50.724 C 109.828 53.851,104.786 52.093,104.786 48.148 C 104.786 45.551,107.492 43.750,110.218 44.531 M126.771 44.567 C 131.124 46.061,130.291 52.393,125.742 52.393 C 123.255 52.393,121.712 50.685,121.714 47.936 C 121.715 45.450,124.309 43.723,126.771 44.567 M103.514 84.265 C 101.872 84.339,100.399 84.450,100.239 84.511 C 100.080 84.572,98.930 84.628,97.683 84.636 C 96.436 84.643,94.463 84.786,93.300 84.953 C 88.769 85.601,86.154 86.083,85.377 86.410 C 85.065 86.542,84.677 86.650,84.514 86.650 C 84.153 86.650,79.843 87.896,77.841 88.579 C 74.258 89.801,68.386 92.474,66.631 93.681 C 66.130 94.026,65.620 94.307,65.496 94.307 C 64.820 94.307,60.113 97.856,57.895 100.038 C 56.987 100.931,55.636 102.252,54.895 102.972 C 54.153 103.693,53.355 104.562,53.121 104.904 C 51.645 107.061,50.680 108.606,50.425 109.219 C 50.263 109.607,49.597 110.794,48.945 111.857 C 48.292 112.920,47.758 113.867,47.758 113.960 C 47.758 114.054,47.584 114.317,47.370 114.546 C 47.157 114.775,46.736 115.461,46.435 116.071 C 46.134 116.680,45.583 117.599,45.211 118.113 C 44.838 118.626,44.534 119.163,44.534 119.306 C 44.534 119.449,44.398 119.715,44.232 119.899 C 44.066 120.082,43.721 120.633,43.465 121.124 C 42.262 123.426,38.869 129.174,38.062 130.277 C 37.738 130.720,37.236 131.537,36.947 132.091 C 36.658 132.645,36.116 133.561,35.742 134.127 C 35.369 134.692,35.063 135.264,35.063 135.397 C 35.063 135.683,33.012 139.282,32.353 140.151 C 32.101 140.484,31.607 141.300,31.254 141.965 C 30.901 142.630,30.285 143.718,29.886 144.383 C 28.555 146.597,28.223 147.191,27.238 149.118 C 26.059 151.425,25.730 152.007,24.425 154.089 C 23.870 154.974,23.135 156.235,22.790 156.892 C 22.445 157.548,22.083 158.222,21.985 158.388 C 20.826 160.359,20.554 160.868,20.554 161.071 C 20.553 161.202,20.235 161.837,19.846 162.482 C 19.457 163.127,18.969 164.125,18.762 164.699 C 18.110 166.500,17.577 168.131,17.365 168.967 C 17.252 169.411,17.064 170.143,16.945 170.595 C 16.002 174.199,17.624 181.493,19.945 184.081 C 20.144 184.302,20.364 184.675,20.435 184.910 C 20.654 185.633,24.302 188.891,26.004 189.884 C 27.337 190.661,31.290 191.905,33.249 192.164 C 34.851 192.375,83.706 192.427,87.657 192.222 C 95.889 191.794,99.816 188.601,101.762 180.756 C 102.588 177.426,101.604 172.078,99.841 170.315 C 99.568 170.042,99.345 169.709,99.345 169.574 C 99.345 168.596,95.313 165.832,92.581 164.937 L 90.431 164.233 73.075 164.226 C 54.529 164.219,54.408 164.214,54.408 163.574 C 54.408 163.103,55.648 160.787,56.362 159.925 C 56.626 159.607,56.972 159.063,57.132 158.716 C 57.292 158.369,57.509 157.950,57.614 157.783 C 58.250 156.780,60.050 153.593,60.050 153.470 C 60.050 153.389,60.268 153.035,60.534 152.682 C 60.800 152.329,61.487 151.088,62.059 149.924 C 62.632 148.761,63.275 147.621,63.490 147.393 C 63.704 147.164,63.879 146.883,63.879 146.769 C 63.879 146.655,64.514 145.581,65.290 144.383 C 66.065 143.185,66.701 142.105,66.702 141.984 C 66.703 141.862,67.015 141.372,67.395 140.894 C 67.775 140.417,68.124 139.918,68.171 139.786 C 68.439 139.038,68.518 140.676,68.623 149.232 C 68.721 157.184,68.787 158.738,69.037 158.992 C 69.292 159.252,70.817 159.302,79.856 159.347 C 91.177 159.404,91.847 159.457,94.408 160.509 C 95.073 160.782,95.791 161.006,96.004 161.007 C 96.914 161.009,100.084 163.155,101.896 164.996 C 104.002 167.136,105.653 170.247,106.096 172.910 C 106.177 173.401,106.364 174.037,106.510 174.322 C 106.958 175.200,107.092 179.046,106.722 180.431 C 106.548 181.083,106.302 182.395,106.175 183.347 C 105.838 185.879,103.734 189.917,102.170 191.030 C 101.485 191.518,101.392 191.942,101.914 192.200 C 102.528 192.503,132.912 192.362,133.283 192.055 C 133.625 191.770,133.677 191.865,132.039 189.760 C 131.052 188.493,129.564 185.271,129.228 183.678 C 129.065 182.902,128.838 181.904,128.723 181.461 C 127.960 178.506,128.697 171.755,129.958 170.152 C 130.189 169.858,130.378 169.506,130.378 169.369 C 130.378 168.533,134.094 164.041,135.348 163.361 C 135.552 163.251,136.013 162.905,136.374 162.593 C 137.622 161.514,140.584 160.259,142.670 159.926 C 146.136 159.373,146.717 159.350,156.373 159.382 C 164.183 159.409,166.014 159.364,166.319 159.140 C 166.739 158.832,166.721 159.822,166.536 147.233 C 166.480 143.480,166.489 140.238,166.556 140.029 C 166.672 139.664,167.254 139.477,167.254 139.804 C 167.254 139.891,167.766 140.820,168.392 141.870 C 169.017 142.919,170.256 145.048,171.146 146.599 C 172.036 148.151,172.969 149.693,173.219 150.026 C 173.470 150.359,174.212 151.584,174.868 152.747 C 175.524 153.910,176.400 155.451,176.814 156.171 C 177.228 156.892,177.751 157.884,177.975 158.376 C 178.199 158.868,178.725 159.730,179.143 160.291 C 179.561 160.851,180.072 161.616,180.279 161.990 C 181.239 163.727,181.207 163.629,180.930 163.963 C 180.703 164.235,180.181 164.261,177.034 164.156 C 175.036 164.089,166.917 164.111,158.992 164.205 L 144.584 164.374 142.569 165.043 C 138.174 166.503,135.735 168.801,134.131 172.997 C 133.287 175.205,133.100 180.731,133.803 182.701 C 134.034 183.349,134.314 184.174,134.426 184.534 C 134.919 186.128,137.019 188.542,138.942 189.727 C 139.275 189.932,139.728 190.258,139.950 190.451 C 140.414 190.855,141.566 191.309,143.577 191.880 C 144.954 192.271,145.668 192.281,173.401 192.293 C 203.641 192.305,204.453 192.281,205.790 191.345 C 206.035 191.173,206.393 191.033,206.586 191.033 C 207.807 191.033,212.183 188.085,213.984 186.049 C 215.506 184.329,217.229 181.343,217.229 180.427 C 217.229 180.178,217.320 179.917,217.431 179.849 C 217.542 179.780,217.633 179.480,217.635 179.182 C 217.636 178.884,217.808 178.096,218.016 177.431 C 218.526 175.804,218.704 173.504,218.454 171.788 C 217.985 168.575,217.587 166.884,217.021 165.705 C 216.692 165.020,216.423 164.284,216.423 164.070 C 216.423 163.856,216.254 163.465,216.047 163.201 C 215.841 162.937,215.428 162.267,215.130 161.713 C 214.832 161.159,214.181 160.071,213.683 159.295 C 213.186 158.519,212.720 157.748,212.649 157.582 C 212.577 157.416,211.629 155.715,210.541 153.803 C 209.454 151.891,208.564 150.258,208.564 150.175 C 208.564 150.092,208.247 149.577,207.859 149.032 C 207.471 148.486,207.154 147.950,207.154 147.839 C 207.154 147.729,207.027 147.496,206.872 147.321 C 206.717 147.146,206.279 146.411,205.898 145.688 C 205.517 144.965,204.983 144.013,204.713 143.572 C 203.940 142.314,203.572 141.646,202.996 140.453 C 202.439 139.300,201.376 137.441,200.570 136.211 C 200.312 135.817,200.101 135.396,200.101 135.275 C 200.101 135.011,198.010 131.651,197.492 131.083 C 197.290 130.861,197.059 130.453,196.978 130.176 C 196.797 129.553,195.754 127.669,195.127 126.832 C 194.870 126.489,194.660 126.064,194.660 125.887 C 194.660 125.710,194.571 125.511,194.463 125.444 C 194.355 125.377,193.933 124.714,193.524 123.971 C 192.397 121.920,191.394 120.247,191.023 119.798 C 190.495 119.160,188.287 115.362,187.606 113.921 C 187.265 113.199,186.604 112.007,186.138 111.272 C 185.168 109.742,185.102 109.638,184.282 108.336 C 181.457 103.851,176.048 98.338,172.193 96.013 C 171.819 95.788,171.349 95.461,171.147 95.286 C 170.946 95.112,170.101 94.577,169.270 94.098 C 168.438 93.620,167.577 93.071,167.355 92.879 C 167.002 92.574,164.664 91.404,161.814 90.107 C 161.315 89.880,160.272 89.500,159.496 89.262 C 158.720 89.024,157.678 88.658,157.179 88.449 C 155.004 87.536,150.345 86.318,147.204 85.842 C 140.760 84.866,139.594 84.721,135.767 84.416 C 132.482 84.155,108.462 84.043,103.514 84.265 M126.885 138.086 C 127.281 138.630,127.087 188.365,126.687 188.764 C 126.291 189.159,109.357 189.214,108.627 188.822 C 108.142 188.563,108.060 184.210,108.182 165.239 C 108.200 162.413,108.207 155.184,108.197 149.175 C 108.188 143.166,108.238 138.156,108.308 138.042 C 108.510 137.715,126.646 137.758,126.885 138.086 M114.358 142.632 C 113.804 142.666,113.275 142.768,113.183 142.859 C 112.906 143.133,112.987 183.562,113.265 183.898 C 113.534 184.221,121.615 184.081,122.043 183.745 C 122.420 183.449,122.277 143.348,121.898 142.975 C 121.613 142.696,116.834 142.478,114.358 142.632 M-0.000 202.217 L 0.000 207.154 12.544 207.156 C 182.676 207.181,295.020 207.120,295.424 207.001 C 298.646 206.059,299.710 202.719,297.872 199.321 C 297.576 198.774,296.075 197.862,295.001 197.577 C 294.049 197.324,274.482 197.285,146.952 197.283 L -0.000 197.281 -0.000 202.217 M72.385 212.191 C 68.414 212.313,68.729 211.978,68.695 216.121 C 68.680 217.894,68.637 221.992,68.599 225.227 C 68.532 231.005,68.634 232.846,69.023 232.846 C 69.131 232.846,69.990 232.033,70.932 231.039 C 76.258 225.420,80.626 223.212,87.758 222.535 C 95.547 221.794,102.577 223.140,106.724 226.166 C 112.129 230.110,116.263 235.465,116.959 239.426 C 117.200 240.791,118.489 240.784,118.489 239.417 C 118.489 238.713,121.258 233.684,122.382 232.349 C 122.679 231.996,122.922 231.644,122.922 231.567 C 122.922 229.995,131.136 224.730,135.214 223.687 C 135.713 223.560,136.458 223.326,136.869 223.168 C 139.109 222.308,149.297 222.353,150.868 223.230 C 151.110 223.366,151.484 223.476,151.699 223.476 C 152.207 223.476,154.975 224.381,155.931 224.860 C 156.340 225.065,156.916 225.290,157.210 225.361 C 158.779 225.737,164.028 229.947,164.777 231.430 C 165.699 233.254,167.172 233.362,166.635 231.566 C 166.490 231.081,166.447 229.082,166.508 225.693 C 166.686 215.753,166.671 212.535,166.446 212.309 C 166.223 212.087,79.334 211.978,72.385 212.191 M88.463 227.290 C 87.078 227.478,85.689 227.739,85.377 227.871 C 85.065 228.003,84.691 228.111,84.545 228.111 C 82.797 228.111,77.082 231.389,75.512 233.292 C 75.075 233.823,74.644 234.302,74.556 234.358 C 73.906 234.767,71.087 239.682,70.719 241.049 C 70.592 241.523,70.315 242.153,70.104 242.448 C 69.715 242.995,69.304 244.850,68.928 247.758 C 68.669 249.769,68.649 259.065,68.766 323.829 C 68.865 378.536,68.839 377.017,69.748 380.050 C 70.348 382.052,72.078 386.236,72.539 386.801 C 72.720 387.023,73.105 387.567,73.394 388.010 C 74.775 390.126,77.654 392.420,80.705 393.835 C 83.134 394.961,83.545 395.123,84.534 395.340 C 91.699 396.910,99.222 395.779,104.360 392.360 C 104.957 391.962,105.756 391.446,106.135 391.213 C 107.819 390.177,110.450 386.604,111.610 383.778 C 111.973 382.892,112.388 381.894,112.531 381.562 C 112.674 381.229,112.993 380.050,113.241 378.942 C 113.489 377.834,113.792 376.564,113.915 376.121 C 114.195 375.112,114.295 250.133,114.018 247.355 C 113.918 246.358,113.760 245.360,113.666 245.139 C 113.572 244.917,113.313 244.101,113.090 243.325 C 112.370 240.816,111.737 239.354,110.467 237.266 C 110.058 236.593,109.542 235.741,109.320 235.371 C 107.549 232.420,103.051 229.339,98.741 228.123 C 96.926 227.611,92.005 226.831,91.189 226.926 C 91.075 226.939,89.849 227.103,88.463 227.290 M138.136 228.008 C 133.675 228.944,131.009 230.320,128.321 233.074 C 127.578 233.835,126.878 234.549,126.765 234.660 C 125.930 235.484,124.080 238.202,123.841 238.955 C 123.761 239.206,123.478 239.793,123.211 240.259 C 122.944 240.726,122.724 241.298,122.723 241.529 C 122.721 241.761,122.528 242.668,122.294 243.545 C 120.962 248.519,121.082 241.713,121.079 312.645 C 121.078 357.048,121.142 376.831,121.292 377.531 C 121.409 378.086,121.697 379.219,121.930 380.050 C 122.163 380.882,122.422 381.834,122.506 382.166 C 123.201 384.921,127.871 391.409,129.977 392.544 C 130.285 392.710,131.141 393.197,131.878 393.625 C 136.513 396.317,147.068 397.228,150.932 395.270 C 151.209 395.129,151.798 394.950,152.242 394.872 C 155.633 394.275,160.586 390.066,163.033 385.703 C 163.316 385.199,163.781 384.449,164.067 384.037 C 164.353 383.625,164.650 382.954,164.726 382.547 C 164.803 382.139,164.984 381.614,165.128 381.381 C 166.010 379.960,166.442 376.186,166.469 369.673 C 166.482 366.569,166.495 363.758,166.498 363.426 C 166.503 362.956,166.481 336.424,166.475 335.113 C 166.474 334.947,166.462 332.363,166.447 329.370 C 166.423 324.364,166.422 321.685,166.439 308.111 C 166.443 305.506,166.432 298.887,166.416 293.401 C 166.400 287.914,166.410 283.108,166.438 282.720 C 166.504 281.794,166.500 283.057,166.487 267.506 C 166.482 259.970,166.477 253.668,166.478 253.501 C 166.493 249.871,165.884 244.536,165.326 243.417 C 165.186 243.135,164.966 242.319,164.838 241.604 C 164.710 240.888,164.456 240.076,164.273 239.798 C 164.090 239.521,163.741 238.870,163.497 238.351 C 162.974 237.238,161.580 235.103,160.899 234.371 C 159.622 233.000,158.475 231.940,158.270 231.940 C 158.144 231.940,157.616 231.565,157.096 231.107 C 153.508 227.949,145.025 226.562,138.136 228.008 " stroke="none" fill="#fa7a06" fill-rule="evenodd"></path><path id="path1" d="M337.632 1.988 C 333.987 2.696,330.413 4.109,325.945 6.607 C 319.491 10.216,312.187 18.501,310.326 24.324 C 309.697 26.291,309.301 27.291,309.025 27.607 C 308.880 27.773,308.717 28.227,308.664 28.615 C 308.548 29.448,307.982 31.846,307.665 32.846 C 307.308 33.972,307.433 43.858,307.825 45.521 C 307.997 46.253,308.222 47.305,308.325 47.859 C 308.767 50.249,308.951 50.919,309.645 52.664 C 310.048 53.679,310.455 54.606,310.549 54.725 C 310.643 54.844,311.315 56.113,312.043 57.546 C 313.443 60.306,314.099 61.318,315.937 63.557 C 318.130 66.231,323.121 70.617,324.444 71.036 C 324.715 71.121,325.047 71.348,325.182 71.540 C 325.492 71.979,330.243 74.358,330.811 74.358 C 331.044 74.358,331.739 74.581,332.355 74.853 C 336.225 76.565,345.150 77.682,349.470 76.996 C 360.760 75.202,369.446 70.204,375.555 61.985 C 377.458 59.425,380.856 52.796,380.856 51.644 C 380.856 51.464,381.120 50.720,381.441 49.991 C 381.879 49.000,382.089 48.080,382.274 46.348 C 382.411 45.073,382.595 43.888,382.685 43.714 C 383.371 42.376,382.810 32.950,381.853 29.723 C 381.623 28.947,381.300 27.779,381.135 27.127 C 380.971 26.475,380.626 25.522,380.370 25.011 C 380.114 24.499,379.801 23.763,379.676 23.375 C 378.227 18.901,370.626 10.292,365.441 7.253 C 364.665 6.798,363.894 6.340,363.728 6.233 C 363.562 6.127,363.063 5.872,362.620 5.667 C 362.176 5.461,361.318 5.000,360.713 4.642 C 359.497 3.922,357.033 3.064,353.955 2.287 C 351.204 1.592,340.659 1.399,337.632 1.988 M331.387 25.906 C 333.485 27.135,334.210 28.678,333.625 30.673 C 332.665 33.947,328.445 34.619,326.535 31.803 C 324.222 28.391,327.932 23.881,331.387 25.906 M343.531 84.345 C 343.469 84.407,342.524 84.495,341.432 84.540 C 337.564 84.700,333.090 85.757,329.975 87.248 C 329.088 87.672,327.645 88.357,326.768 88.770 C 323.852 90.143,322.200 91.424,319.077 94.733 C 313.616 100.518,310.103 107.881,308.896 116.071 C 308.388 119.517,308.241 150.852,308.729 151.763 C 308.836 151.964,309.570 152.453,310.360 152.849 C 311.149 153.245,312.461 153.973,313.274 154.467 C 314.088 154.961,314.825 155.365,314.911 155.365 C 314.998 155.365,315.521 155.666,316.073 156.033 C 316.626 156.400,317.713 157.050,318.489 157.477 C 319.264 157.904,320.171 158.455,320.504 158.702 C 320.836 158.949,321.924 159.573,322.922 160.090 C 323.919 160.606,325.552 161.521,326.549 162.124 C 327.547 162.726,328.635 163.362,328.967 163.536 C 330.030 164.093,330.467 164.361,330.830 164.677 C 331.562 165.314,335.553 167.478,335.880 167.415 C 336.312 167.332,336.346 163.650,336.295 122.519 C 336.284 113.367,336.467 111.013,337.341 109.094 C 337.557 108.621,337.733 108.136,337.733 108.017 C 337.733 107.792,339.383 104.544,340.297 102.972 C 341.595 100.738,345.390 97.861,348.312 96.897 C 352.566 95.492,352.516 95.501,356.382 95.504 C 359.473 95.507,360.210 95.568,361.295 95.915 C 361.997 96.139,362.680 96.322,362.814 96.322 C 363.178 96.322,365.891 97.544,367.178 98.288 C 367.801 98.648,368.378 98.942,368.461 98.942 C 369.562 98.942,373.492 104.563,374.519 107.607 C 374.725 108.217,374.998 108.851,375.125 109.018 C 376.065 110.243,376.082 111.090,376.064 154.861 C 376.046 198.306,376.022 199.524,375.132 201.286 C 374.986 201.576,374.663 202.448,374.414 203.224 C 371.229 213.167,360.198 220.489,350.825 218.882 C 350.049 218.749,349.037 218.640,348.578 218.640 C 346.774 218.640,340.295 216.353,337.874 214.862 C 337.453 214.603,336.909 214.299,336.665 214.187 C 336.421 214.076,335.859 213.765,335.416 213.498 C 334.972 213.230,334.065 212.724,333.401 212.373 C 332.736 212.022,331.935 211.520,331.622 211.258 C 331.309 210.996,330.950 210.781,330.825 210.781 C 330.701 210.781,329.384 210.078,327.900 209.219 C 326.416 208.360,324.961 207.532,324.666 207.380 C 323.535 206.793,320.283 204.853,319.899 204.537 C 319.441 204.158,314.872 201.549,313.652 200.968 C 312.341 200.344,310.012 198.938,309.732 198.600 C 309.419 198.223,308.831 198.192,308.589 198.539 C 308.372 198.850,308.375 224.909,308.593 225.916 C 308.723 226.520,308.686 226.673,308.380 226.813 C 308.176 226.905,294.725 227.000,278.489 227.022 C 249.882 227.062,248.886 227.076,246.348 227.474 C 241.763 228.192,241.121 228.310,240.504 228.541 C 240.171 228.665,239.491 228.836,238.992 228.920 C 237.111 229.238,232.857 231.036,230.986 232.304 C 230.347 232.738,229.333 233.341,228.733 233.645 C 226.271 234.890,220.943 239.936,219.790 242.116 C 219.614 242.448,219.141 243.083,218.739 243.526 C 218.337 243.970,217.740 244.786,217.411 245.340 C 217.082 245.894,216.732 246.484,216.634 246.650 C 215.856 247.962,214.128 251.972,213.595 253.703 C 213.236 254.866,212.830 256.045,212.691 256.322 C 212.553 256.599,212.329 257.370,212.194 258.035 C 211.802 259.969,211.426 261.585,211.112 262.689 C 210.514 264.791,210.350 275.026,210.383 308.212 C 210.427 353.526,210.545 375.915,210.745 377.330 C 211.412 382.045,213.435 386.685,216.247 389.948 C 217.418 391.306,221.902 394.358,222.727 394.358 C 222.815 394.358,223.134 394.535,223.434 394.751 C 226.211 396.750,239.143 396.839,242.317 394.880 C 242.539 394.743,243.115 394.476,243.597 394.286 C 247.395 392.793,252.217 387.977,253.511 384.383 C 253.711 383.829,254.049 382.922,254.262 382.368 C 254.475 381.814,254.700 381.224,254.762 381.058 C 254.824 380.892,255.087 379.940,255.347 378.942 L 255.819 377.128 255.867 325.239 C 255.893 296.700,255.939 273.217,255.969 273.055 C 256.016 272.798,261.711 272.757,301.059 272.731 L 346.096 272.701 347.786 272.270 C 348.715 272.033,349.881 271.839,350.376 271.839 C 351.913 271.839,357.609 270.162,359.839 269.053 C 367.412 265.288,372.678 260.642,376.322 254.509 C 376.655 253.950,377.351 252.828,377.869 252.016 C 378.387 251.204,379.046 249.959,379.335 249.250 C 379.623 248.540,379.947 247.803,380.055 247.611 C 380.385 247.022,381.058 245.157,381.058 244.829 C 381.058 244.659,381.286 243.843,381.564 243.016 C 382.041 241.597,382.716 238.780,383.395 235.365 C 383.760 233.530,383.846 117.687,383.484 115.668 C 383.374 115.058,383.148 113.970,382.981 113.249 C 382.814 112.529,382.578 111.441,382.458 110.831 C 382.337 110.222,382.139 109.542,382.018 109.321 C 381.897 109.099,381.591 108.165,381.338 107.244 C 380.756 105.129,378.374 100.378,377.000 98.592 C 374.306 95.090,371.223 91.836,369.549 90.727 C 369.259 90.535,368.642 90.125,368.179 89.815 C 367.715 89.505,367.132 89.175,366.883 89.080 C 366.633 88.985,365.391 88.405,364.122 87.791 C 359.956 85.775,356.152 84.793,351.134 84.436 C 348.053 84.217,343.711 84.165,343.531 84.345 M391.436 84.557 C 390.450 84.926,389.676 85.644,388.968 86.847 L 388.432 87.758 388.419 160.605 C 388.412 200.670,388.335 233.564,388.248 233.701 C 388.160 233.839,387.960 235.290,387.803 236.925 C 387.231 242.868,385.966 247.670,383.941 251.587 C 383.540 252.363,382.839 253.723,382.384 254.610 C 379.239 260.735,373.393 266.331,365.441 270.826 C 362.040 272.748,354.572 275.419,351.335 275.872 C 350.670 275.964,348.856 276.291,347.305 276.598 L 344.484 277.156 304.282 277.268 C 270.755 277.362,263.964 277.427,263.375 277.659 C 259.350 279.247,259.736 285.701,263.945 287.194 C 265.251 287.657,345.388 287.571,348.268 287.103 C 349.463 286.909,350.849 286.751,351.349 286.751 C 352.133 286.751,356.543 285.919,358.690 285.366 C 359.530 285.149,364.767 283.236,365.673 282.814 C 366.022 282.652,366.434 282.519,366.589 282.519 C 366.948 282.519,370.718 280.632,371.385 280.119 C 371.662 279.906,372.660 279.237,373.602 278.632 C 380.636 274.117,389.672 263.703,391.646 257.834 C 391.833 257.280,392.115 256.619,392.274 256.366 C 392.433 256.112,392.881 255.070,393.270 254.048 C 393.659 253.027,394.104 251.997,394.259 251.759 C 394.558 251.300,395.428 248.512,395.864 246.617 C 396.008 245.989,396.196 245.362,396.281 245.224 C 396.491 244.885,396.952 242.809,397.173 241.209 C 397.273 240.489,397.457 239.310,397.583 238.589 C 398.498 233.340,398.464 236.204,398.530 159.725 L 398.591 87.814 397.863 86.616 C 396.562 84.474,393.920 83.627,391.436 84.557 M353.955 100.356 C 347.550 100.991,342.217 106.423,341.398 113.149 C 341.277 114.141,341.212 126.451,341.230 145.156 C 341.263 179.220,341.410 176.345,339.685 175.446 C 337.981 174.559,336.341 173.601,336.082 173.341 C 335.948 173.207,335.756 173.098,335.655 173.098 C 335.482 173.098,332.819 171.563,331.285 170.577 C 330.897 170.328,329.990 169.810,329.270 169.426 C 328.549 169.041,326.523 167.897,324.766 166.882 C 323.010 165.868,321.533 165.038,321.483 165.038 C 321.434 165.038,320.902 164.675,320.302 164.232 C 319.702 163.788,319.165 163.426,319.108 163.426 C 319.051 163.426,318.252 162.981,317.333 162.438 C 316.413 161.895,314.755 160.980,313.649 160.404 C 312.542 159.829,310.912 158.881,310.025 158.299 C 308.054 157.003,301.818 153.414,299.345 152.152 C 298.348 151.643,297.033 150.896,296.423 150.493 C 283.632 142.022,275.272 142.002,269.792 150.428 C 268.039 153.124,267.927 153.353,267.086 155.970 C 265.737 160.167,267.543 166.368,271.089 169.717 C 272.316 170.876,275.365 172.936,277.683 174.172 C 278.292 174.497,279.154 175.013,279.597 175.318 C 281.539 176.653,286.066 179.344,288.564 180.647 C 289.174 180.965,289.916 181.426,290.213 181.671 C 290.510 181.916,291.145 182.315,291.623 182.557 C 292.598 183.050,292.945 183.252,295.844 185.003 C 296.967 185.681,298.622 186.619,299.522 187.087 C 301.872 188.308,304.441 189.791,305.491 190.532 C 306.569 191.292,310.240 193.451,310.456 193.451 C 310.539 193.451,311.246 193.834,312.029 194.302 C 313.814 195.370,314.264 195.628,315.599 196.350 C 316.191 196.670,317.153 197.237,317.737 197.609 C 318.321 197.982,318.871 198.287,318.960 198.287 C 319.049 198.287,319.614 198.659,320.215 199.114 C 320.817 199.568,321.990 200.276,322.821 200.687 C 325.302 201.913,330.188 204.682,330.882 205.256 C 331.214 205.531,335.458 207.960,335.606 207.960 C 335.656 207.960,336.101 208.232,336.593 208.564 C 337.086 208.897,337.568 209.169,337.665 209.169 C 337.762 209.169,338.157 209.383,338.543 209.645 C 352.122 218.852,367.928 213.208,370.911 198.086 C 371.218 196.531,371.365 114.410,371.064 112.651 C 369.630 104.261,362.954 99.464,353.955 100.356 M239.900 105.103 C 238.908 105.621,238.614 105.995,238.475 106.920 C 238.217 108.644,238.701 109.158,242.720 111.424 C 243.718 111.987,245.169 112.818,245.945 113.271 C 246.720 113.724,247.990 114.422,248.766 114.821 C 250.724 115.830,255.893 118.829,256.625 119.382 C 257.294 119.888,259.150 120.907,259.402 120.907 C 259.491 120.907,259.809 121.077,260.109 121.286 C 260.409 121.494,261.652 122.228,262.872 122.916 C 264.091 123.604,265.406 124.352,265.793 124.578 C 268.153 125.951,269.036 126.483,270.025 127.129 C 271.346 127.992,271.785 128.240,274.156 129.461 C 275.154 129.975,276.831 130.931,277.884 131.586 C 278.937 132.241,280.158 132.975,280.598 133.216 C 281.038 133.458,281.628 133.814,281.908 134.008 C 282.739 134.583,287.413 137.273,289.975 138.650 C 290.806 139.096,292.212 139.912,293.098 140.462 C 293.985 141.012,295.436 141.877,296.322 142.384 C 297.209 142.892,298.297 143.526,298.741 143.794 C 301.510 145.468,303.738 145.003,304.177 142.661 C 304.455 141.182,303.467 140.021,300.742 138.623 C 298.251 137.344,290.366 132.818,289.874 132.384 C 289.431 131.994,289.082 131.793,285.239 129.720 C 283.798 128.943,282.304 128.093,281.918 127.831 C 281.532 127.569,281.149 127.355,281.066 127.355 C 280.984 127.355,280.333 126.970,279.620 126.499 C 278.907 126.028,278.020 125.465,277.650 125.248 C 277.280 125.031,276.569 124.612,276.071 124.318 C 273.367 122.720,270.566 121.143,269.311 120.512 C 268.530 120.120,267.578 119.561,267.195 119.272 C 266.812 118.982,266.000 118.474,265.390 118.143 C 264.781 117.813,263.511 117.088,262.569 116.532 C 261.627 115.977,259.995 115.063,258.942 114.502 C 256.726 113.320,252.326 110.788,250.598 109.701 C 249.944 109.289,248.856 108.658,248.180 108.299 C 247.505 107.939,245.820 107.002,244.435 106.216 C 241.740 104.685,241.035 104.512,239.900 105.103 " stroke="none" fill="#0683cb" fill-rule="evenodd"></path></g></svg>