<svg id="svg" version="1.1" xmlns="http://www.w3.org/2000/svg" xmlns:xlink="http://www.w3.org/1999/xlink" width="400" height="397" viewBox="0, 0, 400,397"><g id="svgg"><path id="path0" d="M283.615 0.397 C 283.615 0.616,282.989 0.794,282.224 0.794 C 281.460 0.794,280.834 0.973,280.834 1.192 C 280.834 1.410,280.382 1.589,279.829 1.589 C 279.276 1.589,278.720 1.857,278.594 2.185 C 278.469 2.512,278.072 2.786,277.713 2.793 C 276.865 2.810,275.670 3.724,275.670 4.356 C 275.670 4.629,275.408 4.751,275.086 4.627 C 274.765 4.504,274.241 4.664,273.923 4.982 C 273.604 5.301,273.152 5.561,272.918 5.561 C 272.684 5.561,272.493 5.747,272.493 5.975 C 272.493 6.496,270.907 8.229,270.895 7.721 C 270.890 7.516,270.605 7.918,270.262 8.613 C 269.828 9.492,269.447 9.804,269.010 9.636 C 268.552 9.460,268.449 9.568,268.628 10.036 C 268.801 10.486,268.534 10.828,267.733 11.183 C 267.105 11.461,266.679 11.830,266.787 12.004 C 266.894 12.177,266.702 12.427,266.361 12.558 C 266.019 12.689,265.740 13.205,265.740 13.704 C 265.740 14.204,265.472 14.715,265.144 14.841 C 264.816 14.967,264.548 15.433,264.548 15.876 C 264.548 16.320,264.369 16.683,264.151 16.683 C 263.932 16.683,263.754 17.130,263.754 17.676 C 263.754 18.222,263.578 18.669,263.364 18.669 C 263.150 18.669,262.862 19.116,262.725 19.662 C 262.588 20.209,262.317 20.655,262.122 20.655 C 261.927 20.655,261.768 21.204,261.768 21.875 C 261.768 22.546,261.500 23.364,261.172 23.691 C 260.726 24.137,260.576 25.233,260.576 28.032 C 260.576 30.764,260.442 31.778,260.079 31.778 C 259.730 31.778,259.583 32.598,259.583 34.558 C 259.583 36.518,259.730 37.339,260.079 37.339 C 260.437 37.339,260.576 38.270,260.576 40.672 C 260.576 43.202,260.713 44.059,261.146 44.225 C 261.491 44.358,261.701 44.953,261.679 45.736 C 261.659 46.447,261.849 47.098,262.102 47.182 C 262.355 47.266,262.562 47.656,262.562 48.048 C 262.562 48.440,262.830 48.983,263.158 49.255 C 263.486 49.527,263.754 50.085,263.754 50.496 C 263.754 50.906,263.932 51.241,264.151 51.241 C 264.369 51.241,264.548 51.559,264.548 51.947 C 264.548 52.335,265.257 53.363,266.124 54.231 C 266.991 55.099,267.706 56.057,267.713 56.359 C 267.720 56.661,268.620 57.788,269.712 58.864 C 270.804 59.939,271.698 60.949,271.698 61.109 C 271.698 61.269,272.060 61.427,272.502 61.461 C 272.945 61.494,273.910 62.143,274.648 62.903 C 275.386 63.662,276.410 64.348,276.922 64.426 C 277.435 64.503,277.810 64.786,277.756 65.054 C 277.698 65.335,278.076 65.541,278.649 65.541 C 279.196 65.541,279.643 65.720,279.643 65.938 C 279.643 66.157,280.013 66.336,280.465 66.336 C 280.918 66.336,281.556 66.604,281.884 66.931 C 282.212 67.259,283.182 67.527,284.040 67.527 C 284.899 67.527,285.601 67.706,285.601 67.925 C 285.601 68.143,286.205 68.322,286.942 68.322 C 287.680 68.322,288.507 68.590,288.779 68.918 C 289.545 69.841,302.284 69.800,302.284 68.874 C 302.284 68.378,302.594 68.271,303.663 68.396 C 304.520 68.496,305.113 68.372,305.230 68.067 C 305.333 67.798,306.098 67.522,306.929 67.453 C 307.806 67.381,308.404 67.136,308.354 66.868 C 308.303 66.598,308.672 66.453,309.247 66.516 C 309.863 66.584,310.228 66.422,310.228 66.082 C 310.228 65.621,311.835 65.293,313.108 65.494 C 313.272 65.520,313.406 65.350,313.406 65.116 C 313.406 64.439,314.312 63.713,315.542 63.404 C 316.167 63.247,316.589 63.031,316.481 62.922 C 316.119 62.561,318.620 60.377,319.395 60.377 C 319.815 60.377,320.159 60.109,320.159 59.782 C 320.159 59.454,320.427 59.186,320.755 59.186 C 321.135 59.186,321.351 58.803,321.351 58.126 C 321.351 57.544,321.446 57.163,321.562 57.279 C 321.905 57.621,324.550 54.776,324.287 54.350 C 324.018 53.915,325.714 52.173,326.238 52.344 C 326.423 52.404,326.480 52.301,326.366 52.116 C 326.251 51.931,326.417 51.281,326.733 50.671 C 327.050 50.061,327.309 49.308,327.309 48.999 C 327.309 48.689,327.577 48.333,327.905 48.207 C 328.272 48.066,328.500 47.462,328.500 46.631 C 328.500 45.890,328.679 45.283,328.898 45.283 C 329.116 45.283,329.295 44.734,329.295 44.063 C 329.295 43.392,329.563 42.575,329.891 42.247 C 330.933 41.205,330.694 24.207,329.647 24.854 C 329.453 24.974,329.295 24.357,329.295 23.483 C 329.295 22.609,329.116 21.783,328.898 21.648 C 328.679 21.513,328.500 20.989,328.500 20.482 C 328.500 19.975,328.232 19.339,327.905 19.067 C 327.577 18.795,327.309 18.326,327.309 18.025 C 327.309 17.724,327.130 17.478,326.912 17.478 C 326.693 17.478,326.514 17.231,326.514 16.930 C 326.514 16.630,326.246 16.161,325.919 15.889 C 325.591 15.617,325.323 14.969,325.323 14.450 C 325.323 13.859,325.091 13.505,324.703 13.505 C 324.363 13.505,324.195 13.327,324.330 13.108 C 324.465 12.890,324.297 12.711,323.956 12.711 C 323.615 12.711,323.337 12.443,323.337 12.115 C 323.337 11.787,323.158 11.519,322.939 11.519 C 322.721 11.519,322.542 11.323,322.542 11.082 C 322.542 10.341,318.856 6.753,318.095 6.753 C 317.691 6.753,317.378 6.464,317.378 6.091 C 317.378 5.727,317.277 5.530,317.153 5.654 C 317.029 5.778,316.397 5.361,315.749 4.727 C 315.101 4.093,314.390 3.575,314.169 3.575 C 313.948 3.575,313.320 3.128,312.774 2.582 C 312.172 1.980,311.328 1.589,310.631 1.589 C 309.998 1.589,309.370 1.410,309.235 1.192 C 309.100 0.973,308.643 0.794,308.219 0.794 C 307.795 0.794,307.448 0.616,307.448 0.397 C 307.448 0.141,303.211 0.000,295.531 0.000 C 287.852 0.000,283.615 0.141,283.615 0.397 M90.705 11.142 C 90.475 11.372,89.903 11.589,89.434 11.624 C 88.964 11.659,88.580 11.919,88.580 12.200 C 88.580 12.520,88.056 12.711,87.177 12.711 C 86.297 12.711,85.689 12.933,85.546 13.307 C 85.420 13.635,84.989 13.903,84.589 13.903 C 84.188 13.903,83.750 14.081,83.615 14.300 C 83.480 14.518,83.044 14.697,82.647 14.697 C 82.250 14.697,81.711 14.955,81.450 15.269 C 81.188 15.584,80.720 15.744,80.408 15.624 C 80.079 15.498,79.841 15.646,79.841 15.978 C 79.841 16.292,79.394 16.788,78.848 17.080 C 78.302 17.373,77.855 17.754,77.855 17.928 C 77.855 18.398,75.564 20.655,75.088 20.655 C 74.862 20.655,74.677 20.893,74.677 21.184 C 74.677 21.475,74.230 21.952,73.684 22.244 C 73.138 22.537,72.691 23.005,72.691 23.285 C 72.691 23.565,72.467 23.937,72.194 24.111 C 71.921 24.286,71.453 24.965,71.155 25.621 C 70.857 26.276,70.454 27.080,70.259 27.408 C 70.065 27.736,69.804 28.272,69.680 28.600 C 69.557 28.928,69.290 29.506,69.087 29.885 C 68.885 30.265,68.719 30.851,68.719 31.189 C 68.719 31.526,68.489 31.891,68.207 31.999 C 67.925 32.107,67.651 32.772,67.598 33.476 C 67.545 34.180,67.329 34.816,67.117 34.889 C 66.586 35.072,66.599 54.419,67.130 54.419 C 67.349 54.419,67.527 54.866,67.527 55.412 C 67.527 56.030,67.752 56.405,68.123 56.405 C 68.517 56.405,68.719 56.799,68.719 57.565 C 68.719 58.735,69.857 61.165,70.407 61.169 C 70.571 61.171,70.705 61.553,70.705 62.020 C 70.705 62.486,71.152 63.282,71.698 63.789 C 72.244 64.295,72.691 64.989,72.691 65.332 C 72.691 66.050,79.313 72.545,79.886 72.388 C 80.096 72.331,80.725 72.778,81.285 73.381 C 81.867 74.009,82.626 74.425,83.058 74.354 C 83.474 74.286,83.813 74.407,83.813 74.623 C 83.813 75.211,86.157 76.266,87.462 76.266 C 88.111 76.266,88.704 76.523,88.834 76.862 C 88.973 77.226,89.575 77.458,90.377 77.458 C 91.100 77.458,91.751 77.631,91.824 77.842 C 92.016 78.398,108.974 78.440,109.159 77.885 C 109.237 77.650,110.002 77.458,110.857 77.458 C 111.975 77.458,112.413 77.290,112.413 76.862 C 112.413 76.446,112.832 76.266,113.803 76.266 C 114.568 76.266,115.194 76.087,115.194 75.869 C 115.194 75.650,115.434 75.472,115.728 75.472 C 116.606 75.472,118.904 74.211,119.851 73.210 C 120.337 72.696,120.828 72.279,120.943 72.284 C 121.781 72.322,121.958 72.188,122.167 71.355 C 122.305 70.805,122.678 70.435,123.068 70.461 C 123.434 70.486,124.136 70.104,124.628 69.613 C 125.119 69.121,125.408 68.719,125.269 68.719 C 125.130 68.719,125.490 68.347,126.067 67.893 C 126.645 67.438,127.034 66.931,126.931 66.765 C 126.829 66.599,127.358 65.854,128.107 65.109 C 128.856 64.363,129.474 63.441,129.481 63.059 C 129.488 62.676,129.791 62.363,130.156 62.363 C 130.520 62.363,130.707 62.253,130.572 62.118 C 130.436 61.982,130.585 61.612,130.903 61.295 C 131.220 60.977,131.480 60.392,131.480 59.994 C 131.480 59.596,131.726 59.176,132.026 59.061 C 132.371 58.929,132.502 58.478,132.380 57.842 C 132.262 57.225,132.436 56.584,132.826 56.193 C 133.178 55.842,133.466 55.031,133.466 54.391 C 133.466 53.751,133.638 53.227,133.848 53.227 C 134.078 53.227,134.276 49.746,134.345 44.488 C 134.433 37.701,134.348 35.749,133.962 35.749 C 133.659 35.750,133.466 35.205,133.466 34.347 C 133.466 33.467,133.244 32.859,132.870 32.716 C 132.534 32.587,132.274 31.995,132.274 31.361 C 132.274 30.742,132.095 30.125,131.877 29.990 C 131.658 29.855,131.480 29.392,131.480 28.961 C 131.480 28.530,131.204 28.072,130.867 27.943 C 130.530 27.813,130.283 27.417,130.317 27.061 C 130.435 25.837,130.285 25.548,129.295 25.097 C 128.749 24.848,128.302 24.356,128.302 24.004 C 128.302 23.209,126.911 21.385,126.567 21.728 C 126.429 21.866,126.316 21.682,126.316 21.317 C 126.316 20.953,126.018 20.655,125.654 20.655 C 125.290 20.655,125.096 20.551,125.223 20.424 C 125.525 20.122,124.072 18.669,123.469 18.669 C 123.214 18.669,123.110 18.565,123.237 18.438 C 123.520 18.155,122.104 16.683,121.549 16.683 C 121.331 16.683,121.152 16.508,121.152 16.294 C 121.152 16.079,120.705 15.792,120.159 15.655 C 119.613 15.518,119.166 15.246,119.166 15.051 C 119.166 14.856,118.803 14.697,118.359 14.697 C 117.915 14.697,117.447 14.424,117.319 14.089 C 117.168 13.696,116.812 13.569,116.310 13.728 C 115.758 13.903,115.479 13.759,115.340 13.227 C 115.185 12.635,114.860 12.512,113.783 12.638 C 112.795 12.753,112.354 12.622,112.176 12.158 C 112.041 11.807,111.603 11.519,111.202 11.519 C 110.802 11.519,110.363 11.341,110.228 11.122 C 109.885 10.567,91.260 10.587,90.705 11.142 M327.976 78.039 C 327.513 78.502,325.934 78.629,320.177 78.667 C 314.347 78.706,312.917 78.823,312.743 79.278 C 312.567 79.736,311.162 79.841,305.244 79.841 C 300.817 79.841,297.865 79.997,297.716 80.238 C 297.580 80.458,295.788 80.636,293.708 80.636 C 290.730 80.636,289.898 80.760,289.717 81.231 C 289.530 81.717,288.575 81.827,284.565 81.827 C 281.548 81.827,279.643 81.981,279.643 82.224 C 279.643 82.443,279.196 82.622,278.649 82.622 C 278.032 82.622,277.656 82.847,277.656 83.217 C 277.656 83.624,277.250 83.813,276.378 83.813 C 275.491 83.813,274.826 84.132,274.204 84.856 C 273.594 85.565,273.052 85.831,272.503 85.687 C 271.976 85.549,271.698 85.670,271.698 86.035 C 271.698 86.342,271.519 86.594,271.301 86.594 C 271.082 86.594,270.904 86.862,270.904 87.190 C 270.904 87.555,270.532 87.786,269.944 87.786 C 269.416 87.786,268.924 87.955,268.851 88.163 C 268.779 88.370,267.971 88.583,267.056 88.636 C 266.142 88.689,265.427 88.917,265.467 89.143 C 265.508 89.369,265.139 89.615,264.647 89.690 C 264.156 89.765,263.754 90.096,263.754 90.425 C 263.754 90.885,263.342 90.998,261.967 90.913 C 260.960 90.851,259.971 91.012,259.703 91.281 C 259.440 91.543,258.919 91.758,258.544 91.758 C 258.168 91.758,257.802 91.930,257.729 92.141 C 257.656 92.351,256.658 92.575,255.512 92.637 C 254.169 92.710,253.426 92.928,253.426 93.247 C 253.426 93.520,253.104 93.744,252.711 93.744 C 252.318 93.744,251.823 93.917,251.612 94.128 C 251.401 94.339,250.650 94.556,249.944 94.609 C 249.212 94.665,248.659 94.927,248.659 95.219 C 248.659 95.542,248.126 95.730,247.204 95.730 C 245.691 95.730,242.701 96.836,242.701 97.395 C 242.701 97.572,241.807 97.716,240.715 97.716 C 239.623 97.716,238.729 97.895,238.729 98.113 C 238.729 98.332,238.327 98.516,237.835 98.523 C 237.344 98.530,236.594 98.798,236.170 99.119 C 235.746 99.440,234.808 99.702,234.085 99.702 C 233.362 99.702,232.771 99.881,232.771 100.099 C 232.771 100.318,232.324 100.497,231.778 100.497 C 231.160 100.497,230.785 100.722,230.785 101.092 C 230.785 101.615,228.277 102.002,226.683 101.725 C 226.503 101.694,226.469 101.852,226.608 102.076 C 226.820 102.419,225.089 102.712,223.932 102.530 C 223.769 102.504,223.635 102.751,223.635 103.078 C 223.635 103.593,222.141 103.931,220.769 103.726 C 220.613 103.703,220.570 103.905,220.674 104.176 C 220.823 104.564,215.762 104.645,196.628 104.562 C 175.196 104.469,172.393 104.526,172.393 105.059 C 172.393 105.583,170.815 105.660,160.079 105.660 C 149.041 105.660,147.766 105.726,147.766 106.298 C 147.766 106.802,147.433 106.904,146.177 106.784 C 145.074 106.679,144.588 106.787,144.588 107.139 C 144.588 107.418,144.324 107.646,144.002 107.646 C 143.680 107.646,142.225 108.808,140.770 110.228 C 139.314 111.648,138.007 112.810,137.865 112.810 C 137.723 112.810,137.577 113.210,137.540 113.698 C 137.503 114.187,137.287 114.648,137.058 114.724 C 136.830 114.800,136.643 115.479,136.643 116.232 C 136.643 117.083,136.418 117.688,136.048 117.831 C 135.175 118.166,135.175 125.837,136.048 126.172 C 136.377 126.298,136.643 126.888,136.643 127.489 C 136.643 129.739,142.034 136.238,143.905 136.244 C 144.294 136.245,144.716 136.514,144.841 136.842 C 144.981 137.204,145.582 137.438,146.375 137.438 C 147.169 137.438,147.770 137.671,147.909 138.034 C 148.110 138.556,151.901 138.630,178.704 138.630 C 208.249 138.630,210.777 138.563,210.302 137.794 C 210.175 137.588,213.706 137.438,218.646 137.438 C 224.022 137.438,227.210 137.292,227.210 137.045 C 227.210 136.830,227.925 136.539,228.798 136.399 C 229.672 136.259,230.387 135.989,230.387 135.798 C 230.387 135.608,231.266 135.452,232.340 135.452 C 233.414 135.452,234.356 135.265,234.432 135.037 C 234.508 134.809,234.969 134.592,235.458 134.555 C 235.946 134.518,236.346 134.258,236.346 133.977 C 236.346 133.653,236.879 133.466,237.801 133.466 C 239.314 133.466,242.304 132.360,242.304 131.800 C 242.304 131.624,243.198 131.480,244.290 131.480 C 245.854 131.480,246.276 131.343,246.276 130.838 C 246.276 130.367,246.541 130.246,247.269 130.385 C 247.935 130.512,248.262 130.397,248.262 130.034 C 248.262 129.660,248.799 129.494,250.001 129.494 C 251.062 129.494,251.933 129.261,252.234 128.898 C 252.506 128.570,253.233 128.302,253.848 128.302 C 254.464 128.302,255.078 128.123,255.214 127.905 C 255.349 127.686,255.812 127.507,256.242 127.507 C 256.673 127.507,257.129 127.239,257.255 126.912 C 257.414 126.496,258.062 126.316,259.394 126.316 C 260.444 126.316,261.364 126.153,261.437 125.955 C 261.509 125.756,261.927 125.533,262.363 125.458 C 262.800 125.384,263.279 125.055,263.428 124.727 C 263.576 124.399,263.710 125.506,263.726 127.186 C 263.741 128.866,263.932 130.352,264.151 130.487 C 264.377 130.626,264.548 132.609,264.548 135.078 C 264.548 138.676,264.651 139.424,265.144 139.424 C 265.653 139.424,265.740 140.527,265.740 146.971 C 265.740 153.616,265.816 154.518,266.374 154.518 C 266.923 154.518,266.990 155.085,266.873 158.756 C 266.773 161.881,266.867 163.037,267.232 163.159 C 267.603 163.282,267.726 165.194,267.726 170.814 C 267.726 175.379,267.881 178.401,268.123 178.550 C 268.342 178.685,268.520 180.449,268.520 182.470 C 268.520 185.086,268.688 186.366,269.104 186.915 C 269.558 187.515,269.690 189.071,269.699 193.942 C 269.707 197.840,269.862 200.199,270.109 200.199 C 270.356 200.199,270.506 202.396,270.506 205.998 C 270.506 210.396,270.654 212.108,271.118 213.085 C 271.830 214.586,271.804 221.900,271.087 221.776 C 270.861 221.737,270.636 222.184,270.587 222.769 C 270.539 223.354,270.322 223.893,270.106 223.966 C 269.889 224.038,269.712 224.421,269.712 224.817 C 269.712 225.212,269.444 225.639,269.116 225.764 C 268.788 225.890,268.520 226.341,268.520 226.767 C 268.520 227.192,268.349 227.600,268.141 227.673 C 267.932 227.746,267.716 228.476,267.662 229.295 C 267.608 230.114,267.409 230.785,267.219 230.785 C 266.456 230.785,265.740 231.997,265.740 233.289 C 265.740 234.043,265.472 234.882,265.144 235.154 C 264.816 235.426,264.548 235.895,264.548 236.196 C 264.548 236.497,264.369 236.743,264.151 236.743 C 263.932 236.743,263.754 237.171,263.754 237.693 C 263.754 238.216,263.486 238.747,263.158 238.873 C 262.784 239.016,262.562 239.623,262.562 240.504 C 262.562 241.438,262.377 241.907,262.009 241.907 C 261.445 241.907,260.887 242.817,260.789 243.893 C 260.695 244.941,260.136 246.276,259.792 246.276 C 259.609 246.276,259.546 246.609,259.652 247.016 C 259.760 247.430,259.603 247.848,259.295 247.967 C 258.993 248.083,258.494 248.956,258.188 249.908 C 257.882 250.860,257.400 251.781,257.118 251.956 C 256.835 252.131,256.604 252.801,256.604 253.446 C 256.604 254.090,256.439 254.618,256.238 254.618 C 256.037 254.618,255.755 255.154,255.611 255.809 C 255.467 256.465,255.184 257.001,254.983 257.001 C 254.782 257.001,254.618 257.337,254.618 257.747 C 254.618 258.157,254.350 258.715,254.022 258.987 C 253.694 259.259,253.426 259.817,253.426 260.227 C 253.426 260.638,253.247 260.973,253.029 260.973 C 252.810 260.973,252.632 261.309,252.632 261.719 C 252.632 262.129,252.363 262.687,252.036 262.959 C 251.708 263.231,251.440 264.068,251.440 264.819 C 251.440 265.628,251.278 266.084,251.043 265.938 C 250.824 265.803,250.645 265.972,250.645 266.312 C 250.645 266.653,250.389 266.931,250.076 266.931 C 249.704 266.931,249.518 267.334,249.540 268.093 C 249.580 269.496,248.365 272.206,247.842 271.883 C 247.636 271.755,247.468 272.209,247.468 272.890 C 247.468 273.614,247.303 274.026,247.071 273.883 C 246.831 273.735,246.673 274.276,246.673 275.250 C 246.673 276.418,246.509 276.862,246.077 276.862 C 245.707 276.862,245.482 277.237,245.482 277.855 C 245.482 278.401,245.303 278.848,245.084 278.848 C 244.860 278.848,244.687 279.974,244.687 281.430 C 244.687 283.230,244.543 283.982,244.210 283.913 C 243.891 283.846,243.770 284.307,243.843 285.304 C 243.922 286.367,243.774 286.863,243.327 287.034 C 242.847 287.219,242.701 287.871,242.701 289.842 C 242.701 291.595,242.512 292.599,242.105 293.006 C 241.778 293.334,241.509 294.125,241.509 294.765 C 241.509 295.405,241.331 295.929,241.112 295.929 C 240.892 295.929,240.715 296.977,240.715 298.279 C 240.715 299.701,240.534 300.689,240.257 300.782 C 239.773 300.943,239.201 303.724,238.860 307.574 C 238.748 308.844,238.444 309.965,238.186 310.064 C 237.896 310.176,237.774 310.850,237.868 311.831 C 237.964 312.842,237.788 313.770,237.381 314.391 C 237.030 314.926,236.743 315.830,236.743 316.400 C 236.743 316.969,236.475 317.703,236.147 318.031 C 235.741 318.437,235.551 319.440,235.551 321.180 C 235.551 322.618,235.378 323.734,235.154 323.734 C 234.935 323.734,234.757 324.449,234.757 325.323 C 234.757 326.470,234.591 326.912,234.161 326.912 C 233.691 326.912,233.565 327.468,233.565 329.536 C 233.565 331.641,233.453 332.118,233.000 331.944 C 232.538 331.766,232.477 332.130,232.666 333.954 C 232.868 335.916,232.817 336.151,232.237 335.928 C 231.666 335.709,231.579 336.016,231.579 338.245 C 231.579 339.693,231.406 340.814,231.182 340.814 C 230.963 340.814,230.785 341.714,230.785 342.813 C 230.785 344.223,230.609 344.879,230.189 345.040 C 229.798 345.190,229.593 345.810,229.593 346.843 C 229.593 347.746,229.326 348.685,228.968 349.043 C 228.496 349.515,228.374 350.303,228.471 352.259 C 228.561 354.074,228.451 354.899,228.103 355.015 C 227.830 355.106,227.607 355.769,227.607 356.489 C 227.607 357.209,227.339 358.020,227.011 358.292 C 226.618 358.618,226.415 359.506,226.415 360.899 C 226.415 362.061,226.236 363.122,226.018 363.257 C 225.799 363.392,225.621 364.220,225.621 365.097 C 225.621 365.984,225.356 366.955,225.025 367.286 C 224.642 367.669,224.429 368.651,224.429 370.038 C 224.429 371.224,224.250 372.195,224.032 372.195 C 223.811 372.195,223.635 373.254,223.635 374.578 C 223.635 376.243,223.488 376.931,223.150 376.862 C 222.356 376.699,222.231 381.460,223.010 382.238 C 223.412 382.640,223.635 383.573,223.635 384.854 C 223.635 385.949,223.813 386.955,224.032 387.090 C 224.250 387.225,224.429 387.661,224.429 388.058 C 224.429 388.456,224.697 389.003,225.025 389.275 C 225.353 389.547,225.623 390.060,225.626 390.416 C 225.629 390.772,226.790 392.204,228.208 393.599 C 229.625 394.994,230.785 396.265,230.785 396.424 C 230.785 396.582,231.231 396.627,231.778 396.522 C 232.357 396.411,232.771 396.517,232.771 396.776 C 232.771 397.366,252.073 397.405,252.437 396.816 C 252.574 396.594,252.853 396.515,253.056 396.641 C 253.260 396.766,253.426 396.590,253.426 396.250 C 253.426 395.854,253.784 395.631,254.419 395.631 C 254.965 395.631,255.412 395.492,255.412 395.322 C 255.412 394.802,257.693 392.483,257.951 392.741 C 258.176 392.966,258.342 392.117,258.299 390.963 C 258.289 390.690,258.440 390.467,258.634 390.467 C 259.418 390.467,260.576 388.808,260.576 387.686 C 260.576 387.031,260.755 386.495,260.973 386.495 C 261.192 386.495,261.370 386.067,261.370 385.544 C 261.370 385.021,261.639 384.491,261.966 384.365 C 262.418 384.192,262.562 383.459,262.562 381.343 C 262.562 379.746,262.732 378.550,262.959 378.550 C 263.178 378.550,263.357 377.835,263.357 376.961 C 263.357 375.955,263.538 375.373,263.853 375.373 C 264.208 375.373,264.310 374.734,264.210 373.127 C 264.101 371.379,264.211 370.802,264.706 370.525 C 265.144 370.280,265.343 369.607,265.343 368.373 C 265.343 367.306,265.584 366.335,265.938 365.981 C 266.307 365.613,266.534 364.638,266.534 363.427 C 266.534 362.351,266.713 361.470,266.931 361.470 C 267.150 361.470,267.334 360.442,267.341 359.186 C 267.349 357.810,267.586 356.595,267.937 356.131 C 268.258 355.707,268.520 354.947,268.520 354.442 C 268.520 353.938,268.699 353.525,268.918 353.525 C 269.147 353.525,269.315 352.267,269.315 350.546 C 269.315 348.372,269.454 347.567,269.829 347.567 C 270.142 347.567,270.383 346.982,270.443 346.077 C 270.497 345.258,270.712 344.528,270.921 344.455 C 271.130 344.383,271.301 343.260,271.301 341.960 C 271.301 340.227,271.460 339.537,271.897 339.369 C 272.299 339.215,272.493 338.584,272.493 337.429 C 272.493 336.487,272.699 335.648,272.951 335.564 C 273.235 335.469,273.398 334.479,273.380 332.949 C 273.361 331.248,273.503 330.487,273.841 330.487 C 274.146 330.487,274.366 329.778,274.426 328.600 C 274.478 327.562,274.690 326.653,274.897 326.581 C 275.104 326.508,275.273 325.646,275.273 324.665 C 275.273 323.610,275.516 322.639,275.869 322.287 C 276.240 321.916,276.465 320.941,276.465 319.705 C 276.465 318.527,276.692 317.491,277.024 317.160 C 277.410 316.774,277.514 316.087,277.361 314.943 C 277.213 313.839,277.277 313.370,277.554 313.542 C 278.138 313.903,278.451 312.875,278.451 310.593 C 278.451 309.519,278.630 308.640,278.848 308.640 C 279.067 308.640,279.245 307.944,279.245 307.093 C 279.245 306.085,279.453 305.467,279.841 305.318 C 280.293 305.145,280.437 304.413,280.437 302.296 C 280.437 300.189,280.571 299.503,280.984 299.503 C 281.400 299.503,281.481 299.062,281.324 297.665 C 281.161 296.223,281.258 295.747,281.770 295.460 C 282.223 295.206,282.423 294.554,282.423 293.327 C 282.423 292.010,282.577 291.559,283.026 291.559 C 283.462 291.559,283.564 291.299,283.394 290.620 C 283.232 289.974,283.353 289.606,283.784 289.441 C 284.128 289.309,284.409 288.832,284.409 288.381 C 284.409 287.931,284.651 287.469,284.946 287.356 C 285.285 287.226,285.410 286.769,285.285 286.115 C 285.162 285.471,285.308 284.915,285.672 284.645 C 286.637 283.928,287.498 282.283,287.408 281.331 C 287.358 280.808,287.542 280.437,287.852 280.437 C 288.152 280.437,288.381 280.006,288.381 279.444 C 288.381 278.898,288.557 278.451,288.771 278.451 C 288.985 278.451,289.273 278.004,289.410 277.458 C 289.547 276.912,289.818 276.465,290.013 276.465 C 290.208 276.465,290.367 275.834,290.367 275.062 C 290.367 274.184,290.589 273.574,290.961 273.432 C 291.287 273.306,291.467 273.062,291.360 272.890 C 291.254 272.717,291.434 272.473,291.760 272.348 C 292.132 272.205,292.354 271.596,292.354 270.718 C 292.354 269.749,292.534 269.315,292.937 269.315 C 293.315 269.315,293.432 269.085,293.270 268.662 C 293.125 268.284,293.278 267.819,293.633 267.559 C 293.971 267.312,294.323 266.757,294.416 266.326 C 294.509 265.894,294.820 265.593,295.107 265.657 C 295.404 265.722,295.541 265.542,295.424 265.240 C 295.312 264.946,295.462 264.269,295.759 263.734 C 296.055 263.199,296.304 262.291,296.312 261.717 C 296.319 261.143,296.594 260.451,296.922 260.179 C 297.249 259.907,297.517 259.438,297.517 259.137 C 297.517 258.836,297.696 258.590,297.915 258.590 C 298.133 258.590,298.312 258.137,298.312 257.584 C 298.312 257.031,298.580 256.476,298.908 256.350 C 299.275 256.209,299.503 255.605,299.503 254.774 C 299.503 253.781,299.678 253.426,300.166 253.426 C 300.530 253.426,300.717 253.315,300.582 253.180 C 300.446 253.045,300.595 252.675,300.913 252.357 C 301.230 252.040,301.490 251.267,301.490 250.641 C 301.490 250.014,301.668 249.390,301.887 249.255 C 302.105 249.120,302.284 248.682,302.284 248.281 C 302.284 247.881,302.552 247.450,302.880 247.324 C 303.208 247.198,303.476 246.732,303.476 246.289 C 303.476 245.845,303.654 245.482,303.873 245.482 C 304.091 245.482,304.270 245.029,304.270 244.476 C 304.270 243.923,304.538 243.368,304.866 243.242 C 305.234 243.101,305.462 242.497,305.462 241.666 C 305.462 240.924,305.641 240.318,305.859 240.318 C 306.077 240.318,306.256 239.955,306.256 239.511 C 306.256 239.067,306.524 238.601,306.852 238.475 C 307.180 238.350,307.448 237.834,307.448 237.329 C 307.448 236.825,307.637 236.349,307.869 236.271 C 308.101 236.194,308.307 235.554,308.327 234.848 C 308.349 234.055,308.568 233.565,308.899 233.565 C 309.193 233.565,309.434 233.297,309.434 232.969 C 309.434 232.642,309.639 232.418,309.889 232.473 C 310.167 232.533,310.360 231.953,310.386 230.983 C 310.413 229.940,310.598 229.428,310.924 229.494 C 311.197 229.548,311.420 229.250,311.420 228.831 C 311.420 226.726,312.680 225.626,315.094 225.623 C 316.859 225.621,317.378 225.485,317.378 225.025 C 317.378 224.595,317.820 224.429,318.967 224.429 L 320.556 224.429 320.556 228.203 C 320.556 230.453,320.396 231.976,320.159 231.976 C 319.935 231.976,319.762 233.102,319.762 234.558 C 319.762 236.412,319.622 237.112,319.265 237.041 C 318.907 236.969,318.732 237.882,318.639 240.318 C 318.567 242.175,318.344 243.754,318.142 243.827 C 317.941 243.899,317.776 245.380,317.776 247.116 C 317.776 249.386,317.626 250.331,317.244 250.477 C 316.894 250.611,316.683 251.521,316.626 253.146 C 316.577 254.502,316.370 255.781,316.164 255.988 C 315.958 256.196,315.789 258.033,315.789 260.072 C 315.789 263.000,315.664 263.827,315.194 264.007 C 314.793 264.161,314.598 264.791,314.598 265.932 C 314.598 266.920,314.360 267.826,314.029 268.101 C 313.643 268.421,313.392 269.751,313.250 272.221 C 312.892 278.444,312.565 280.776,311.982 281.260 C 311.585 281.589,311.420 282.640,311.420 284.832 C 311.420 286.540,311.241 288.048,311.023 288.183 C 310.787 288.329,310.626 290.827,310.626 294.340 C 310.626 297.852,310.787 300.351,311.023 300.497 C 311.241 300.632,311.420 301.357,311.420 302.109 C 311.420 303.011,311.608 303.476,311.972 303.476 C 312.289 303.476,312.612 304.027,312.730 304.767 C 313.111 307.168,313.759 309.221,314.180 309.361 C 314.410 309.437,314.598 309.821,314.598 310.213 C 314.598 310.605,314.866 311.148,315.194 311.420 C 315.521 311.692,315.789 312.393,315.789 312.978 C 315.789 313.563,315.953 314.212,316.153 314.419 C 316.354 314.627,316.577 315.154,316.650 315.591 C 316.723 316.028,316.961 316.513,317.180 316.669 C 317.598 316.967,317.646 317.154,317.726 318.792 C 317.754 319.359,317.951 319.700,318.173 319.563 C 318.404 319.420,318.570 319.814,318.570 320.504 C 318.570 321.157,318.857 321.978,319.208 322.329 C 319.561 322.682,319.756 323.317,319.643 323.748 C 319.511 324.250,319.638 324.528,319.997 324.528 C 320.384 324.528,320.556 325.017,320.556 326.117 C 320.556 327.221,320.727 327.706,321.117 327.706 C 321.478 327.706,321.639 328.056,321.570 328.688 C 321.511 329.228,321.603 329.583,321.776 329.476 C 322.271 329.170,322.490 329.796,322.594 331.803 C 322.658 333.026,322.870 333.664,323.212 333.664 C 323.499 333.664,323.734 334.011,323.734 334.435 C 323.734 334.859,323.913 335.317,324.131 335.452 C 324.350 335.587,324.528 336.201,324.528 336.817 C 324.528 337.433,324.796 338.159,325.124 338.431 C 325.452 338.703,325.720 339.150,325.720 339.424 C 325.720 339.698,326.003 340.158,326.350 340.445 C 326.752 340.779,326.918 341.384,326.810 342.119 C 326.704 342.846,326.838 343.347,327.174 343.476 C 327.470 343.589,327.706 344.262,327.706 344.995 C 327.706 345.718,327.840 346.369,328.004 346.442 C 328.547 346.683,329.692 349.204,329.692 350.158 C 329.692 350.673,329.871 351.206,330.089 351.341 C 330.308 351.476,330.487 351.939,330.487 352.370 C 330.487 352.800,330.755 353.256,331.082 353.382 C 331.485 353.536,331.678 354.168,331.678 355.332 C 331.678 356.279,331.857 357.164,332.075 357.299 C 332.294 357.434,332.473 357.897,332.473 358.328 C 332.473 358.759,332.741 359.214,333.069 359.340 C 333.436 359.481,333.664 360.085,333.664 360.916 C 333.664 361.658,333.843 362.264,334.062 362.264 C 334.280 362.264,334.459 362.717,334.459 363.270 C 334.459 363.823,334.727 364.378,335.055 364.504 C 335.422 364.645,335.650 365.249,335.650 366.080 C 335.650 366.822,335.829 367.428,336.048 367.428 C 336.266 367.428,336.445 368.059,336.445 368.831 C 336.445 369.711,336.667 370.319,337.041 370.462 C 337.368 370.588,337.637 371.119,337.637 371.641 C 337.637 372.164,337.815 372.592,338.034 372.592 C 338.252 372.592,338.431 373.217,338.431 373.982 C 338.431 374.953,338.611 375.372,339.027 375.372 C 339.394 375.372,339.623 375.745,339.623 376.342 C 339.623 376.875,339.801 377.422,340.020 377.557 C 340.238 377.692,340.417 378.217,340.417 378.724 C 340.417 379.230,340.685 379.867,341.013 380.139 C 341.341 380.411,341.609 381.202,341.609 381.896 C 341.609 382.590,341.785 383.334,341.999 383.549 C 342.214 383.763,342.438 384.581,342.496 385.364 C 342.566 386.312,342.768 386.726,343.098 386.600 C 343.400 386.484,343.595 386.743,343.595 387.259 C 343.595 387.726,343.863 388.211,344.191 388.337 C 344.518 388.463,344.786 388.993,344.786 389.516 C 344.786 390.039,344.965 390.467,345.184 390.467 C 345.402 390.467,345.581 390.798,345.581 391.203 C 345.581 391.608,346.068 392.457,346.663 393.090 C 347.259 393.723,347.708 394.368,347.661 394.524 C 347.615 394.680,347.824 394.713,348.127 394.596 C 348.429 394.480,349.219 394.916,349.883 395.564 C 350.546 396.213,351.190 396.642,351.314 396.518 C 351.438 396.394,351.539 396.501,351.539 396.756 C 351.539 397.097,354.168 397.219,361.470 397.219 C 367.825 397.219,371.400 397.076,371.400 396.822 C 371.400 396.604,371.724 396.425,372.120 396.425 C 372.515 396.425,373.271 396.023,373.799 395.531 C 374.771 394.625,374.874 394.577,376.011 394.489 C 376.405 394.458,376.562 394.212,376.421 393.845 C 376.282 393.483,376.806 392.627,377.769 391.645 C 378.636 390.761,379.345 389.687,379.345 389.259 C 379.345 388.831,379.601 388.481,379.914 388.481 C 380.291 388.481,380.472 388.072,380.449 387.271 C 380.430 386.605,380.620 385.854,380.872 385.602 C 381.442 385.033,381.509 374.518,380.947 373.956 C 380.736 373.745,380.519 372.999,380.466 372.298 C 380.413 371.597,380.138 370.935,379.857 370.827 C 379.575 370.719,379.345 370.099,379.345 369.450 C 379.345 368.801,379.166 368.159,378.947 368.024 C 378.729 367.889,378.550 367.451,378.550 367.050 C 378.550 366.649,378.282 366.218,377.954 366.093 C 377.580 365.949,377.358 365.342,377.358 364.461 C 377.358 363.690,377.180 363.059,376.961 363.059 C 376.743 363.059,376.564 362.535,376.564 361.895 C 376.564 361.255,376.296 360.464,375.968 360.136 C 375.641 359.808,375.372 359.170,375.372 358.718 C 375.372 358.265,375.194 357.895,374.975 357.895 C 374.757 357.895,374.578 357.369,374.578 356.727 C 374.578 356.084,374.404 355.451,374.191 355.319 C 373.621 354.967,372.698 352.748,372.408 351.032 C 372.269 350.206,371.985 349.636,371.777 349.764 C 371.570 349.892,371.378 349.540,371.351 348.981 C 371.268 347.298,371.223 347.154,370.663 346.808 C 370.324 346.598,370.223 346.161,370.391 345.631 C 370.587 345.015,370.491 344.786,370.037 344.786 C 369.494 344.786,369.152 343.332,369.362 341.921 C 369.386 341.765,369.126 341.744,368.786 341.875 C 368.268 342.074,368.211 341.877,368.436 340.673 C 368.648 339.548,368.567 339.180,368.067 338.989 C 367.716 338.854,367.428 338.335,367.428 337.835 C 367.428 337.336,367.201 336.840,366.923 336.733 C 366.645 336.627,366.375 336.027,366.323 335.400 C 366.272 334.773,366.052 334.201,365.836 334.128 C 365.619 334.055,365.442 333.394,365.442 332.658 C 365.442 331.835,365.193 331.181,364.795 330.958 C 364.439 330.759,364.231 330.348,364.333 330.045 C 364.435 329.742,364.285 329.315,363.999 329.096 C 363.714 328.878,363.438 328.029,363.387 327.210 C 363.326 326.236,363.099 325.720,362.732 325.720 C 362.362 325.720,362.244 325.443,362.386 324.901 C 362.517 324.400,362.381 323.998,362.035 323.866 C 361.700 323.737,361.470 323.100,361.470 322.301 C 361.470 321.368,361.286 320.953,360.874 320.953 C 360.444 320.953,360.278 320.512,360.278 319.364 C 360.278 318.491,360.099 317.776,359.881 317.776 C 359.662 317.776,359.484 317.427,359.484 317.001 C 359.484 316.575,359.192 316.063,358.835 315.863 C 358.372 315.604,358.240 315.133,358.374 314.218 C 358.499 313.370,358.382 312.866,358.030 312.731 C 357.737 312.619,357.498 312.121,357.498 311.625 C 357.498 311.129,357.229 310.500,356.902 310.228 C 356.574 309.956,356.306 309.117,356.306 308.364 C 356.306 307.610,356.027 306.715,355.687 306.375 C 355.347 306.035,355.170 305.492,355.294 305.168 C 355.450 304.762,355.334 304.650,354.920 304.809 C 354.458 304.987,354.320 304.733,354.320 303.710 C 354.320 302.979,354.044 302.152,353.706 301.872 C 353.368 301.592,353.190 301.107,353.310 300.794 C 353.430 300.482,353.234 299.661,352.874 298.971 C 351.653 296.627,351.539 296.337,351.539 295.569 C 351.539 294.441,351.110 293.518,350.703 293.770 C 350.110 294.136,350.331 291.019,350.956 290.192 C 351.366 289.650,351.539 288.384,351.539 285.922 C 351.539 283.854,351.702 282.423,351.936 282.423 C 352.157 282.423,352.334 281.364,352.334 280.040 C 352.334 278.397,352.488 277.657,352.830 277.657 C 353.200 277.658,353.294 276.747,353.199 274.082 C 353.091 271.043,353.165 270.506,353.696 270.506 C 354.217 270.506,354.320 269.916,354.320 266.931 C 354.320 264.223,354.448 263.357,354.848 263.357 C 355.215 263.357,355.403 262.662,355.466 261.072 C 355.516 259.816,355.726 258.619,355.932 258.411 C 356.137 258.204,356.306 256.366,356.306 254.327 C 356.306 251.399,356.431 250.573,356.902 250.392 C 357.911 250.005,357.741 244.448,356.703 243.893 C 356.266 243.659,355.909 243.572,355.909 243.701 C 355.909 243.829,355.443 243.433,354.873 242.821 C 354.304 242.209,353.584 241.762,353.275 241.827 C 352.966 241.892,352.253 241.400,351.692 240.733 C 351.131 240.067,350.502 239.627,350.293 239.755 C 349.859 240.024,345.581 235.720,345.581 235.015 C 345.581 234.759,345.123 234.056,344.562 233.452 C 344.002 232.847,343.518 232.013,343.487 231.596 C 343.456 231.180,343.248 230.872,343.025 230.911 C 342.803 230.951,342.558 230.570,342.481 230.065 C 342.404 229.560,342.087 229.049,341.777 228.930 C 341.466 228.811,341.212 228.286,341.212 227.763 C 341.212 227.240,341.033 226.812,340.814 226.812 C 340.596 226.812,340.417 226.289,340.417 225.649 C 340.417 225.009,340.131 224.200,339.782 223.851 C 339.337 223.405,339.189 222.686,339.288 221.439 C 339.387 220.202,339.278 219.662,338.930 219.662 C 338.571 219.662,338.431 218.772,338.431 216.485 C 338.431 214.305,338.574 213.338,338.886 213.406 C 339.196 213.474,339.313 212.718,339.255 211.023 C 339.185 208.995,339.283 208.540,339.793 208.540 C 340.305 208.540,340.417 208.004,340.417 205.561 C 340.417 203.840,340.585 202.582,340.814 202.582 C 341.033 202.582,341.212 201.978,341.212 201.240 C 341.212 200.502,341.480 199.676,341.807 199.404 C 342.224 199.058,342.403 198.140,342.403 196.348 C 342.403 194.601,342.593 193.597,342.999 193.191 C 343.327 192.863,343.595 192.171,343.595 191.653 C 343.595 191.136,343.774 190.602,343.992 190.467 C 344.211 190.332,344.389 188.975,344.389 187.452 C 344.389 185.529,344.549 184.621,344.912 184.482 C 345.220 184.363,345.473 183.514,345.530 182.409 C 345.582 181.379,345.794 180.366,346.000 180.159 C 346.207 179.951,346.375 178.856,346.375 177.725 C 346.375 176.381,346.582 175.497,346.971 175.174 C 347.366 174.846,347.567 173.957,347.567 172.543 C 347.567 171.368,347.746 170.407,347.964 170.407 C 348.183 170.407,348.361 169.769,348.361 168.989 C 348.361 168.208,348.630 167.302,348.957 166.974 C 349.779 166.152,349.792 160.773,348.975 159.955 C 347.821 158.801,344.389 152.305,344.389 151.274 C 344.389 150.944,343.942 150.470,343.396 150.221 C 342.806 149.952,342.403 149.438,342.403 148.953 C 342.403 148.505,342.135 148.035,341.807 147.909 C 341.480 147.784,341.212 147.353,341.212 146.952 C 341.212 146.551,341.033 146.113,340.814 145.978 C 340.596 145.843,340.417 145.388,340.417 144.966 C 340.417 144.068,339.231 142.551,338.757 142.844 C 338.578 142.955,338.431 142.700,338.431 142.277 C 338.431 141.854,338.163 141.285,337.835 141.013 C 337.507 140.741,337.239 140.193,337.239 139.796 C 337.239 139.399,337.061 138.963,336.842 138.828 C 336.624 138.693,336.445 138.286,336.445 137.924 C 336.445 137.561,336.016 136.896,335.491 136.445 C 334.966 135.994,334.470 135.184,334.389 134.645 C 334.307 134.100,334.012 133.713,333.724 133.774 C 333.376 133.847,333.248 133.523,333.332 132.781 C 333.407 132.124,333.277 131.712,333.011 131.762 C 332.766 131.808,332.458 131.305,332.325 130.643 C 332.193 129.982,331.941 129.530,331.765 129.638 C 331.590 129.747,331.419 129.475,331.386 129.035 C 331.352 128.594,330.868 127.841,330.310 127.361 C 329.206 126.413,329.011 125.694,329.791 125.452 C 330.332 125.285,332.905 127.737,332.555 128.087 C 332.437 128.205,332.638 128.302,333.002 128.302 C 333.366 128.302,333.664 128.570,333.664 128.898 C 333.664 129.225,333.817 129.494,334.004 129.494 C 334.192 129.494,336.649 131.833,339.466 134.691 C 345.564 140.880,344.896 140.213,348.131 143.344 C 349.569 144.735,350.745 145.942,350.745 146.025 C 350.745 146.323,352.334 147.760,352.340 147.468 C 352.344 147.304,352.719 147.751,353.173 148.460 C 353.628 149.170,354.161 149.651,354.358 149.529 C 354.556 149.407,354.717 149.497,354.717 149.728 C 354.717 150.300,356.182 151.729,356.471 151.440 C 356.681 151.231,356.867 152.290,356.750 153.029 C 356.724 153.193,356.971 153.327,357.299 153.327 C 357.627 153.327,357.895 153.605,357.895 153.946 C 357.895 154.287,358.073 154.455,358.292 154.320 C 358.510 154.185,358.689 154.349,358.689 154.684 C 358.689 155.020,359.136 155.587,359.682 155.945 C 360.228 156.303,360.675 156.843,360.675 157.146 C 360.675 157.449,360.809 157.696,360.973 157.697 C 362.815 157.700,364.612 163.687,363.059 164.647 C 362.840 164.782,362.661 165.608,362.661 166.482 C 362.661 167.356,362.501 167.972,362.306 167.851 C 361.744 167.504,361.470 168.677,361.470 171.433 C 361.470 172.867,361.296 173.982,361.072 173.982 C 360.854 173.982,360.670 174.742,360.663 175.670 C 360.656 176.599,360.388 177.705,360.067 178.130 C 359.742 178.559,359.484 179.746,359.484 180.811 C 359.484 181.861,359.305 182.721,359.086 182.721 C 358.866 182.721,358.689 183.772,358.689 185.081 C 358.689 186.379,358.510 187.551,358.292 187.686 C 358.073 187.821,357.895 188.815,357.895 189.894 C 357.895 191.374,357.748 191.857,357.299 191.857 C 356.838 191.857,356.703 192.378,356.703 194.164 C 356.703 195.578,356.477 196.770,356.120 197.243 C 355.799 197.667,355.531 198.584,355.524 199.281 C 355.517 199.979,355.333 200.659,355.114 200.794 C 354.896 200.929,354.717 202.286,354.717 203.809 C 354.717 205.905,354.572 206.635,354.121 206.808 C 353.764 206.945,353.525 207.544,353.525 208.305 C 353.525 209.002,353.356 209.743,353.150 209.950 C 352.541 210.562,352.427 221.253,353.029 221.252 C 353.453 221.251,353.732 222.323,353.572 223.337 C 353.546 223.500,353.793 223.635,354.121 223.635 C 354.449 223.635,354.717 223.982,354.717 224.406 C 354.717 224.830,354.896 225.287,355.114 225.422 C 355.333 225.557,355.511 225.924,355.511 226.236 C 355.511 226.549,356.045 227.316,356.698 227.939 C 357.351 228.563,357.806 229.152,357.710 229.248 C 357.614 229.344,357.985 229.460,358.536 229.505 C 359.533 229.588,360.675 230.422,360.675 231.069 C 360.675 231.256,361.253 231.454,361.960 231.508 C 362.666 231.562,363.417 231.778,363.628 231.990 C 364.147 232.508,374.181 232.495,374.181 231.976 C 374.181 231.758,374.608 231.579,375.131 231.579 C 375.654 231.579,376.185 231.309,376.312 230.979 C 376.438 230.650,376.681 230.403,376.851 230.431 C 377.589 230.552,378.663 230.367,378.451 230.156 C 378.149 229.854,379.602 228.401,380.205 228.401 C 380.460 228.401,380.561 228.294,380.430 228.162 C 380.298 228.031,380.894 227.254,381.754 226.436 C 382.613 225.618,383.317 224.648,383.317 224.279 C 383.317 223.911,383.585 223.507,383.913 223.381 C 384.240 223.255,384.508 222.825,384.508 222.424 C 384.508 222.023,384.687 221.585,384.906 221.450 C 385.124 221.315,385.303 220.162,385.303 218.887 C 385.303 217.194,385.463 216.508,385.899 216.341 C 386.337 216.173,386.495 215.480,386.495 213.717 C 386.495 212.384,386.671 211.321,386.892 211.321 C 387.110 211.321,387.289 210.538,387.289 209.582 C 387.289 208.521,387.521 207.650,387.885 207.349 C 388.310 206.996,388.481 206.063,388.481 204.099 C 388.481 202.363,388.628 201.434,388.878 201.589 C 389.117 201.737,389.275 201.210,389.275 200.265 C 389.275 199.236,389.480 198.616,389.871 198.466 C 390.329 198.290,390.467 197.534,390.467 195.203 C 390.467 192.920,390.591 192.217,390.969 192.362 C 391.335 192.502,391.432 192.136,391.325 191.014 C 391.209 189.804,391.314 189.474,391.815 189.474 C 392.343 189.474,392.453 188.966,392.453 186.518 C 392.453 184.892,392.632 183.452,392.850 183.317 C 393.069 183.182,393.247 182.297,393.247 181.350 C 393.247 180.287,393.449 179.551,393.774 179.426 C 394.111 179.297,394.333 178.393,394.392 176.901 C 394.442 175.623,394.652 174.518,394.858 174.446 C 395.065 174.373,395.233 173.256,395.233 171.963 C 395.233 170.139,395.367 169.613,395.829 169.613 C 396.157 169.613,396.404 169.479,396.378 169.315 C 396.156 167.909,396.505 165.641,396.943 165.641 C 397.329 165.641,397.419 165.033,397.298 163.251 C 397.180 161.510,397.309 160.598,397.774 159.889 C 398.712 158.456,398.701 150.350,397.759 149.824 C 397.316 149.576,397.171 149.124,397.306 148.416 C 397.424 147.801,397.284 147.190,396.965 146.925 C 396.668 146.678,396.425 146.257,396.425 145.988 C 396.425 145.718,395.938 144.981,395.342 144.348 C 394.747 143.715,394.300 143.064,394.349 142.900 C 394.399 142.736,394.299 142.646,394.127 142.701 C 393.647 142.854,390.062 139.360,390.302 138.972 C 390.418 138.784,390.303 138.630,390.046 138.630 C 389.457 138.630,386.261 135.448,386.395 134.994 C 386.450 134.809,386.271 134.657,385.998 134.657 C 385.419 134.656,382.522 131.681,382.522 131.088 C 382.522 130.866,382.331 130.685,382.097 130.685 C 381.477 130.685,380.242 129.195,379.461 127.507 C 379.310 127.180,378.551 126.308,377.776 125.570 C 377.000 124.832,376.410 124.073,376.465 123.882 C 376.519 123.691,376.430 123.579,376.266 123.631 C 375.710 123.811,374.093 122.409,374.360 121.978 C 374.506 121.741,374.348 121.549,374.006 121.549 C 373.665 121.549,373.386 121.370,373.386 121.152 C 373.386 120.933,373.221 120.755,373.020 120.755 C 372.609 120.755,370.233 118.480,370.434 118.279 C 370.504 118.208,370.035 117.798,369.390 117.367 C 368.746 116.936,368.303 116.360,368.407 116.087 C 368.510 115.814,368.332 115.591,368.011 115.591 C 367.691 115.591,367.428 115.412,367.428 115.194 C 367.428 114.975,367.269 114.796,367.074 114.796 C 366.653 114.796,362.264 110.469,362.264 110.054 C 362.264 109.896,361.817 109.528,361.271 109.235 C 360.725 108.943,360.278 108.555,360.278 108.374 C 360.278 107.917,358.799 106.478,358.567 106.709 C 358.463 106.813,358.137 106.351,357.841 105.683 C 357.545 105.015,357.079 104.469,356.805 104.469 C 356.530 104.469,356.306 104.290,356.306 104.071 C 356.306 103.853,356.038 103.674,355.710 103.674 C 355.382 103.674,355.159 103.513,355.214 103.317 C 355.268 103.120,355.179 102.941,355.015 102.920 C 354.364 102.833,353.128 101.245,353.128 100.497 C 353.128 100.060,352.949 99.702,352.731 99.702 C 352.512 99.702,352.334 98.987,352.334 98.113 C 352.334 97.239,352.155 96.524,351.936 96.524 C 351.718 96.524,351.539 95.911,351.539 95.162 C 351.539 94.413,351.271 93.532,350.943 93.205 C 350.616 92.877,350.348 92.417,350.348 92.183 C 350.348 91.949,350.169 91.758,349.950 91.758 C 349.732 91.758,349.550 91.266,349.547 90.665 C 349.542 89.684,348.779 87.836,348.765 88.768 C 348.761 88.980,348.455 88.712,348.084 88.172 C 347.712 87.632,347.084 86.954,346.687 86.666 C 346.290 86.378,346.067 85.978,346.191 85.777 C 346.316 85.574,346.112 85.528,345.735 85.673 C 345.271 85.851,345.146 85.785,345.342 85.467 C 345.507 85.201,345.363 84.896,345.010 84.761 C 344.669 84.630,344.389 84.274,344.389 83.969 C 344.389 83.665,344.213 83.416,343.997 83.416 C 343.781 83.416,343.240 83.103,342.796 82.721 C 342.352 82.339,341.590 81.921,341.103 81.792 C 340.617 81.663,340.263 81.351,340.318 81.097 C 340.372 80.843,339.970 80.636,339.424 80.636 C 338.801 80.636,338.431 80.411,338.431 80.032 C 338.431 79.587,338.171 79.494,337.438 79.678 C 336.687 79.866,336.445 79.771,336.445 79.288 C 336.445 78.774,335.991 78.649,334.110 78.649 C 332.520 78.649,331.618 78.460,331.281 78.054 C 330.649 77.292,328.731 77.284,327.976 78.039 M51.023 88.156 C 50.711 88.463,49.523 88.682,46.749 88.947 C 46.572 88.963,46.538 89.156,46.673 89.374 C 46.808 89.593,46.640 89.772,46.300 89.772 C 45.959 89.772,45.680 90.061,45.680 90.414 C 45.680 90.884,45.415 91.005,44.687 90.866 C 44.021 90.739,43.694 90.854,43.694 91.217 C 43.694 91.514,43.426 91.758,43.098 91.758 C 42.771 91.758,42.502 91.917,42.502 92.112 C 42.502 92.307,42.048 92.580,41.493 92.719 C 40.938 92.859,40.591 93.146,40.722 93.358 C 40.853 93.570,40.682 93.744,40.341 93.744 C 39.945 93.744,39.722 94.102,39.722 94.737 C 39.722 95.283,39.522 95.730,39.278 95.730 C 38.612 95.730,36.558 98.208,36.551 99.019 C 36.547 99.409,36.296 99.822,35.992 99.939 C 35.673 100.061,35.525 100.475,35.641 100.919 C 35.771 101.415,35.641 101.688,35.274 101.688 C 34.875 101.688,34.678 102.249,34.610 103.575 C 34.557 104.613,34.345 105.632,34.139 105.839 C 33.932 106.047,33.764 107.053,33.764 108.075 C 33.764 109.241,33.542 110.116,33.168 110.427 C 32.712 110.805,32.572 111.842,32.572 114.845 C 32.572 117.196,32.413 118.769,32.175 118.769 C 31.945 118.769,31.778 120.026,31.778 121.748 C 31.778 123.994,31.645 124.727,31.238 124.727 C 30.833 124.727,30.678 125.541,30.619 127.979 C 30.541 131.221,30.376 132.040,29.863 131.722 C 29.715 131.630,29.626 133.336,29.666 135.512 C 29.723 138.630,29.618 139.516,29.169 139.688 C 28.764 139.843,28.600 140.581,28.600 142.247 C 28.600 143.976,28.456 144.588,28.050 144.588 C 27.618 144.588,27.486 145.547,27.436 149.057 C 27.400 151.514,27.201 153.585,26.992 153.658 C 26.784 153.731,26.614 154.669,26.614 155.743 C 26.614 156.853,26.432 157.696,26.193 157.696 C 25.962 157.696,25.875 157.863,26.001 158.066 C 26.127 158.269,26.073 158.532,25.882 158.650 C 25.691 158.769,25.499 160.345,25.456 162.154 C 25.413 163.962,25.209 165.612,25.003 165.819 C 24.796 166.027,24.628 167.397,24.628 168.865 C 24.628 170.496,24.453 171.591,24.178 171.682 C 23.878 171.782,23.753 173.115,23.801 175.692 C 23.860 178.858,23.762 179.595,23.257 179.789 C 22.769 179.977,22.642 180.716,22.642 183.372 C 22.642 185.980,22.510 186.769,22.046 186.947 C 21.596 187.119,21.450 187.843,21.450 189.890 C 21.450 191.383,21.271 192.715,21.053 192.850 C 20.834 192.985,20.655 194.763,20.655 196.813 C 20.655 199.300,20.501 200.581,20.190 200.685 C 19.890 200.785,19.756 201.692,19.812 203.250 C 19.879 205.115,19.760 205.713,19.284 205.896 C 18.791 206.085,18.669 206.850,18.669 209.748 C 18.669 212.432,18.516 213.517,18.073 213.959 C 17.692 214.341,17.478 215.322,17.478 216.688 C 17.478 217.861,17.299 218.932,17.080 219.067 C 16.862 219.202,16.683 220.923,16.683 222.892 C 16.683 225.544,16.529 226.626,16.087 227.068 C 15.683 227.472,15.492 228.474,15.492 230.189 C 15.492 231.904,15.683 232.905,16.087 233.310 C 16.472 233.695,16.683 234.677,16.683 236.085 C 16.683 237.284,16.854 238.325,17.063 238.398 C 17.272 238.471,17.487 239.201,17.541 240.020 C 17.601 240.924,17.842 241.509,18.155 241.509 C 18.522 241.509,18.669 242.234,18.669 244.049 C 18.669 246.025,18.812 246.643,19.314 246.836 C 19.774 247.012,19.896 247.393,19.741 248.169 C 19.615 248.804,19.760 249.575,20.090 250.026 C 20.405 250.455,20.655 251.698,20.655 252.827 C 20.655 253.943,20.826 255.026,21.034 255.234 C 21.242 255.442,21.457 256.282,21.512 257.101 C 21.573 258.004,21.815 258.590,22.127 258.590 C 22.484 258.590,22.642 259.242,22.642 260.726 C 22.642 262.179,22.840 263.027,23.263 263.378 C 23.675 263.720,23.846 264.412,23.773 265.435 C 23.711 266.291,23.865 267.103,24.121 267.261 C 24.373 267.417,24.622 268.470,24.674 269.602 C 24.726 270.733,24.915 271.567,25.095 271.456 C 25.275 271.345,25.422 272.235,25.422 273.434 C 25.422 274.842,25.633 275.825,26.018 276.209 C 26.346 276.537,26.614 277.354,26.614 278.025 C 26.614 278.696,26.792 279.245,27.011 279.245 C 27.234 279.245,27.408 280.345,27.408 281.751 C 27.408 283.340,27.622 284.540,27.991 285.028 C 28.312 285.452,28.580 286.269,28.587 286.843 C 28.594 287.417,28.855 288.099,29.167 288.358 C 29.989 289.040,30.034 296.723,29.217 296.723 C 28.897 296.723,28.598 297.195,28.527 297.815 C 28.458 298.416,28.209 298.873,27.975 298.832 C 27.725 298.787,27.510 299.611,27.456 300.818 C 27.406 301.952,27.195 302.939,26.989 303.012 C 26.783 303.085,26.614 303.487,26.614 303.906 C 26.614 304.325,26.382 304.667,26.099 304.667 C 25.787 304.667,25.545 305.254,25.484 306.156 C 25.429 306.975,25.214 307.815,25.006 308.023 C 24.798 308.231,24.628 308.883,24.628 309.471 C 24.628 310.059,24.388 310.633,24.095 310.745 C 23.743 310.880,23.627 311.384,23.751 312.232 C 23.885 313.147,23.754 313.618,23.290 313.877 C 22.886 314.103,22.642 314.756,22.642 315.611 C 22.642 316.364,22.497 316.981,22.321 316.981 C 21.872 316.981,20.655 319.845,20.655 320.901 C 20.655 321.380,20.370 321.882,20.021 322.016 C 19.560 322.193,19.450 322.573,19.617 323.409 C 19.779 324.217,19.672 324.626,19.258 324.785 C 18.903 324.921,18.669 325.529,18.669 326.316 C 18.669 327.110,18.436 327.711,18.073 327.850 C 17.746 327.975,17.478 328.431,17.478 328.862 C 17.478 329.293,17.299 329.756,17.080 329.891 C 16.862 330.026,16.683 331.030,16.683 332.122 C 16.683 333.228,16.521 334.008,16.318 333.883 C 16.118 333.759,15.835 334.197,15.690 334.856 C 15.545 335.515,15.263 335.953,15.062 335.829 C 14.861 335.705,14.697 336.329,14.697 337.216 C 14.697 338.320,14.525 338.828,14.150 338.828 C 13.771 338.828,13.606 339.344,13.613 340.516 C 13.618 341.582,13.454 342.168,13.166 342.105 C 12.894 342.046,12.711 342.548,12.711 343.354 C 12.711 344.134,12.480 344.790,12.162 344.912 C 11.860 345.028,11.503 345.762,11.368 346.543 C 11.233 347.325,11.013 348.590,10.880 349.355 C 10.740 350.161,10.406 350.745,10.086 350.745 C 9.706 350.745,9.533 351.242,9.533 352.334 C 9.533 353.208,9.355 353.923,9.136 353.923 C 8.918 353.923,8.739 354.361,8.739 354.896 C 8.739 355.431,8.455 356.028,8.107 356.223 C 7.760 356.417,7.492 356.694,7.512 356.838 C 7.670 358.007,7.479 359.091,7.150 358.888 C 6.910 358.739,6.753 359.285,6.753 360.267 C 6.753 361.345,6.552 361.969,6.157 362.121 C 5.821 362.249,5.561 362.841,5.561 363.475 C 5.561 364.094,5.382 364.711,5.164 364.846 C 4.945 364.981,4.767 365.688,4.767 366.416 C 4.767 367.227,4.536 367.829,4.171 367.969 C 3.843 368.095,3.575 368.566,3.575 369.017 C 3.575 369.468,3.350 369.922,3.076 370.028 C 2.747 370.154,2.625 370.825,2.719 371.999 C 2.826 373.353,2.708 373.836,2.224 374.022 C 1.308 374.374,1.270 384.301,2.185 384.652 C 2.579 384.804,2.781 385.427,2.781 386.499 C 2.781 387.666,3.052 388.411,3.752 389.166 C 4.287 389.743,4.651 390.333,4.561 390.478 C 4.471 390.624,4.928 391.250,5.575 391.871 C 6.223 392.491,6.753 393.323,6.753 393.719 C 6.753 394.346,7.417 394.648,8.441 394.486 C 8.605 394.460,8.739 394.707,8.739 395.035 C 8.739 395.362,9.001 395.631,9.322 395.631 C 9.679 395.631,9.816 395.863,9.675 396.231 C 9.510 396.660,9.627 396.761,10.085 396.586 C 10.437 396.451,10.725 396.538,10.725 396.780 C 10.725 397.091,13.927 397.219,21.648 397.219 C 28.666 397.219,32.572 397.077,32.572 396.822 C 32.572 396.604,32.706 396.446,32.870 396.472 C 33.848 396.627,34.486 396.308,34.955 395.433 C 35.247 394.887,35.573 394.527,35.679 394.633 C 35.785 394.739,36.291 394.257,36.804 393.562 C 37.316 392.867,37.736 392.456,37.736 392.649 C 37.736 392.842,38.093 392.616,38.530 392.147 C 38.967 391.678,39.325 390.949,39.325 390.526 C 39.325 390.103,39.593 389.654,39.921 389.529 C 40.248 389.403,40.516 388.947,40.516 388.517 C 40.516 388.086,40.695 387.623,40.914 387.488 C 41.132 387.353,41.311 386.627,41.311 385.875 C 41.311 384.925,41.492 384.508,41.907 384.508 C 42.272 384.508,42.502 384.137,42.502 383.548 C 42.502 383.021,42.678 382.529,42.893 382.456 C 43.108 382.383,43.316 381.475,43.355 380.437 C 43.403 379.161,43.598 378.550,43.957 378.550 C 44.249 378.550,44.467 378.416,44.442 378.252 C 44.297 377.334,44.553 376.564,45.005 376.564 C 45.364 376.564,45.470 376.126,45.352 375.118 C 45.230 374.070,45.361 373.573,45.829 373.311 C 46.184 373.112,46.475 372.590,46.475 372.151 C 46.475 371.712,46.653 371.464,46.872 371.599 C 47.119 371.751,47.269 371.007,47.269 369.636 C 47.269 367.938,47.407 367.428,47.865 367.428 C 48.236 367.428,48.461 367.053,48.461 366.435 C 48.461 365.889,48.640 365.442,48.858 365.442 C 49.076 365.442,49.255 364.811,49.255 364.039 C 49.255 363.159,49.477 362.551,49.851 362.408 C 50.193 362.277,50.447 361.684,50.447 361.018 C 50.447 360.379,50.694 359.761,50.996 359.645 C 51.370 359.502,51.486 358.999,51.361 358.069 C 51.226 357.070,51.345 356.638,51.805 356.462 C 52.204 356.309,52.433 355.738,52.433 354.897 C 52.433 354.168,52.612 353.462,52.830 353.327 C 53.049 353.192,53.227 352.753,53.227 352.353 C 53.227 351.952,53.496 351.521,53.823 351.396 C 54.232 351.239,54.419 350.601,54.419 349.367 C 54.419 348.377,54.598 347.567,54.816 347.567 C 55.035 347.567,55.214 347.139,55.214 346.616 C 55.214 346.094,55.482 345.563,55.809 345.437 C 56.159 345.303,56.405 344.707,56.405 343.992 C 56.405 343.323,56.636 342.687,56.917 342.579 C 57.199 342.471,57.473 341.806,57.526 341.102 C 57.579 340.398,57.795 339.762,58.007 339.689 C 58.218 339.616,58.391 338.933,58.391 338.171 C 58.391 337.409,58.659 336.517,58.987 336.190 C 59.315 335.862,59.583 335.170,59.583 334.652 C 59.583 334.135,59.762 333.601,59.980 333.466 C 60.199 333.331,60.377 332.605,60.377 331.853 C 60.377 331.025,60.573 330.487,60.874 330.487 C 61.183 330.487,61.370 329.924,61.370 328.997 C 61.370 328.017,61.540 327.541,61.867 327.607 C 62.161 327.666,62.363 327.290,62.363 326.685 C 62.363 326.123,62.632 325.395,62.959 325.067 C 63.287 324.740,63.555 324.073,63.555 323.586 C 63.555 323.099,63.720 322.531,63.922 322.324 C 64.123 322.116,64.347 321.410,64.418 320.755 C 64.490 320.099,64.727 319.593,64.945 319.629 C 65.164 319.665,65.390 319.045,65.448 318.252 C 65.507 317.458,65.730 316.633,65.945 316.419 C 66.160 316.204,66.336 315.438,66.336 314.717 C 66.336 313.996,66.514 313.406,66.733 313.406 C 66.951 313.406,67.130 312.959,67.130 312.413 C 67.130 311.783,67.354 311.420,67.743 311.420 C 68.081 311.420,68.328 311.197,68.292 310.924 C 68.059 309.126,68.372 307.448,68.941 307.448 C 69.282 307.448,69.470 307.301,69.359 307.121 C 69.248 306.942,69.416 306.296,69.732 305.686 C 70.049 305.076,70.308 303.882,70.308 303.033 C 70.308 301.926,70.476 301.490,70.904 301.490 C 71.231 301.490,71.478 301.356,71.452 301.192 C 71.278 300.087,71.580 298.709,71.996 298.710 C 72.373 298.710,72.463 297.518,72.371 293.745 C 72.303 290.986,72.082 288.779,71.874 288.779 C 71.668 288.779,71.500 288.264,71.500 287.636 C 71.500 287.007,71.231 286.270,70.904 285.998 C 70.542 285.698,70.308 284.828,70.308 283.788 C 70.308 282.845,70.129 281.962,69.911 281.827 C 69.692 281.692,69.513 281.158,69.513 280.640 C 69.513 280.123,69.245 279.431,68.918 279.103 C 68.582 278.767,68.322 277.797,68.322 276.878 C 68.322 275.796,68.122 275.171,67.726 275.020 C 67.361 274.880,67.130 274.277,67.130 273.467 C 67.130 272.738,66.951 272.032,66.733 271.897 C 66.514 271.762,66.336 270.768,66.336 269.689 C 66.336 268.609,66.157 267.726,65.938 267.726 C 65.720 267.726,65.541 267.119,65.541 266.378 C 65.541 265.547,65.313 264.943,64.945 264.802 C 64.539 264.646,64.350 264.009,64.350 262.797 C 64.350 261.820,64.171 260.910,63.952 260.775 C 63.734 260.640,63.555 259.936,63.555 259.211 C 63.555 258.486,63.287 257.670,62.959 257.398 C 62.632 257.126,62.363 256.685,62.363 256.418 C 62.363 256.150,62.077 255.358,61.728 254.657 C 61.316 253.832,61.179 252.919,61.338 252.069 C 61.512 251.142,61.407 250.608,60.981 250.255 C 60.649 249.979,60.377 249.329,60.377 248.809 C 60.377 248.290,60.199 247.865,59.980 247.865 C 59.762 247.865,59.583 247.329,59.583 246.673 C 59.583 245.515,59.635 245.482,61.470 245.494 C 63.350 245.507,64.747 246.155,64.747 247.015 C 64.747 247.264,65.018 247.468,65.350 247.468 C 65.777 247.468,65.901 247.758,65.774 248.461 C 65.650 249.142,65.773 249.454,66.163 249.454 C 66.477 249.454,66.733 249.785,66.733 250.190 C 66.733 250.595,67.180 251.409,67.726 251.998 C 68.272 252.588,68.719 253.495,68.719 254.014 C 68.719 254.533,68.979 255.218,69.296 255.535 C 69.613 255.852,69.762 256.223,69.627 256.358 C 69.492 256.493,69.679 256.604,70.043 256.604 C 70.484 256.604,70.705 256.935,70.705 257.597 C 70.705 258.143,70.884 258.590,71.102 258.590 C 71.321 258.590,71.500 259.028,71.500 259.562 C 71.500 260.097,71.946 261.017,72.493 261.607 C 73.039 262.196,73.486 263.104,73.486 263.626 C 73.486 264.147,73.754 264.676,74.081 264.802 C 74.409 264.927,74.677 265.369,74.677 265.782 C 74.677 266.196,74.856 266.534,75.074 266.534 C 75.293 266.534,75.472 266.897,75.472 267.341 C 75.472 267.785,75.740 268.251,76.068 268.377 C 76.395 268.502,76.663 268.827,76.663 269.098 C 76.663 269.747,77.804 272.017,78.277 272.309 C 78.482 272.436,78.649 272.976,78.649 273.509 C 78.649 274.042,78.809 274.479,79.004 274.479 C 79.198 274.479,79.470 274.926,79.607 275.472 C 79.744 276.018,80.032 276.465,80.246 276.465 C 80.460 276.465,80.636 276.812,80.636 277.236 C 80.636 277.660,80.814 278.117,81.033 278.252 C 81.251 278.387,81.430 278.850,81.430 279.281 C 81.430 279.712,81.698 280.168,82.026 280.293 C 82.354 280.419,82.622 280.711,82.622 280.942 C 82.622 281.651,83.946 284.409,84.287 284.409 C 84.463 284.409,84.608 284.856,84.608 285.402 C 84.608 285.948,84.786 286.395,85.005 286.395 C 85.223 286.395,85.402 286.758,85.402 287.202 C 85.402 287.646,85.670 288.112,85.998 288.238 C 86.895 288.582,86.895 316.237,85.998 316.981 C 85.490 317.403,85.402 319.433,85.402 330.734 C 85.402 339.447,85.264 343.992,84.999 343.992 C 84.730 343.992,84.602 351.181,84.615 365.479 C 84.631 383.843,84.716 386.935,85.197 386.751 C 85.550 386.615,85.684 386.730,85.558 387.059 C 85.447 387.348,85.635 387.862,85.975 388.202 C 86.315 388.543,86.594 389.080,86.594 389.397 C 86.594 389.713,86.862 390.195,87.190 390.467 C 87.517 390.739,87.786 391.234,87.786 391.568 C 87.786 392.298,92.023 396.425,92.772 396.425 C 93.062 396.425,93.410 396.604,93.545 396.822 C 93.680 397.041,95.306 397.219,97.159 397.219 L 100.526 397.219 100.412 393.545 C 100.329 390.865,100.164 389.898,99.801 389.970 C 99.405 390.049,99.305 373.844,99.305 310.001 C 99.305 239.359,99.235 229.863,98.709 229.337 C 98.381 229.010,98.108 228.888,98.101 229.068 C 98.094 229.247,97.857 229.091,97.575 228.720 C 97.293 228.349,96.607 227.963,96.051 227.862 C 94.794 227.634,93.346 226.755,93.347 226.220 C 93.347 226.000,92.677 225.819,91.857 225.819 C 90.877 225.819,90.401 225.649,90.467 225.323 C 90.525 225.030,90.153 224.826,89.561 224.826 C 89.007 224.826,88.452 224.558,88.326 224.230 C 88.201 223.903,87.670 223.635,87.147 223.635 C 86.610 223.635,86.197 223.399,86.197 223.094 C 86.197 222.731,85.869 222.616,85.204 222.743 C 84.476 222.882,84.211 222.761,84.211 222.291 C 84.211 221.937,84.076 221.670,83.913 221.695 C 83.015 221.837,82.209 221.597,82.423 221.251 C 82.569 221.015,82.096 220.854,81.255 220.854 C 80.263 220.854,79.841 220.676,79.841 220.258 C 79.841 219.927,79.488 219.662,79.047 219.662 C 78.610 219.662,78.252 219.484,78.252 219.265 C 78.252 219.047,77.743 218.868,77.121 218.868 C 76.499 218.868,75.561 218.489,75.036 218.027 C 74.511 217.564,73.590 217.010,72.989 216.796 C 72.388 216.582,71.897 216.235,71.897 216.025 C 71.897 215.815,71.732 215.745,71.532 215.869 C 71.331 215.993,70.885 215.814,70.542 215.470 C 70.198 215.126,69.737 214.956,69.516 215.092 C 69.296 215.229,69.116 215.130,69.116 214.873 C 69.116 214.607,68.786 214.492,68.347 214.607 C 67.903 214.723,67.489 214.575,67.367 214.256 C 67.250 213.952,66.692 213.704,66.126 213.704 C 65.541 213.704,65.203 213.533,65.343 213.307 C 65.566 212.945,65.029 212.734,64.229 212.870 C 64.053 212.899,63.638 212.653,63.307 212.321 C 62.975 211.989,62.468 211.718,62.179 211.718 C 61.890 211.718,61.551 211.450,61.425 211.122 C 61.300 210.794,60.831 210.526,60.384 210.526 C 59.548 210.526,58.307 209.943,57.115 208.989 C 56.741 208.689,56.169 208.546,55.844 208.670 C 55.445 208.824,55.325 208.711,55.475 208.321 C 55.621 207.939,55.434 207.746,54.918 207.746 C 54.490 207.746,53.300 207.299,52.273 206.753 C 51.245 206.207,50.116 205.760,49.764 205.760 C 49.411 205.760,49.227 205.655,49.355 205.528 C 49.644 205.239,48.214 203.774,47.643 203.774 C 47.412 203.774,47.321 203.614,47.442 203.419 C 47.562 203.224,47.208 202.950,46.654 202.811 C 45.441 202.507,43.234 200.622,43.530 200.143 C 43.646 199.955,43.462 199.801,43.122 199.801 C 42.781 199.801,42.502 199.561,42.502 199.267 C 42.502 198.974,42.056 198.214,41.510 197.579 C 40.623 196.547,40.334 195.823,40.465 194.950 C 40.488 194.794,40.241 194.768,39.916 194.893 C 39.486 195.058,39.325 194.838,39.325 194.084 C 39.325 193.515,39.146 193.049,38.928 193.049 C 38.709 193.049,38.530 192.713,38.530 192.303 C 38.530 191.893,38.262 191.335,37.934 191.063 C 37.607 190.791,37.339 190.143,37.339 189.624 C 37.339 189.104,37.160 188.679,36.941 188.679 C 36.693 188.679,36.544 186.238,36.544 182.149 C 36.544 178.223,36.703 175.520,36.941 175.372 C 37.160 175.237,37.339 173.637,37.339 171.816 C 37.339 169.240,37.471 168.455,37.934 168.277 C 38.429 168.088,38.530 166.999,38.530 161.903 C 38.530 158.234,38.690 155.658,38.928 155.511 C 39.149 155.375,39.325 153.535,39.325 151.360 C 39.325 148.254,39.447 147.407,39.921 147.225 C 40.416 147.035,40.516 145.920,40.516 140.605 C 40.516 136.652,40.661 134.303,40.895 134.447 C 41.117 134.584,41.332 133.562,41.413 131.988 C 41.511 130.106,41.576 130.640,41.630 133.764 C 41.677 136.426,41.869 138.232,42.105 138.232 C 42.332 138.232,42.502 139.408,42.502 140.964 C 42.502 142.908,42.674 143.839,43.098 144.191 C 43.561 144.575,43.694 145.650,43.694 149.006 C 43.694 151.622,43.851 153.327,44.091 153.327 C 44.319 153.327,44.489 154.523,44.489 156.120 C 44.489 158.236,44.633 158.968,45.084 159.141 C 45.558 159.323,45.680 160.170,45.680 163.276 C 45.680 165.452,45.856 167.291,46.077 167.428 C 46.296 167.563,46.475 169.148,46.475 170.951 C 46.475 173.217,46.655 174.465,47.058 174.999 C 47.432 175.493,47.646 176.723,47.654 178.427 C 47.661 179.889,47.845 181.196,48.064 181.331 C 48.282 181.466,48.461 182.715,48.461 184.106 C 48.461 185.826,48.652 186.827,49.057 187.232 C 49.384 187.560,49.652 187.999,49.652 188.208 C 49.652 188.417,49.911 189.088,50.228 189.698 C 50.544 190.308,50.713 190.954,50.602 191.133 C 50.491 191.313,50.598 191.460,50.840 191.460 C 51.081 191.460,52.173 192.354,53.265 193.446 C 54.358 194.538,55.611 195.432,56.050 195.432 C 56.490 195.432,56.747 195.598,56.621 195.801 C 56.496 196.003,56.798 196.286,57.293 196.428 C 58.754 196.848,60.722 197.807,60.980 198.223 C 61.111 198.436,61.566 198.610,61.990 198.610 C 62.414 198.610,62.761 198.788,62.761 199.007 C 62.761 199.225,63.124 199.404,63.568 199.404 C 64.011 199.404,64.477 199.672,64.603 200.000 C 64.745 200.369,65.349 200.596,66.192 200.596 C 67.032 200.596,67.639 200.823,67.780 201.189 C 67.905 201.516,68.168 201.684,68.363 201.563 C 68.559 201.442,68.719 201.622,68.719 201.963 C 68.719 202.407,69.117 202.582,70.127 202.582 C 71.100 202.582,71.843 202.889,72.529 203.575 C 73.149 204.195,73.972 204.568,74.719 204.568 C 75.416 204.568,75.813 204.734,75.670 204.965 C 75.532 205.189,75.849 205.362,76.393 205.362 C 76.925 205.362,77.583 205.631,77.855 205.958 C 78.127 206.286,78.596 206.554,78.897 206.554 C 79.198 206.554,79.444 206.733,79.444 206.951 C 79.444 207.170,79.896 207.349,80.449 207.349 C 81.002 207.349,81.558 207.617,81.684 207.944 C 81.809 208.272,82.340 208.540,82.863 208.540 C 83.386 208.540,83.813 208.719,83.813 208.937 C 83.813 209.156,84.176 209.335,84.620 209.335 C 85.064 209.335,85.530 209.603,85.656 209.930 C 85.782 210.258,86.136 210.526,86.443 210.526 C 86.954 210.526,87.796 210.887,89.374 211.782 C 89.702 211.968,90.238 212.243,90.566 212.393 C 90.894 212.544,91.412 212.914,91.718 213.216 C 92.023 213.518,92.598 213.681,92.995 213.577 C 93.405 213.470,93.680 213.585,93.631 213.844 C 93.584 214.095,94.037 214.356,94.638 214.426 C 95.238 214.495,95.730 214.718,95.730 214.922 C 95.730 215.126,96.158 215.293,96.680 215.293 C 97.203 215.293,97.734 215.561,97.860 215.889 C 97.991 216.230,98.584 216.485,99.250 216.485 C 99.937 216.485,100.509 216.738,100.650 217.106 C 100.781 217.447,101.049 217.627,101.247 217.505 C 101.444 217.383,101.707 217.551,101.833 217.877 C 101.963 218.217,102.558 218.471,103.222 218.471 C 103.909 218.471,104.481 218.724,104.622 219.092 C 104.753 219.433,105.022 219.613,105.219 219.491 C 105.416 219.369,105.680 219.537,105.805 219.863 C 105.935 220.202,106.529 220.457,107.188 220.457 C 107.824 220.457,108.566 220.725,108.838 221.053 C 109.110 221.380,109.668 221.648,110.078 221.648 C 110.489 221.648,110.824 221.827,110.824 222.046 C 110.824 222.264,111.194 222.443,111.647 222.443 C 112.100 222.443,112.738 222.711,113.066 223.039 C 113.393 223.366,114.085 223.635,114.603 223.635 C 115.120 223.635,115.654 223.813,115.789 224.032 C 116.096 224.527,125.521 224.569,125.521 224.075 C 125.521 223.880,125.968 223.609,126.514 223.471 C 127.061 223.334,127.507 223.047,127.507 222.833 C 127.507 222.618,127.871 222.443,128.314 222.443 C 128.758 222.443,129.224 222.176,129.349 221.849 C 129.474 221.523,129.737 221.355,129.932 221.476 C 130.128 221.596,130.288 221.417,130.288 221.076 C 130.288 220.553,131.161 220.258,132.315 220.390 C 132.446 220.405,132.470 219.980,132.368 219.444 C 132.232 218.736,132.356 218.471,132.824 218.471 C 133.177 218.471,133.466 218.192,133.466 217.851 C 133.466 217.511,133.644 217.343,133.863 217.478 C 134.089 217.617,134.260 217.279,134.260 216.694 C 134.260 216.128,134.528 215.562,134.856 215.437 C 135.224 215.296,135.452 214.692,135.452 213.860 C 135.452 213.047,135.649 212.512,135.948 212.513 C 136.606 212.513,136.519 204.188,135.858 203.779 C 135.613 203.628,135.383 203.117,135.347 202.645 C 135.312 202.174,135.041 201.787,134.745 201.787 C 134.399 201.787,134.291 201.521,134.444 201.040 C 134.594 200.568,134.457 200.207,134.073 200.060 C 133.739 199.931,133.465 199.508,133.465 199.119 C 133.465 198.730,132.750 197.739,131.876 196.917 C 131.003 196.095,130.288 195.246,130.288 195.030 C 130.288 194.814,129.852 194.638,129.318 194.638 C 128.785 194.638,128.238 194.459,128.103 194.240 C 127.968 194.022,127.511 193.843,127.087 193.843 C 126.663 193.843,126.316 193.613,126.316 193.332 C 126.316 193.051,125.916 192.790,125.428 192.754 C 124.940 192.717,124.478 192.500,124.402 192.272 C 124.326 192.044,123.851 191.857,123.346 191.857 C 122.841 191.857,122.326 191.589,122.200 191.261 C 122.074 190.933,121.603 190.665,121.152 190.665 C 120.701 190.665,120.237 190.417,120.121 190.113 C 119.998 189.794,119.585 189.646,119.140 189.763 C 118.717 189.873,118.371 189.781,118.371 189.559 C 118.371 189.336,117.822 188.963,117.150 188.728 C 116.478 188.494,116.026 188.145,116.145 187.952 C 116.264 187.760,115.922 187.686,115.385 187.789 C 114.729 187.914,114.328 187.765,114.163 187.334 C 114.028 186.982,113.655 186.693,113.335 186.693 C 113.015 186.693,112.493 186.433,112.175 186.114 C 111.856 185.796,111.356 185.627,111.063 185.740 C 110.769 185.852,110.423 185.666,110.292 185.326 C 110.162 184.985,109.714 184.707,109.296 184.707 C 108.879 184.707,108.316 184.439,108.044 184.111 C 107.772 183.784,107.303 183.515,107.002 183.515 C 106.701 183.515,106.455 183.337,106.455 183.118 C 106.455 182.900,106.008 182.721,105.462 182.721 C 104.815 182.721,104.469 182.499,104.469 182.083 C 104.469 181.579,104.137 181.478,102.880 181.597 C 102.006 181.681,101.291 181.644,101.291 181.515 C 101.291 180.788,99.526 179.543,98.495 179.543 C 97.848 179.543,97.319 179.364,97.319 179.146 C 97.319 178.928,96.872 178.749,96.326 178.749 C 95.780 178.749,95.333 178.519,95.333 178.237 C 95.333 177.956,94.933 177.696,94.445 177.659 C 93.956 177.622,93.495 177.406,93.419 177.178 C 93.343 176.949,92.848 176.763,92.320 176.763 C 91.792 176.763,91.360 176.618,91.360 176.442 C 91.360 176.101,88.602 174.777,87.893 174.777 C 87.662 174.777,87.370 174.508,87.245 174.181 C 87.119 173.853,86.653 173.585,86.209 173.585 C 85.765 173.585,85.402 173.406,85.402 173.188 C 85.402 172.969,84.955 172.790,84.409 172.790 C 83.863 172.790,83.416 172.646,83.416 172.470 C 83.416 172.118,80.648 170.804,79.906 170.804 C 79.599 170.804,79.444 169.884,79.444 168.066 C 79.444 165.999,79.298 165.272,78.848 165.100 C 78.410 164.932,78.252 164.241,78.252 162.499 C 78.252 161.194,78.073 160.016,77.855 159.881 C 77.631 159.743,77.458 157.831,77.458 155.508 C 77.458 152.141,77.341 151.315,76.824 151.025 C 76.324 150.746,76.219 150.151,76.327 148.224 C 76.426 146.458,76.327 145.778,75.968 145.779 C 75.557 145.779,75.129 138.814,75.425 136.941 C 75.451 136.778,75.192 136.643,74.851 136.643 C 74.331 136.643,74.244 136.112,74.316 133.387 C 74.373 131.211,74.250 130.079,73.944 129.977 C 73.679 129.889,73.486 128.982,73.486 127.823 C 73.486 126.089,73.565 125.887,74.081 126.316 C 74.409 126.588,74.677 127.135,74.677 127.533 C 74.677 127.930,74.856 128.365,75.074 128.500 C 75.293 128.636,75.472 129.160,75.472 129.667 C 75.472 130.173,75.740 130.810,76.068 131.082 C 76.395 131.354,76.663 131.902,76.663 132.299 C 76.663 132.697,76.842 133.132,77.061 133.267 C 77.279 133.402,77.458 134.044,77.458 134.693 C 77.458 135.376,77.709 135.970,78.054 136.103 C 78.442 136.252,78.649 136.870,78.649 137.878 C 78.649 138.728,78.828 139.424,79.047 139.424 C 79.265 139.424,79.444 139.670,79.444 139.971 C 79.444 140.272,79.712 140.741,80.040 141.013 C 80.367 141.285,80.636 141.917,80.636 142.419 C 80.636 142.920,80.822 143.392,81.050 143.468 C 81.279 143.544,81.495 144.006,81.532 144.494 C 81.569 144.983,81.829 145.382,82.110 145.382 C 82.452 145.382,82.622 145.981,82.622 147.189 C 82.622 148.605,82.836 149.194,83.615 149.916 C 84.333 150.581,84.608 151.247,84.608 152.322 C 84.608 153.457,84.744 153.757,85.183 153.588 C 85.549 153.448,85.686 153.558,85.558 153.892 C 85.447 154.180,85.635 154.694,85.975 155.035 C 86.315 155.375,86.594 156.208,86.594 156.886 C 86.594 157.615,86.837 158.212,87.190 158.347 C 87.517 158.473,87.786 158.900,87.786 159.296 C 87.786 160.513,91.244 163.654,92.583 163.654 C 93.222 163.654,93.744 163.833,93.744 164.052 C 93.744 164.270,94.012 164.449,94.340 164.449 C 94.667 164.449,94.935 164.615,94.935 164.817 C 94.935 165.282,97.213 166.435,98.132 166.435 C 98.512 166.435,98.926 166.703,99.051 167.031 C 99.856 169.128,102.483 166.457,102.483 163.542 C 102.483 162.293,102.661 161.271,102.880 161.271 C 103.098 161.271,103.277 160.377,103.277 159.285 C 103.277 157.784,103.423 157.299,103.873 157.299 C 104.363 157.299,104.469 156.593,104.469 153.327 C 104.469 150.943,104.628 149.355,104.866 149.355 C 105.100 149.355,105.263 147.964,105.263 145.978 C 105.263 143.242,105.376 142.602,105.859 142.602 C 106.336 142.602,106.455 142.006,106.455 139.623 C 106.455 137.504,106.598 136.644,106.951 136.644 C 107.320 136.645,107.414 135.762,107.317 133.202 C 107.211 130.386,107.301 129.695,107.814 129.408 C 108.274 129.150,108.441 128.436,108.441 126.726 C 108.441 125.445,108.622 124.336,108.842 124.262 C 109.428 124.067,109.471 108.517,108.888 107.934 C 108.642 107.689,108.441 107.066,108.441 106.551 C 108.441 106.023,108.266 105.721,108.041 105.861 C 107.821 105.997,107.540 105.784,107.416 105.388 C 107.292 104.991,107.026 104.357,106.823 103.978 C 106.621 103.598,106.455 102.928,106.455 102.488 C 106.455 102.042,106.191 101.688,105.859 101.688 C 105.531 101.688,105.263 101.450,105.263 101.159 C 105.263 100.869,104.836 100.402,104.314 100.123 C 103.792 99.843,103.136 99.187,102.856 98.665 C 102.577 98.143,102.153 97.716,101.914 97.716 C 101.675 97.716,101.144 97.269,100.734 96.723 C 100.324 96.177,99.664 95.730,99.269 95.730 C 98.873 95.730,98.384 95.434,98.182 95.073 C 97.961 94.677,97.557 94.514,97.169 94.663 C 96.755 94.822,96.524 94.702,96.524 94.327 C 96.524 93.965,96.136 93.744,95.503 93.744 C 94.941 93.744,94.213 93.476,93.886 93.148 C 93.491 92.754,92.501 92.552,90.958 92.552 C 89.676 92.552,88.516 92.373,88.381 92.155 C 88.246 91.936,87.074 91.758,85.776 91.758 C 84.468 91.758,83.416 91.581,83.416 91.360 C 83.416 91.127,82.022 90.963,80.027 90.963 C 77.381 90.963,76.588 90.833,76.410 90.367 C 76.243 89.933,75.559 89.772,73.883 89.772 C 72.292 89.772,71.520 89.602,71.374 89.222 C 71.218 88.815,70.212 88.657,67.509 88.614 C 65.499 88.582,63.531 88.383,63.135 88.171 C 62.213 87.677,51.523 87.665,51.023 88.156 M329.567 124.984 C 329.214 125.338,328.500 124.733,328.500 124.079 C 328.500 123.561,328.588 123.566,329.144 124.122 C 329.497 124.475,329.688 124.864,329.567 124.984 M149.040 205.041 C 148.727 205.354,148.560 206.944,148.560 209.613 C 148.560 213.063,148.463 213.704,147.937 213.704 C 147.483 213.704,147.387 213.933,147.583 214.548 C 147.742 215.051,147.656 215.513,147.368 215.691 C 147.102 215.855,146.792 216.816,146.678 217.826 C 146.546 218.992,146.277 219.662,145.939 219.662 C 145.647 219.662,145.501 219.907,145.616 220.207 C 145.731 220.506,145.539 220.861,145.190 220.995 C 144.383 221.305,144.455 224.429,145.269 224.429 C 145.613 224.429,145.733 224.772,145.615 225.422 C 145.491 226.103,145.614 226.415,146.004 226.415 C 146.423 226.415,146.574 226.941,146.574 228.401 C 146.574 229.919,146.717 230.387,147.182 230.387 C 147.713 230.387,147.785 231.712,147.753 240.886 C 147.716 251.426,148.006 253.823,149.318 253.823 C 149.506 253.823,149.753 254.181,149.867 254.618 C 149.991 255.093,150.409 255.412,150.906 255.412 C 151.381 255.412,151.738 255.668,151.738 256.008 C 151.738 256.365,152.104 256.604,152.651 256.604 C 153.154 256.604,153.735 256.769,153.942 256.971 C 154.523 257.537,160.479 257.694,160.478 257.143 C 160.477 256.894,160.924 256.578,161.470 256.441 C 162.016 256.304,162.463 256.016,162.463 255.802 C 162.463 255.587,162.808 255.412,163.230 255.412 C 163.952 255.412,166.068 253.043,165.370 253.017 C 165.191 253.010,165.357 252.822,165.740 252.600 C 166.768 252.001,166.818 222.278,165.791 221.883 C 165.311 221.699,165.208 221.329,165.387 220.436 C 165.558 219.576,165.459 219.171,165.038 219.009 C 164.714 218.885,164.449 218.439,164.449 218.019 C 164.449 217.598,164.166 217.146,163.821 217.013 C 163.441 216.867,163.270 216.477,163.389 216.023 C 163.527 215.497,163.122 214.903,162.031 214.026 C 161.025 213.217,160.477 212.450,160.477 211.850 C 160.477 211.291,160.240 210.924,159.881 210.924 C 159.553 210.924,159.285 210.747,159.285 210.531 C 159.285 209.771,157.907 208.540,157.056 208.540 C 156.548 208.540,155.741 207.970,155.087 207.150 C 154.400 206.289,153.632 205.760,153.069 205.760 C 152.505 205.760,152.232 205.571,152.350 205.263 C 152.606 204.594,149.684 204.398,149.040 205.041 M127.905 235.154 C 127.905 235.372,127.560 235.551,127.139 235.551 C 126.717 235.551,126.109 235.815,125.786 236.137 C 125.326 236.598,123.769 236.747,118.509 236.832 L 111.817 236.941 111.717 314.378 C 111.650 365.737,111.751 391.949,112.015 392.213 C 112.234 392.433,112.413 393.136,112.413 393.778 C 112.413 394.905,114.076 397.013,114.573 396.516 C 114.696 396.393,114.796 396.501,114.796 396.756 C 114.796 397.091,116.664 397.219,121.529 397.219 C 128.818 397.219,130.288 396.770,130.288 394.541 C 130.288 394.102,130.556 393.519,130.884 393.247 C 131.963 392.352,131.766 236.632,130.685 235.551 C 129.865 234.731,127.905 234.451,127.905 235.154 " stroke="none" fill="#fcbcb4" fill-rule="evenodd"></path><path id="path1" d="" stroke="none" fill="#100bcb4" fill-rule="evenodd"></path></g></svg>