<svg id="svg" version="1.1" xmlns="http://www.w3.org/2000/svg" xmlns:xlink="http://www.w3.org/1999/xlink" width="400" height="397" viewBox="0, 0, 400,397"><g id="svgg"><path id="path0" d="M174.561 0.424 C 174.411 0.667,173.483 0.784,172.394 0.697 C 170.940 0.581,170.536 0.668,170.689 1.067 C 170.834 1.446,170.442 1.589,169.258 1.589 C 168.015 1.589,167.627 1.743,167.627 2.237 C 167.627 2.753,167.349 2.839,166.261 2.663 C 165.338 2.513,164.743 2.625,164.425 3.008 C 164.166 3.320,163.549 3.575,163.052 3.575 C 162.556 3.575,162.048 3.843,161.922 4.171 C 161.780 4.542,161.174 4.767,160.319 4.767 C 159.327 4.767,158.729 5.042,158.164 5.760 C 157.636 6.431,156.991 6.753,156.173 6.753 C 155.507 6.753,154.852 6.931,154.717 7.150 C 154.582 7.368,154.125 7.547,153.700 7.547 C 153.276 7.547,152.929 7.815,152.929 8.143 C 152.929 8.507,152.559 8.739,151.978 8.739 C 151.455 8.739,150.606 9.183,150.091 9.725 C 149.577 10.267,148.781 10.714,148.323 10.718 C 147.086 10.728,145.096 11.832,143.576 13.352 C 142.836 14.092,141.868 14.697,141.423 14.697 C 140.979 14.697,140.616 14.876,140.616 15.094 C 140.616 15.313,140.337 15.492,139.996 15.492 C 139.656 15.492,139.484 15.664,139.614 15.874 C 139.860 16.274,138.454 17.910,137.934 17.828 C 137.143 17.703,136.621 17.915,136.842 18.272 C 136.977 18.491,136.897 18.669,136.664 18.669 C 136.431 18.669,134.464 20.457,132.293 22.642 C 130.122 24.826,128.202 26.614,128.026 26.615 C 127.850 26.615,127.356 27.139,126.927 27.778 C 126.499 28.418,126.007 28.853,125.835 28.747 C 125.662 28.640,125.521 28.832,125.521 29.172 C 125.521 29.513,125.343 29.791,125.124 29.791 C 124.906 29.791,124.727 30.147,124.727 30.581 C 124.727 31.015,124.012 32.043,123.139 32.865 C 122.265 33.687,121.550 34.641,121.550 34.985 C 121.549 35.330,121.102 36.031,120.556 36.544 C 120.010 37.057,119.563 37.714,119.563 38.004 C 119.563 38.293,119.384 38.530,119.166 38.530 C 118.947 38.530,118.769 38.977,118.769 39.523 C 118.769 40.141,118.544 40.516,118.173 40.516 C 117.799 40.516,117.577 40.894,117.577 41.527 C 117.577 42.084,117.130 42.985,116.584 43.532 C 116.038 44.078,115.591 44.944,115.591 45.457 C 115.591 45.970,115.321 46.493,114.991 46.620 C 114.662 46.746,114.415 46.989,114.443 47.159 C 114.590 48.057,114.350 48.875,114.002 48.659 C 113.776 48.519,113.605 48.863,113.605 49.459 C 113.605 50.033,113.321 50.788,112.973 51.135 C 112.554 51.554,112.390 52.269,112.484 53.261 C 112.563 54.083,112.455 54.724,112.246 54.686 C 112.036 54.649,111.791 54.975,111.701 55.412 C 111.610 55.849,111.267 56.510,110.938 56.882 C 110.546 57.325,110.393 58.111,110.493 59.166 C 110.600 60.286,110.493 60.775,110.140 60.775 C 109.789 60.775,109.633 61.457,109.633 62.983 C 109.633 64.354,109.482 65.098,109.235 64.945 C 109.017 64.810,108.825 64.934,108.809 65.220 C 108.666 67.731,107.982 68.719,106.387 68.719 C 105.658 68.719,104.882 69.089,104.305 69.712 C 103.799 70.258,103.182 70.705,102.934 70.705 C 102.686 70.705,102.483 70.938,102.483 71.223 C 102.483 71.508,101.857 72.347,101.092 73.088 C 100.328 73.830,99.702 74.714,99.703 75.053 C 99.703 75.584,99.035 75.653,94.933 75.548 C 90.903 75.444,90.125 75.521,89.924 76.044 C 89.781 76.416,89.207 76.663,88.484 76.663 C 87.711 76.663,86.952 77.018,86.360 77.656 C 85.854 78.203,85.356 78.649,85.253 78.649 C 84.792 78.649,82.622 81.155,82.622 81.688 C 82.622 82.014,82.354 82.549,82.026 82.877 C 81.698 83.205,81.430 83.986,81.430 84.613 C 81.430 85.240,81.251 85.863,81.033 85.998 C 80.784 86.151,80.636 90.114,80.636 96.569 L 80.636 106.895 75.277 106.774 C 71.264 106.684,69.870 106.778,69.728 107.150 C 69.620 107.432,68.858 107.646,67.965 107.646 C 67.100 107.646,66.147 107.892,65.846 108.193 C 65.546 108.493,64.793 108.739,64.173 108.739 C 63.540 108.739,62.886 109.025,62.681 109.393 C 62.479 109.752,62.119 109.926,61.880 109.778 C 61.619 109.617,61.560 109.694,61.731 109.971 C 61.898 110.240,61.717 110.529,61.296 110.664 C 59.735 111.167,58.788 111.777,58.788 112.282 C 58.788 112.572,58.520 112.810,58.193 112.810 C 57.865 112.810,57.597 113.073,57.597 113.394 C 57.597 113.751,57.364 113.888,56.996 113.747 C 56.567 113.582,56.466 113.698,56.642 114.156 C 56.777 114.508,56.692 114.796,56.453 114.796 C 56.214 114.796,55.757 115.422,55.438 116.187 C 55.118 116.951,54.703 117.577,54.516 117.577 C 53.854 117.577,52.830 120.649,52.830 122.633 C 52.830 124.052,52.655 124.709,52.234 124.871 C 51.708 125.073,51.637 134.379,51.626 205.251 C 51.612 291.926,51.745 286.792,49.509 286.792 C 48.824 286.792,48.461 287.007,48.461 287.412 C 48.461 287.752,48.282 287.921,48.064 287.786 C 47.845 287.650,47.666 287.819,47.666 288.159 C 47.666 288.555,47.308 288.779,46.673 288.779 C 46.127 288.779,45.680 288.970,45.680 289.204 C 45.680 289.857,44.625 290.765,43.865 290.765 C 43.491 290.765,42.342 291.658,41.311 292.751 C 40.280 293.843,39.138 294.737,38.772 294.737 C 38.407 294.737,38.005 295.005,37.879 295.333 C 37.754 295.660,37.478 295.929,37.268 295.929 C 36.604 295.929,35.750 297.030,35.750 297.886 C 35.750 298.367,35.492 298.709,35.130 298.709 C 34.790 298.709,34.602 298.856,34.713 299.035 C 34.939 299.401,33.575 300.695,32.965 300.695 C 32.749 300.695,32.572 300.889,32.572 301.125 C 32.572 301.362,31.946 302.163,31.182 302.906 C 30.417 303.649,29.791 304.501,29.791 304.801 C 29.791 305.101,29.307 305.863,28.714 306.496 C 28.121 307.129,27.595 307.911,27.544 308.235 C 27.493 308.559,27.263 308.887,27.033 308.963 C 26.802 309.040,26.614 309.427,26.614 309.823 C 26.614 310.218,26.170 310.963,25.628 311.478 C 25.085 311.992,24.638 312.715,24.634 313.085 C 24.631 313.454,24.449 313.867,24.230 314.002 C 24.012 314.137,23.833 314.754,23.833 315.373 C 23.833 316.007,23.573 316.599,23.237 316.728 C 22.868 316.869,22.642 317.474,22.642 318.316 C 22.642 319.159,22.415 319.764,22.046 319.905 C 21.718 320.031,21.450 320.487,21.450 320.917 C 21.450 321.348,21.271 321.811,21.053 321.946 C 20.834 322.081,20.655 322.975,20.655 323.932 C 20.655 324.890,20.477 325.784,20.258 325.919 C 20.040 326.054,19.861 326.963,19.861 327.941 C 19.861 329.153,19.672 329.790,19.265 329.946 C 18.805 330.122,18.669 330.892,18.669 333.338 C 18.669 335.620,18.503 336.668,18.073 337.097 C 17.659 337.512,17.478 338.529,17.478 340.445 C 17.478 342.015,17.307 343.198,17.080 343.198 C 16.862 343.198,16.683 344.194,16.683 345.411 C 16.683 346.848,16.474 347.833,16.087 348.220 C 15.658 348.649,15.492 349.695,15.492 351.965 C 15.492 353.800,15.326 355.114,15.094 355.114 C 14.874 355.114,14.697 356.173,14.697 357.498 C 14.697 359.232,14.551 359.881,14.161 359.881 C 13.769 359.881,13.604 360.650,13.543 362.761 C 13.498 364.345,13.292 365.810,13.086 366.018 C 12.880 366.225,12.711 367.884,12.711 369.705 C 12.711 372.083,12.563 373.071,12.185 373.216 C 11.863 373.340,11.624 374.204,11.567 375.457 C 11.516 376.578,11.275 377.867,11.033 378.320 C 10.519 379.281,10.598 382.944,11.145 383.496 C 11.351 383.703,11.519 384.731,11.519 385.780 C 11.519 387.093,11.674 387.655,12.016 387.587 C 12.327 387.525,12.521 387.964,12.536 388.762 C 12.552 389.615,12.914 390.365,13.629 391.027 C 14.216 391.572,14.697 392.288,14.697 392.618 C 14.697 392.948,15.448 393.939,16.366 394.821 C 17.917 396.312,18.395 396.594,19.166 396.472 C 19.330 396.446,19.464 396.604,19.464 396.822 C 19.464 397.086,80.186 397.219,200.837 397.219 L 382.211 397.219 384.750 394.668 C 386.146 393.265,387.289 391.946,387.289 391.738 C 387.289 391.529,387.557 391.136,387.885 390.864 C 388.213 390.592,388.481 389.944,388.481 389.425 C 388.481 388.905,388.718 388.481,389.008 388.481 C 389.372 388.481,389.478 388.097,389.352 387.235 C 389.223 386.357,389.360 385.883,389.818 385.627 C 390.741 385.110,390.789 376.376,389.871 376.023 C 389.414 375.848,389.275 375.096,389.275 372.803 C 389.275 371.073,389.108 369.811,388.878 369.811 C 388.659 369.811,388.481 368.932,388.481 367.858 C 388.481 365.654,388.171 364.547,387.645 364.872 C 387.446 364.995,387.289 363.601,387.289 361.715 C 387.289 359.858,387.110 358.228,386.892 358.093 C 386.673 357.958,386.495 357.289,386.495 356.607 C 386.495 355.645,386.069 354.956,384.608 353.552 L 382.721 351.738 379.386 351.791 C 376.730 351.834,375.976 351.979,375.682 352.504 C 375.446 352.927,375.040 353.076,374.548 352.920 C 374.032 352.756,373.784 352.866,373.784 353.257 C 373.784 353.577,373.515 353.940,373.188 354.066 C 372.860 354.192,372.592 354.658,372.592 355.102 C 372.592 355.546,372.426 355.909,372.224 355.909 C 372.021 355.909,371.798 357.428,371.727 359.286 C 371.638 361.637,371.737 362.663,372.055 362.662 C 372.351 362.662,372.559 363.847,372.650 366.052 C 372.745 368.344,372.964 369.551,373.327 369.775 C 373.704 370.007,373.822 370.770,373.724 372.342 C 373.625 373.941,373.726 374.579,374.081 374.578 C 374.431 374.578,374.578 375.395,374.578 377.339 C 374.578 379.549,374.717 380.180,375.273 380.504 C 375.935 380.890,375.935 380.910,375.273 380.921 C 374.802 380.930,374.578 381.250,374.578 381.914 C 374.578 382.575,374.222 383.087,373.486 383.487 C 372.885 383.813,372.561 384.087,372.766 384.095 C 372.971 384.104,372.755 384.469,372.286 384.906 C 371.456 385.679,370.884 385.700,350.960 385.700 L 330.487 385.700 330.440 383.615 C 330.414 382.468,330.414 381.395,330.440 381.231 C 330.465 381.068,330.234 380.933,329.926 380.933 C 329.493 380.933,329.367 380.267,329.374 378.011 C 329.379 376.403,329.185 374.717,328.942 374.263 C 328.699 373.810,328.500 372.555,328.500 371.475 C 328.500 370.214,328.287 369.334,327.905 369.017 C 327.462 368.649,327.309 367.668,327.309 365.195 C 327.309 363.241,327.145 361.867,326.912 361.867 C 326.684 361.867,326.514 360.671,326.514 359.074 C 326.514 356.958,326.370 356.226,325.919 356.052 C 325.463 355.877,325.323 355.130,325.323 352.875 C 325.323 350.551,325.189 349.874,324.694 349.684 C 324.196 349.493,324.081 348.894,324.142 346.817 C 324.248 343.223,324.193 342.715,323.734 342.999 C 323.494 343.147,323.337 342.614,323.337 341.656 C 323.337 340.782,323.158 339.956,322.939 339.821 C 322.721 339.686,322.542 339.318,322.542 339.003 C 322.542 338.181,321.086 336.842,320.192 336.842 C 319.773 336.842,319.365 336.645,319.285 336.405 C 319.088 335.815,312.888 335.815,312.691 336.405 C 312.611 336.645,312.248 336.848,311.883 336.855 C 310.887 336.875,309.493 338.204,309.567 339.063 C 309.603 339.480,309.421 339.781,309.163 339.731 C 308.365 339.578,308.519 349.049,309.322 349.499 C 309.829 349.782,309.908 350.320,309.730 352.284 C 309.555 354.213,309.625 354.717,310.067 354.717 C 310.503 354.717,310.626 355.458,310.626 358.093 C 310.626 360.079,310.789 361.470,311.023 361.470 C 311.246 361.470,311.420 362.586,311.420 364.023 C 311.420 365.763,311.610 366.767,312.016 367.173 C 312.441 367.597,312.612 368.632,312.612 370.776 C 312.612 372.516,312.779 373.784,313.009 373.784 C 313.240 373.784,313.406 375.093,313.406 376.919 C 313.406 379.339,313.542 380.106,314.002 380.283 C 314.429 380.446,314.598 381.113,314.598 382.629 C 314.598 383.794,314.812 384.961,315.074 385.223 C 315.445 385.594,290.111 385.700,201.072 385.700 L 86.594 385.700 86.594 383.142 C 86.594 381.734,86.773 380.473,86.991 380.338 C 87.210 380.203,87.388 378.660,87.388 376.909 C 87.388 374.610,87.554 373.561,87.984 373.131 C 88.351 372.764,88.580 371.791,88.580 370.601 C 88.580 369.537,88.759 368.556,88.977 368.421 C 89.196 368.286,89.374 366.667,89.374 364.823 C 89.374 362.107,89.488 361.470,89.970 361.470 C 90.434 361.470,90.566 360.940,90.566 359.086 C 90.566 357.762,90.743 356.703,90.963 356.703 C 91.199 356.703,91.360 355.247,91.360 353.128 C 91.360 350.292,91.478 349.553,91.929 349.553 C 92.765 349.553,92.765 340.187,91.929 339.866 C 91.616 339.746,91.360 339.401,91.360 339.100 C 91.360 338.318,89.989 336.842,89.262 336.842 C 88.923 336.842,88.581 336.645,88.500 336.405 C 88.306 335.821,82.214 335.819,81.853 336.403 C 81.705 336.642,81.115 336.877,80.543 336.924 C 79.970 336.972,79.577 337.133,79.669 337.282 C 79.761 337.431,79.569 337.656,79.243 337.781 C 78.917 337.906,78.649 338.472,78.649 339.038 C 78.649 339.604,78.489 339.968,78.294 339.847 C 77.769 339.523,77.458 340.627,77.458 342.809 C 77.458 343.871,77.279 344.850,77.061 344.985 C 76.842 345.120,76.663 346.216,76.663 347.420 C 76.663 348.837,76.453 349.820,76.068 350.206 C 75.646 350.628,75.472 351.656,75.472 353.729 C 75.472 355.339,75.293 356.767,75.074 356.902 C 74.856 357.037,74.677 358.477,74.677 360.103 C 74.677 362.229,74.540 363.031,74.189 362.959 C 73.851 362.890,73.659 363.710,73.563 365.641 C 73.487 367.170,73.259 368.591,73.058 368.798 C 72.856 369.006,72.691 370.486,72.691 372.088 C 72.691 374.310,72.550 375.054,72.095 375.229 C 71.646 375.401,71.500 376.125,71.500 378.172 C 71.500 379.665,71.321 380.997,71.102 381.132 C 70.884 381.267,70.705 382.395,70.705 383.638 L 70.705 385.899 50.139 385.700 C 28.179 385.488,27.408 385.410,27.408 383.401 C 27.408 383.183,27.140 382.902,26.812 382.776 C 25.954 382.447,25.954 376.085,26.812 375.372 C 27.236 375.021,27.408 374.090,27.408 372.146 C 27.408 370.643,27.567 369.414,27.761 369.414 C 27.954 369.414,28.185 368.131,28.274 366.562 C 28.373 364.815,28.621 363.647,28.915 363.549 C 29.232 363.444,29.394 362.391,29.394 360.444 C 29.394 358.251,29.530 357.498,29.925 357.498 C 30.302 357.498,30.481 356.778,30.543 355.015 C 30.591 353.649,30.799 352.473,31.005 352.400 C 31.212 352.327,31.386 351.076,31.393 349.619 C 31.401 347.923,31.615 346.694,31.989 346.200 C 32.358 345.711,32.572 344.512,32.572 342.923 C 32.572 341.517,32.746 340.417,32.969 340.417 C 33.188 340.417,33.366 339.384,33.366 338.113 C 33.366 336.846,33.558 335.618,33.791 335.385 C 34.332 334.844,34.490 333.981,34.528 331.357 C 34.546 330.059,34.711 329.342,34.955 329.494 C 35.192 329.640,35.353 329.157,35.353 328.297 C 35.353 327.504,35.621 326.587,35.948 326.259 C 36.276 325.931,36.544 325.240,36.544 324.722 C 36.544 324.204,36.723 323.670,36.941 323.535 C 37.160 323.400,37.339 322.943,37.339 322.519 C 37.339 322.095,37.584 321.748,37.885 321.748 C 38.214 321.748,38.431 321.320,38.431 320.672 C 38.431 320.080,38.632 319.529,38.878 319.447 C 39.124 319.365,39.325 318.847,39.325 318.296 C 39.325 317.553,39.484 317.355,39.941 317.530 C 40.297 317.666,40.454 317.599,40.313 317.371 C 40.179 317.153,40.348 316.868,40.690 316.737 C 41.031 316.606,41.311 316.084,41.311 315.577 C 41.311 315.067,41.754 314.307,42.304 313.874 C 42.850 313.445,43.297 312.820,43.297 312.486 C 43.297 311.871,45.488 309.434,46.041 309.434 C 46.206 309.434,46.580 308.987,46.872 308.441 C 47.164 307.895,47.611 307.448,47.865 307.448 C 48.119 307.448,48.566 307.001,48.858 306.455 C 49.150 305.909,49.551 305.462,49.748 305.462 C 50.243 305.462,51.241 304.419,51.241 303.901 C 51.241 303.667,51.646 303.476,52.140 303.476 C 52.635 303.476,53.374 303.030,53.785 302.483 C 54.195 301.936,54.854 301.490,55.249 301.490 C 55.645 301.490,56.144 301.177,56.357 300.794 C 56.571 300.412,56.848 300.144,56.973 300.199 C 57.475 300.418,58.506 300.280,58.252 300.027 C 57.881 299.655,60.796 298.345,61.442 298.593 C 61.727 298.702,62.070 298.505,62.204 298.154 C 62.338 297.804,62.776 297.517,63.177 297.517 C 63.578 297.517,64.016 297.339,64.151 297.120 C 64.286 296.902,64.907 296.723,65.532 296.723 C 66.156 296.723,66.734 296.521,66.816 296.275 C 66.962 295.837,69.037 295.350,72.783 294.875 C 73.817 294.744,74.867 294.391,75.116 294.091 C 75.396 293.753,76.374 293.545,77.682 293.545 C 78.844 293.545,79.905 293.366,80.040 293.148 C 80.175 292.929,81.258 292.751,82.446 292.751 C 84.103 292.751,84.608 292.612,84.608 292.155 C 84.608 291.687,85.156 291.559,87.161 291.559 C 88.970 291.559,89.900 291.374,90.349 290.925 C 90.806 290.468,91.480 290.340,92.761 290.468 C 94.076 290.599,94.538 290.506,94.538 290.109 C 94.538 289.719,95.186 289.573,96.922 289.573 C 98.775 289.573,99.305 289.441,99.305 288.977 C 99.305 288.514,99.832 288.381,101.665 288.381 C 102.963 288.381,104.135 288.203,104.270 287.984 C 104.405 287.766,105.399 287.587,106.478 287.587 C 107.958 287.587,108.441 287.440,108.441 286.991 C 108.441 286.528,108.968 286.395,110.801 286.395 C 112.099 286.395,113.271 286.216,113.406 285.998 C 113.541 285.780,114.630 285.601,115.825 285.601 C 117.391 285.601,118.063 285.434,118.228 285.005 C 118.381 284.606,119.008 284.409,120.122 284.409 C 121.038 284.409,121.957 284.241,122.165 284.035 C 122.372 283.829,123.740 283.622,125.205 283.575 C 127.004 283.518,127.934 283.318,128.072 282.957 C 128.206 282.608,128.969 282.423,130.276 282.423 C 131.375 282.423,132.274 282.244,132.274 282.026 C 132.274 281.794,133.598 281.629,135.452 281.629 C 137.201 281.629,138.630 281.799,138.630 282.007 C 138.630 282.215,139.272 282.690,140.056 283.063 C 140.841 283.435,141.571 283.969,141.678 284.248 C 141.785 284.528,142.149 284.650,142.485 284.521 C 142.836 284.387,143.254 284.567,143.465 284.944 C 143.667 285.305,144.281 285.601,144.830 285.601 C 145.393 285.601,145.720 285.774,145.581 285.998 C 145.446 286.216,145.614 286.395,145.955 286.395 C 146.295 286.395,146.574 286.663,146.574 286.991 C 146.574 287.329,146.930 287.587,147.397 287.587 C 147.849 287.587,148.497 287.864,148.836 288.203 C 149.255 288.622,149.820 288.739,150.595 288.569 C 151.478 288.375,151.738 288.461,151.738 288.946 C 151.738 289.343,152.087 289.573,152.688 289.573 C 153.211 289.573,153.741 289.838,153.865 290.162 C 153.989 290.486,154.337 290.657,154.638 290.541 C 154.939 290.426,155.415 290.608,155.695 290.945 C 155.975 291.283,156.719 291.559,157.348 291.559 C 158.118 291.559,158.491 291.761,158.491 292.178 C 158.491 292.519,158.677 292.682,158.905 292.541 C 159.133 292.400,159.753 292.569,160.282 292.915 C 160.810 293.262,161.764 293.545,162.400 293.545 C 163.036 293.545,163.780 293.813,164.052 294.141 C 164.333 294.480,165.199 294.737,166.063 294.737 C 166.897 294.737,167.690 294.916,167.825 295.134 C 167.960 295.353,168.686 295.531,169.438 295.531 C 170.301 295.531,170.804 295.723,170.804 296.053 C 170.804 296.397,171.447 296.607,172.691 296.670 C 173.729 296.723,174.638 296.935,174.710 297.141 C 174.783 297.348,175.645 297.517,176.626 297.517 C 177.681 297.517,178.651 297.761,179.004 298.113 C 179.445 298.554,180.524 298.709,183.147 298.709 C 185.246 298.709,186.693 298.871,186.693 299.106 C 186.693 299.355,189.095 299.503,193.104 299.503 C 198.739 299.503,199.581 299.588,200.056 300.199 C 200.571 300.861,200.616 300.861,201.013 300.199 C 201.382 299.583,202.154 299.503,207.742 299.503 C 211.522 299.503,214.153 299.344,214.300 299.106 C 214.435 298.888,216.131 298.709,218.069 298.709 C 220.671 298.709,221.747 298.553,222.188 298.113 C 222.515 297.786,223.475 297.517,224.321 297.517 C 225.167 297.517,226.029 297.349,226.236 297.142 C 226.444 296.936,227.463 296.724,228.500 296.671 C 229.745 296.607,230.387 296.397,230.387 296.053 C 230.387 295.723,230.890 295.531,231.754 295.531 C 232.506 295.531,233.231 295.353,233.366 295.134 C 233.501 294.916,234.322 294.737,235.190 294.737 C 236.226 294.737,236.846 294.532,236.996 294.141 C 237.145 293.753,237.763 293.545,238.771 293.545 C 239.622 293.545,240.318 293.366,240.318 293.148 C 240.318 292.929,240.641 292.751,241.036 292.751 C 241.431 292.751,242.102 292.488,242.526 292.168 C 242.950 291.847,243.680 291.579,244.148 291.572 C 244.616 291.565,245.102 291.291,245.228 290.963 C 245.354 290.636,245.909 290.367,246.462 290.367 C 247.015 290.367,247.468 290.189,247.468 289.970 C 247.468 289.752,247.991 289.573,248.631 289.573 C 249.271 289.573,250.062 289.305,250.390 288.977 C 250.718 288.649,251.267 288.381,251.610 288.381 C 251.953 288.381,252.234 288.203,252.234 287.984 C 252.234 287.766,252.681 287.587,253.227 287.587 C 253.774 287.587,254.220 287.408,254.220 287.190 C 254.220 286.971,254.489 286.792,254.816 286.792 C 255.144 286.792,255.412 286.524,255.412 286.197 C 255.412 285.863,255.767 285.601,256.219 285.601 C 256.663 285.601,257.129 285.333,257.255 285.005 C 257.380 284.677,257.811 284.409,258.212 284.409 C 258.612 284.409,259.051 284.230,259.186 284.012 C 259.321 283.793,259.733 283.612,260.103 283.608 C 260.472 283.604,261.196 283.157,261.710 282.615 C 262.225 282.072,263.029 281.615,263.498 281.597 C 266.276 281.495,269.532 281.737,269.646 282.054 C 269.719 282.257,270.657 282.423,271.731 282.423 C 273.202 282.423,273.684 282.570,273.684 283.019 C 273.684 283.482,274.211 283.615,276.044 283.615 C 277.342 283.615,278.514 283.793,278.649 284.012 C 278.784 284.230,279.778 284.409,280.858 284.409 C 282.337 284.409,282.820 284.556,282.820 285.005 C 282.820 285.469,283.351 285.601,285.216 285.601 C 286.767 285.601,287.679 285.776,287.802 286.097 C 287.932 286.440,288.728 286.552,290.371 286.459 C 292.337 286.348,292.751 286.434,292.751 286.956 C 292.751 287.448,293.187 287.587,294.737 287.587 C 295.829 287.587,296.723 287.766,296.723 287.984 C 296.723 288.204,297.776 288.381,299.087 288.381 C 300.722 288.381,301.548 288.556,301.768 288.949 C 302.130 289.596,302.024 289.573,304.667 289.573 C 306.053 289.573,306.653 289.732,306.653 290.100 C 306.653 290.459,307.032 290.572,307.842 290.453 C 309.413 290.222,311.901 290.704,311.606 291.182 C 311.468 291.405,312.417 291.559,313.930 291.559 C 315.718 291.559,316.635 291.738,316.981 292.155 C 317.263 292.494,318.129 292.751,318.992 292.751 C 319.827 292.751,320.620 292.929,320.755 293.148 C 320.890 293.366,321.928 293.551,323.062 293.558 C 324.242 293.565,325.454 293.820,325.895 294.154 C 326.351 294.498,327.539 294.737,328.798 294.737 C 330.119 294.737,330.837 294.888,330.685 295.134 C 330.534 295.379,331.215 295.531,332.462 295.531 C 333.746 295.531,334.555 295.718,334.680 296.043 C 334.788 296.325,335.453 296.599,336.157 296.652 C 336.862 296.705,337.498 296.921,337.570 297.133 C 337.643 297.344,338.135 297.517,338.663 297.517 C 339.251 297.517,339.623 297.748,339.623 298.113 C 339.623 298.446,339.977 298.709,340.426 298.709 C 341.313 298.709,344.389 300.600,344.389 301.145 C 344.389 301.335,344.523 301.468,344.687 301.443 C 345.638 301.292,346.398 301.601,347.227 302.476 C 347.742 303.018,348.398 303.465,348.685 303.469 C 349.382 303.478,357.498 311.627,357.498 312.318 C 357.498 312.616,358.034 313.374,358.689 314.002 C 359.345 314.630,359.881 315.296,359.881 315.483 C 359.881 315.670,360.238 316.206,360.675 316.675 C 361.112 317.144,361.470 317.841,361.470 318.224 C 361.470 318.607,361.656 319.035,361.883 319.176 C 362.111 319.316,362.680 320.310,363.149 321.384 C 363.618 322.458,364.147 323.337,364.325 323.337 C 364.502 323.337,364.647 323.952,364.647 324.703 C 364.647 325.455,364.803 326.166,364.993 326.284 C 365.182 326.401,365.450 327.201,365.588 328.061 C 365.725 328.922,366.007 329.685,366.214 329.758 C 366.422 329.831,366.634 330.740,366.686 331.778 C 366.743 332.903,366.970 333.664,367.249 333.664 C 367.531 333.664,367.641 334.053,367.527 334.646 C 367.270 335.993,369.897 338.835,371.107 338.519 C 371.727 338.357,371.874 338.452,371.700 338.906 C 371.508 339.407,371.964 339.522,374.414 339.586 C 376.844 339.651,377.358 339.557,377.358 339.048 C 377.358 338.684,377.704 338.431,378.200 338.431 C 379.151 338.431,381.315 336.191,381.324 335.196 C 381.328 334.837,381.608 334.437,381.948 334.307 C 382.774 333.990,382.695 328.898,381.864 328.898 C 381.490 328.898,381.331 328.314,381.331 326.945 C 381.331 325.871,381.162 324.932,380.955 324.859 C 380.748 324.786,380.536 323.878,380.483 322.840 C 380.420 321.596,380.210 320.953,379.866 320.953 C 379.535 320.953,379.345 320.446,379.345 319.563 C 379.345 318.798,379.166 318.173,378.947 318.173 C 378.729 318.173,378.550 317.720,378.550 317.167 C 378.550 316.614,378.282 316.059,377.954 315.933 C 377.627 315.807,377.358 315.476,377.358 315.197 C 377.358 314.917,377.100 314.189,376.783 313.579 C 376.466 312.969,376.315 312.296,376.447 312.082 C 376.581 311.866,376.482 311.821,376.225 311.980 C 375.956 312.146,375.671 311.965,375.539 311.545 C 375.416 311.148,375.149 310.514,374.946 310.134 C 374.744 309.755,374.578 309.085,374.578 308.645 C 374.578 308.199,374.314 307.845,373.982 307.845 C 373.654 307.845,373.386 307.566,373.386 307.226 C 373.386 306.885,373.227 306.705,373.031 306.826 C 372.836 306.946,372.562 306.588,372.422 306.030 C 372.282 305.471,371.548 304.446,370.791 303.751 C 370.033 303.057,369.414 302.290,369.414 302.047 C 369.414 301.804,368.967 301.123,368.421 300.534 C 367.875 299.945,367.428 299.293,367.428 299.086 C 367.428 298.879,367.205 298.754,366.931 298.808 C 366.658 298.863,366.480 298.684,366.534 298.411 C 366.589 298.138,366.455 297.915,366.236 297.915 C 365.721 297.915,364.250 296.444,364.250 295.929 C 364.250 295.710,364.109 295.576,363.937 295.631 C 363.764 295.685,362.680 294.788,361.527 293.637 C 360.374 292.486,359.289 291.632,359.116 291.739 C 358.943 291.847,358.340 291.448,357.777 290.853 C 356.278 289.270,355.614 288.779,354.975 288.779 C 354.661 288.779,354.294 288.490,354.159 288.138 C 354.003 287.731,353.624 287.572,353.123 287.703 C 352.612 287.837,352.334 287.713,352.334 287.351 C 352.334 287.044,352.066 286.792,351.738 286.792 C 351.410 286.792,351.142 286.617,351.142 286.403 C 351.142 286.188,350.695 285.901,350.149 285.764 C 349.603 285.627,349.156 285.355,349.156 285.161 C 349.156 284.966,348.698 284.806,348.139 284.806 C 347.555 284.806,347.229 284.636,347.371 284.404 C 347.509 284.181,347.079 283.894,346.402 283.759 C 345.732 283.625,345.184 283.359,345.184 283.168 C 345.184 282.977,344.635 282.820,343.964 282.820 C 343.293 282.820,342.476 282.552,342.148 282.224 C 341.820 281.897,340.860 281.629,340.015 281.629 C 339.170 281.629,338.367 281.450,338.232 281.231 C 338.097 281.013,337.448 280.834,336.790 280.834 C 336.132 280.834,335.326 280.566,334.998 280.238 C 334.615 279.855,333.633 279.643,332.246 279.643 C 331.060 279.643,330.089 279.464,330.089 279.245 C 330.089 279.025,329.044 278.848,327.749 278.848 C 326.034 278.848,325.347 278.689,325.179 278.252 C 325.022 277.844,324.384 277.656,323.151 277.656 C 322.161 277.656,321.351 277.478,321.351 277.259 C 321.351 277.030,320.093 276.862,318.371 276.862 C 316.011 276.862,315.392 276.740,315.392 276.276 C 315.392 275.833,315.093 275.750,314.160 275.937 C 313.334 276.102,312.820 276.007,312.599 275.649 C 312.394 275.318,311.241 275.051,309.560 274.946 C 308.071 274.853,306.737 274.596,306.596 274.375 C 306.456 274.154,305.428 273.885,304.312 273.778 C 303.197 273.671,302.284 273.427,302.284 273.236 C 302.284 273.046,301.288 272.890,300.071 272.890 C 298.633 272.890,297.649 272.681,297.262 272.294 C 296.879 271.911,295.897 271.698,294.510 271.698 C 293.324 271.698,292.354 271.519,292.354 271.301 C 292.354 271.082,291.479 270.904,290.410 270.904 C 289.049 270.904,288.398 270.725,288.238 270.308 C 288.069 269.869,287.376 269.712,285.613 269.712 C 283.954 269.712,283.217 269.558,283.217 269.213 C 283.217 268.868,282.688 268.755,281.507 268.849 C 280.302 268.945,279.642 268.799,279.273 268.356 C 278.914 267.923,278.079 267.726,276.602 267.726 C 275.249 267.726,274.384 267.542,274.264 267.229 C 274.131 266.881,273.286 266.773,271.433 266.869 C 269.332 266.977,268.719 266.875,268.438 266.372 C 268.200 265.949,267.527 265.740,266.395 265.740 C 265.467 265.740,264.490 265.523,264.225 265.257 C 263.959 264.992,262.717 264.648,261.464 264.493 C 258.096 264.076,256.857 263.731,256.324 263.061 C 256.047 262.713,255.504 262.549,255.033 262.672 C 254.557 262.797,254.220 262.693,254.220 262.421 C 254.220 262.165,253.761 261.611,253.200 261.190 C 251.982 260.275,250.616 258.429,250.456 257.483 C 250.393 257.109,250.142 256.847,249.898 256.902 C 249.628 256.962,249.454 256.377,249.454 255.412 C 249.454 254.265,249.288 253.823,248.858 253.823 C 248.135 253.823,247.937 231.620,248.659 231.529 C 248.878 231.502,249.204 231.457,249.384 231.430 C 250.060 231.328,252.595 229.061,252.396 228.738 C 252.281 228.553,252.349 228.401,252.547 228.401 C 252.955 228.401,254.655 226.779,257.690 223.492 C 258.834 222.253,259.836 221.287,259.916 221.345 C 259.997 221.403,260.538 220.885,261.119 220.195 C 262.368 218.711,267.726 213.319,267.726 213.547 C 267.726 213.633,268.083 213.347,268.520 212.910 C 268.957 212.473,269.315 211.847,269.315 211.519 C 269.315 211.192,269.583 210.924,269.911 210.924 C 270.238 210.924,270.506 210.655,270.506 210.326 C 270.506 209.997,271.400 208.853,272.493 207.783 C 273.585 206.714,274.479 205.584,274.479 205.272 C 274.479 204.961,274.926 204.287,275.472 203.774 C 276.018 203.260,276.465 202.596,276.465 202.296 C 276.465 201.996,276.923 201.293,277.484 200.733 C 278.044 200.172,278.413 199.480,278.303 199.195 C 278.193 198.909,278.361 198.577,278.675 198.456 C 278.988 198.336,279.245 197.893,279.245 197.473 C 279.245 197.053,279.513 196.606,279.841 196.480 C 280.169 196.354,280.437 195.899,280.437 195.468 C 280.437 195.037,280.616 194.574,280.834 194.439 C 281.053 194.304,281.231 193.841,281.231 193.410 C 281.231 192.979,281.500 192.524,281.827 192.398 C 282.195 192.257,282.423 191.653,282.423 190.821 C 282.423 189.928,282.611 189.474,282.982 189.474 C 283.356 189.474,283.467 189.195,283.319 188.629 C 283.177 188.083,283.330 187.655,283.754 187.418 C 284.165 187.187,284.409 186.541,284.409 185.680 C 284.409 184.927,284.588 184.310,284.806 184.310 C 285.025 184.310,285.204 183.703,285.204 182.962 C 285.204 182.130,285.432 181.527,285.799 181.386 C 286.195 181.234,286.395 180.609,286.395 179.527 C 286.395 178.608,286.655 177.638,286.991 177.302 C 287.373 176.920,287.587 175.939,287.587 174.573 C 287.587 173.400,287.766 172.330,287.984 172.195 C 288.203 172.060,288.381 170.517,288.381 168.766 C 288.381 166.467,288.547 165.418,288.977 164.988 C 289.346 164.620,289.573 163.645,289.573 162.434 L 289.573 160.477 292.320 160.477 C 293.877 160.477,295.128 160.297,295.206 160.062 C 295.282 159.834,295.744 159.617,296.232 159.580 C 296.721 159.543,297.128 159.328,297.139 159.101 C 297.149 158.875,297.855 158.153,298.709 157.498 C 299.563 156.842,300.269 156.173,300.280 156.011 C 300.385 154.328,302.850 153.327,306.888 153.327 C 309.185 153.327,311.084 153.153,311.221 152.929 C 311.356 152.711,311.903 152.532,312.437 152.532 C 313.034 152.532,313.406 152.303,313.406 151.936 C 313.406 151.609,313.743 151.341,314.154 151.341 C 315.118 151.341,318.083 148.383,318.257 147.247 C 318.330 146.768,318.609 146.420,318.877 146.475 C 319.197 146.540,319.364 146.029,319.364 144.985 C 319.364 143.832,319.529 143.396,319.965 143.396 C 320.496 143.396,320.564 139.977,320.551 114.005 C 320.540 91.458,320.426 84.637,320.062 84.710 C 319.802 84.763,319.477 84.270,319.340 83.615 C 318.938 81.687,318.503 80.636,318.107 80.636 C 317.903 80.636,317.092 80.010,316.305 79.245 C 315.517 78.481,314.722 77.855,314.537 77.855 C 314.352 77.855,314.245 77.632,314.300 77.358 C 314.356 77.079,313.920 76.807,313.300 76.736 C 312.696 76.666,312.302 76.446,312.425 76.247 C 312.548 76.047,311.926 75.769,311.042 75.627 C 310.157 75.486,309.434 75.214,309.434 75.024 C 309.434 74.833,307.646 74.677,305.462 74.677 C 301.385 74.677,301.189 74.595,301.443 72.989 C 301.468 72.825,301.332 72.691,301.140 72.691 C 300.948 72.691,300.054 71.976,299.154 71.102 C 298.253 70.228,297.249 69.513,296.921 69.513 C 296.594 69.513,296.326 69.335,296.326 69.116 C 296.326 68.898,295.955 68.719,295.503 68.719 C 295.050 68.719,294.402 68.441,294.061 68.100 C 293.721 67.760,293.198 67.576,292.898 67.691 C 292.483 67.850,292.354 67.440,292.354 65.959 C 292.354 64.892,292.185 63.959,291.978 63.886 C 291.772 63.813,291.564 62.637,291.516 61.271 C 291.454 59.508,291.275 58.788,290.898 58.788 C 290.556 58.788,290.367 58.293,290.367 57.398 C 290.367 56.634,290.189 56.008,289.970 56.008 C 289.752 56.008,289.573 55.395,289.573 54.646 C 289.573 53.897,289.305 53.016,288.977 52.688 C 288.649 52.361,288.381 51.782,288.381 51.403 C 288.381 50.489,287.123 47.666,286.716 47.666 C 286.540 47.666,286.395 47.303,286.395 46.859 C 286.395 46.416,286.127 45.950,285.799 45.824 C 285.472 45.698,285.204 45.267,285.204 44.867 C 285.204 44.466,285.025 44.028,284.806 43.893 C 284.588 43.758,284.409 43.295,284.409 42.864 C 284.409 42.433,284.127 41.972,283.781 41.839 C 283.396 41.691,283.231 41.304,283.353 40.835 C 283.470 40.389,283.317 39.980,282.988 39.854 C 282.677 39.735,282.423 39.341,282.423 38.980 C 282.423 38.619,281.976 37.842,281.430 37.253 C 280.884 36.664,280.437 36.003,280.437 35.785 C 280.437 35.567,279.990 34.942,279.444 34.396 C 278.898 33.849,278.451 33.121,278.451 32.776 C 278.451 32.432,278.183 32.047,277.855 31.921 C 277.527 31.795,277.259 31.533,277.259 31.338 C 277.259 30.814,275.775 29.422,275.505 29.692 C 275.377 29.820,275.273 29.696,275.273 29.418 C 275.273 29.140,274.826 28.561,274.280 28.132 C 273.734 27.702,273.287 27.092,273.287 26.775 C 273.287 26.040,267.838 20.655,267.094 20.655 C 266.786 20.655,266.534 20.393,266.534 20.072 C 266.534 19.717,266.301 19.578,265.938 19.717 C 265.561 19.862,265.343 19.712,265.343 19.308 C 265.343 18.957,265.055 18.669,264.704 18.669 C 264.310 18.669,264.150 18.449,264.287 18.094 C 264.434 17.709,264.317 17.591,263.932 17.739 C 263.577 17.875,263.357 17.716,263.357 17.322 C 263.357 16.970,263.088 16.683,262.761 16.683 C 262.433 16.683,262.165 16.415,262.165 16.087 C 262.165 15.732,261.799 15.492,261.259 15.492 C 260.762 15.492,260.096 15.134,259.782 14.697 C 259.467 14.260,258.802 13.903,258.304 13.903 C 257.764 13.903,257.398 13.662,257.398 13.307 C 257.398 12.979,257.120 12.711,256.779 12.711 C 256.438 12.711,256.271 12.530,256.408 12.309 C 256.545 12.088,256.140 11.804,255.506 11.677 C 254.873 11.550,254.031 11.016,253.636 10.490 C 253.241 9.964,252.585 9.533,252.179 9.533 C 251.772 9.533,251.440 9.355,251.440 9.136 C 251.440 8.918,250.987 8.739,250.434 8.739 C 249.881 8.739,249.326 8.471,249.200 8.143 C 249.074 7.815,248.644 7.547,248.243 7.547 C 247.842 7.547,247.404 7.368,247.269 7.150 C 247.134 6.931,246.428 6.753,245.699 6.753 C 244.889 6.753,244.286 6.522,244.146 6.157 C 244.021 5.829,243.565 5.561,243.134 5.561 C 242.703 5.561,242.240 5.382,242.105 5.164 C 241.970 4.945,241.513 4.767,241.089 4.767 C 240.665 4.767,240.318 4.499,240.318 4.171 C 240.318 3.757,239.901 3.575,238.951 3.575 C 238.199 3.575,237.474 3.396,237.339 3.178 C 237.204 2.959,236.478 2.781,235.726 2.781 C 234.776 2.781,234.359 2.599,234.359 2.185 C 234.359 1.735,233.877 1.589,232.397 1.589 C 231.317 1.589,230.324 1.410,230.189 1.192 C 230.054 0.973,229.328 0.794,228.576 0.794 C 227.825 0.794,227.210 0.616,227.210 0.397 C 227.210 -0.175,174.915 -0.148,174.561 0.424 M210.526 12.910 C 210.526 13.395,211.188 13.505,214.101 13.505 C 216.220 13.505,217.676 13.667,217.676 13.903 C 217.676 14.121,218.576 14.300,219.675 14.300 C 220.953 14.300,221.745 14.487,221.873 14.819 C 221.983 15.108,222.814 15.381,223.747 15.436 C 224.668 15.490,225.592 15.703,225.799 15.910 C 226.007 16.117,226.945 16.286,227.885 16.286 C 228.824 16.286,229.593 16.461,229.593 16.676 C 229.593 16.890,230.040 17.177,230.586 17.315 C 231.132 17.452,231.579 17.723,231.579 17.918 C 231.579 18.113,232.304 18.272,233.191 18.272 C 234.177 18.272,234.707 18.428,234.555 18.674 C 234.417 18.897,234.848 19.184,235.525 19.319 C 236.195 19.453,236.743 19.719,236.743 19.911 C 236.743 20.102,237.368 20.258,238.133 20.258 C 239.104 20.258,239.523 20.438,239.523 20.854 C 239.523 21.227,239.900 21.450,240.529 21.450 C 241.082 21.450,241.637 21.717,241.762 22.043 C 241.887 22.370,242.131 22.550,242.304 22.443 C 242.477 22.336,242.720 22.516,242.846 22.842 C 242.971 23.169,243.426 23.436,243.857 23.436 C 244.288 23.436,244.751 23.615,244.886 23.833 C 245.021 24.052,245.459 24.230,245.860 24.230 C 246.260 24.230,246.691 24.499,246.817 24.826 C 246.943 25.154,247.384 25.422,247.797 25.422 C 248.210 25.422,248.884 25.869,249.294 26.415 C 249.704 26.961,250.346 27.408,250.720 27.408 C 251.094 27.408,251.583 27.721,251.805 28.103 C 252.028 28.486,252.216 28.657,252.222 28.484 C 252.229 28.311,252.922 28.892,253.762 29.775 C 254.602 30.658,255.585 31.380,255.946 31.380 C 256.308 31.380,256.604 31.648,256.604 31.976 C 256.604 32.304,256.774 32.572,256.983 32.572 C 257.532 32.572,261.761 36.631,261.556 36.962 C 261.461 37.115,262.438 38.360,263.727 39.727 C 265.060 41.140,265.981 42.447,265.863 42.755 C 265.738 43.079,265.921 43.297,266.317 43.297 C 266.681 43.297,266.867 43.477,266.731 43.697 C 266.595 43.917,266.750 44.199,267.074 44.324 C 267.399 44.448,267.955 45.162,268.310 45.910 C 268.665 46.657,269.125 47.269,269.333 47.269 C 269.542 47.269,269.712 47.716,269.712 48.262 C 269.712 48.808,269.891 49.255,270.109 49.255 C 270.328 49.255,270.506 49.618,270.506 50.062 C 270.506 50.506,270.775 50.972,271.102 51.098 C 271.430 51.223,271.698 51.754,271.698 52.277 C 271.698 52.800,271.855 53.227,272.046 53.227 C 272.237 53.227,272.503 53.776,272.637 54.445 C 272.772 55.122,273.059 55.553,273.282 55.415 C 273.524 55.266,273.684 55.720,273.684 56.557 C 273.684 57.322,273.863 58.058,274.081 58.193 C 274.300 58.328,274.479 58.945,274.479 59.564 C 274.479 60.198,274.739 60.789,275.074 60.918 C 275.468 61.069,275.670 61.691,275.670 62.748 C 275.670 63.907,275.835 64.350,276.266 64.350 C 276.696 64.350,276.862 64.791,276.862 65.938 L 276.862 67.527 200.596 67.527 L 124.330 67.527 124.330 65.981 C 124.330 64.973,124.537 64.355,124.926 64.206 C 125.270 64.074,125.521 63.480,125.521 62.797 C 125.521 62.147,125.700 61.505,125.919 61.370 C 126.137 61.235,126.316 60.510,126.316 59.758 C 126.316 58.808,126.497 58.391,126.912 58.391 C 127.309 58.391,127.507 57.993,127.507 57.194 C 127.507 56.536,127.673 55.687,127.876 55.307 C 128.078 54.928,128.345 54.294,128.469 53.897 C 128.600 53.476,128.885 53.296,129.155 53.462 C 129.412 53.621,129.510 53.575,129.377 53.360 C 129.245 53.146,129.396 52.473,129.712 51.863 C 130.029 51.252,130.288 50.582,130.288 50.373 C 130.288 50.164,130.556 49.725,130.884 49.397 C 131.212 49.069,131.480 48.499,131.480 48.129 C 131.480 47.760,131.927 47.122,132.473 46.712 C 133.019 46.302,133.466 45.644,133.466 45.251 C 133.466 44.857,133.644 44.425,133.863 44.290 C 134.081 44.155,134.260 43.776,134.260 43.448 C 134.260 43.120,135.422 41.718,136.842 40.332 C 138.443 38.771,139.424 37.488,139.424 36.957 C 139.424 36.486,139.603 36.211,139.821 36.346 C 140.040 36.481,140.218 36.393,140.218 36.151 C 140.218 35.739,141.017 34.903,142.972 33.267 C 143.429 32.885,144.152 32.572,144.580 32.572 C 145.108 32.572,145.284 32.381,145.129 31.976 C 145.003 31.648,145.101 31.380,145.347 31.380 C 145.593 31.380,146.378 30.779,147.091 30.044 C 147.805 29.309,148.785 28.582,149.269 28.428 C 149.753 28.275,150.149 27.982,150.149 27.779 C 150.149 27.575,150.417 27.408,150.745 27.408 C 151.072 27.408,151.341 27.121,151.341 26.770 C 151.341 26.366,151.559 26.215,151.936 26.360 C 152.299 26.499,152.532 26.361,152.532 26.005 C 152.532 25.684,152.894 25.422,153.339 25.422 C 153.783 25.422,154.253 25.144,154.383 24.803 C 154.514 24.463,154.853 24.274,155.136 24.383 C 155.420 24.491,155.866 24.323,156.127 24.008 C 156.388 23.693,157.037 23.436,157.570 23.436 C 158.118 23.436,158.430 23.263,158.290 23.036 C 158.154 22.816,158.367 22.535,158.763 22.411 C 159.159 22.287,159.794 22.021,160.173 21.818 C 160.553 21.616,161.223 21.450,161.663 21.450 C 162.103 21.450,162.418 21.231,162.363 20.963 C 162.309 20.695,162.711 20.409,163.257 20.327 C 163.803 20.245,164.356 20.008,164.485 19.801 C 164.613 19.594,165.105 19.395,165.577 19.359 C 166.049 19.324,166.435 19.065,166.435 18.783 C 166.435 18.450,166.997 18.272,168.047 18.272 C 169.021 18.272,169.562 18.115,169.414 17.875 C 169.271 17.643,169.675 17.478,170.384 17.478 C 171.052 17.478,171.599 17.288,171.599 17.057 C 171.599 16.826,171.778 16.747,171.996 16.882 C 172.214 17.017,172.393 16.918,172.393 16.662 C 172.393 16.367,172.845 16.262,173.622 16.376 C 174.419 16.493,174.922 16.370,175.054 16.024 C 175.182 15.693,175.907 15.492,176.975 15.492 C 177.972 15.492,178.942 15.242,179.288 14.896 C 179.619 14.564,180.590 14.300,181.477 14.300 C 182.354 14.300,183.182 14.121,183.317 13.903 C 183.452 13.684,185.139 13.505,187.065 13.505 C 189.694 13.505,190.691 13.357,191.063 12.910 C 191.477 12.410,193.095 12.314,201.042 12.314 C 209.208 12.314,210.526 12.397,210.526 12.910 M287.587 114.598 L 287.587 145.780 254.987 145.780 C 226.538 145.780,222.310 145.704,221.790 145.184 C 221.463 144.856,220.592 144.588,219.856 144.588 C 219.120 144.588,218.407 144.409,218.272 144.191 C 218.137 143.972,217.699 143.793,217.298 143.793 C 216.897 143.793,216.467 143.525,216.341 143.198 C 216.215 142.870,215.749 142.602,215.305 142.602 C 214.862 142.602,214.499 142.423,214.499 142.205 C 214.499 141.986,214.096 141.802,213.605 141.795 C 213.113 141.788,212.364 141.520,211.940 141.199 C 211.516 140.878,210.756 140.616,210.252 140.616 C 209.747 140.616,209.335 140.437,209.335 140.218 C 209.335 139.994,208.209 139.821,206.753 139.821 C 204.722 139.821,204.171 139.694,204.171 139.225 C 204.171 138.740,203.513 138.630,200.638 138.630 C 197.865 138.630,197.057 138.758,196.877 139.225 C 196.709 139.664,196.016 139.821,194.253 139.821 C 192.920 139.821,191.857 139.998,191.857 140.218 C 191.857 140.437,191.226 140.616,190.454 140.616 C 189.574 140.616,188.966 140.838,188.823 141.212 C 188.697 141.539,188.266 141.807,187.866 141.807 C 187.465 141.807,187.027 141.986,186.892 142.205 C 186.757 142.423,186.294 142.602,185.863 142.602 C 185.432 142.602,184.976 142.870,184.851 143.198 C 184.725 143.525,184.319 143.793,183.950 143.793 C 183.580 143.793,183.107 143.963,182.900 144.169 C 182.692 144.376,181.769 144.590,180.847 144.644 C 179.914 144.698,179.084 144.972,178.973 145.261 C 178.818 145.663,177.033 145.780,171.010 145.780 L 163.247 145.780 161.271 147.766 C 160.184 148.858,159.140 149.752,158.951 149.752 C 158.291 149.752,158.394 155.557,159.067 156.230 C 159.405 156.568,159.682 157.215,159.682 157.668 C 159.682 158.134,159.940 158.491,160.278 158.491 C 160.606 158.491,160.874 158.629,160.874 158.797 C 160.874 158.966,161.457 159.418,162.169 159.802 C 163.630 160.589,185.104 160.826,185.104 160.056 C 185.104 159.850,185.628 159.682,186.268 159.682 C 186.907 159.682,187.699 159.414,188.027 159.086 C 188.354 158.759,188.993 158.491,189.445 158.491 C 189.912 158.491,190.268 158.233,190.268 157.895 C 190.268 157.562,190.622 157.299,191.068 157.299 C 191.894 157.299,193.138 156.711,194.325 155.761 C 194.699 155.462,195.280 155.322,195.616 155.451 C 195.994 155.596,196.226 155.463,196.226 155.102 C 196.226 154.269,204.486 154.239,204.805 155.070 C 204.921 155.374,205.330 155.540,205.714 155.440 C 206.097 155.340,206.644 155.538,206.928 155.881 C 207.213 156.224,207.673 156.504,207.951 156.504 C 208.228 156.504,208.557 156.770,208.681 157.094 C 208.808 157.424,209.172 157.581,209.508 157.452 C 209.838 157.325,210.394 157.507,210.743 157.856 C 211.092 158.205,211.901 158.491,212.541 158.491 C 213.310 158.491,213.704 158.692,213.704 159.086 C 213.704 159.518,214.148 159.682,215.316 159.682 C 216.290 159.682,216.831 159.840,216.683 160.079 C 216.520 160.343,226.080 160.477,245.061 160.477 L 273.684 160.477 273.684 164.064 C 273.684 166.887,273.557 167.700,273.088 167.880 C 272.638 168.053,272.493 168.779,272.493 170.847 C 272.493 172.407,272.322 173.585,272.095 173.585 C 271.877 173.585,271.698 174.300,271.698 175.174 C 271.698 176.321,271.533 176.763,271.102 176.763 C 270.671 176.763,270.506 177.207,270.506 178.375 C 270.506 179.349,270.349 179.890,270.109 179.742 C 269.869 179.593,269.712 180.139,269.712 181.121 C 269.712 182.199,269.511 182.823,269.116 182.975 C 268.788 183.100,268.520 183.531,268.520 183.932 C 268.520 184.332,268.342 184.771,268.123 184.906 C 267.905 185.041,267.726 185.504,267.726 185.935 C 267.726 186.366,267.478 186.813,267.174 186.930 C 266.855 187.052,266.707 187.466,266.823 187.910 C 266.961 188.437,266.821 188.679,266.382 188.679 C 265.974 188.679,265.740 189.017,265.740 189.607 C 265.740 190.135,265.231 190.988,264.558 191.587 C 263.818 192.246,263.465 192.870,263.614 193.258 C 263.765 193.650,263.656 193.833,263.315 193.760 C 263.006 193.693,262.717 194.058,262.632 194.622 C 262.551 195.160,261.781 196.283,260.920 197.119 C 260.059 197.954,259.442 198.778,259.548 198.950 C 259.764 199.300,258.153 200.829,257.710 200.693 C 257.554 200.645,257.529 200.871,257.654 201.196 C 257.778 201.522,257.685 201.787,257.447 201.787 C 256.900 201.787,253.476 205.280,253.752 205.556 C 253.864 205.668,253.779 205.760,253.564 205.760 C 252.949 205.760,250.645 207.956,250.645 208.543 C 250.645 208.833,250.538 208.962,250.407 208.831 C 250.133 208.557,246.673 212.002,246.673 212.549 C 246.673 212.747,246.508 212.910,246.307 212.910 C 245.930 212.910,243.527 215.166,243.525 215.521 C 243.523 215.939,242.386 216.831,242.153 216.598 C 242.017 216.463,241.907 216.650,241.907 217.014 C 241.907 217.378,241.639 217.676,241.311 217.676 C 240.983 217.676,240.715 217.868,240.715 218.102 C 240.715 218.636,239.711 219.662,239.188 219.662 C 238.972 219.662,238.736 219.828,238.663 220.030 C 238.590 220.232,238.282 220.455,237.979 220.526 C 237.281 220.690,234.757 223.135,234.757 223.648 C 234.757 223.859,234.603 224.032,234.415 224.032 C 234.227 224.032,233.410 224.657,232.599 225.422 C 231.789 226.187,230.914 226.818,230.657 226.825 C 229.984 226.843,228.798 227.813,228.798 228.346 C 228.798 228.595,228.520 228.798,228.179 228.798 C 227.839 228.798,227.663 228.965,227.789 229.169 C 227.915 229.373,227.479 229.858,226.819 230.248 C 226.160 230.637,225.621 231.096,225.621 231.267 C 225.621 231.439,225.163 231.579,224.604 231.579 C 224.045 231.579,223.678 231.726,223.789 231.905 C 224.016 232.272,222.409 233.800,221.946 233.657 C 221.783 233.607,221.648 233.833,221.648 234.161 C 221.648 234.504,221.289 234.757,220.800 234.757 C 220.334 234.757,219.538 235.204,219.032 235.750 C 218.438 236.390,217.682 236.743,216.901 236.743 C 216.235 236.743,215.690 236.922,215.690 237.140 C 215.690 237.358,215.258 237.537,214.730 237.537 C 213.429 237.537,212.469 237.940,212.737 238.373 C 212.858 238.570,211.702 238.729,210.153 238.729 C 208.121 238.729,207.376 238.866,207.448 239.225 C 207.611 240.041,193.803 240.147,193.348 239.334 C 193.108 238.906,192.368 238.729,190.816 238.729 C 189.396 238.729,188.412 238.519,188.027 238.133 C 187.699 237.805,186.907 237.537,186.268 237.537 C 185.628 237.537,185.104 237.358,185.104 237.140 C 185.104 236.922,184.766 236.743,184.352 236.743 C 183.939 236.743,183.501 236.483,183.379 236.166 C 183.257 235.847,182.807 235.657,182.375 235.740 C 181.944 235.823,181.500 235.649,181.386 235.354 C 181.273 235.060,180.768 234.756,180.263 234.679 C 179.746 234.600,179.395 234.305,179.460 234.003 C 179.529 233.683,179.350 233.554,179.014 233.683 C 178.681 233.811,178.242 233.507,177.937 232.938 C 177.654 232.409,177.185 231.976,176.894 231.976 C 176.603 231.976,176.365 231.809,176.365 231.606 C 176.365 231.402,175.978 231.112,175.504 230.962 C 175.030 230.812,173.771 229.816,172.705 228.750 C 171.639 227.684,170.543 226.812,170.271 226.812 C 169.723 226.812,163.257 220.529,163.257 219.996 C 163.257 219.813,163.015 219.662,162.719 219.662 C 162.424 219.662,161.709 219.224,161.130 218.688 C 160.552 218.153,160.079 217.817,160.079 217.942 C 160.079 218.068,159.813 217.950,159.488 217.680 C 159.163 217.410,158.997 217.026,159.120 216.827 C 159.243 216.628,159.189 216.514,158.999 216.574 C 158.572 216.709,145.382 203.549,145.382 202.988 C 145.382 202.765,145.191 202.582,144.957 202.582 C 144.407 202.582,143.396 201.571,143.396 201.021 C 143.396 200.787,143.217 200.596,142.999 200.596 C 142.781 200.596,142.602 200.322,142.602 199.988 C 142.602 199.653,142.334 199.276,142.006 199.151 C 141.678 199.025,141.410 198.743,141.410 198.525 C 141.410 198.307,140.963 197.777,140.417 197.347 C 139.871 196.917,139.424 196.228,139.424 195.814 C 139.424 195.401,139.085 194.881,138.671 194.660 C 138.257 194.438,137.730 193.717,137.500 193.057 C 137.270 192.397,136.894 191.857,136.664 191.857 C 136.434 191.857,136.246 191.589,136.246 191.261 C 136.246 190.933,136.087 190.665,135.892 190.665 C 135.697 190.665,135.426 190.218,135.289 189.672 C 135.152 189.126,134.864 188.679,134.650 188.679 C 134.436 188.679,134.260 188.432,134.260 188.129 C 134.260 187.826,134.001 187.079,133.685 186.469 C 133.368 185.859,133.200 185.213,133.311 185.033 C 133.422 184.854,133.234 184.707,132.893 184.707 C 132.450 184.707,132.274 184.311,132.274 183.317 C 132.274 182.552,132.095 181.927,131.877 181.927 C 131.658 181.927,131.480 181.563,131.480 181.120 C 131.480 180.676,131.212 180.210,130.884 180.084 C 130.467 179.924,130.288 179.273,130.288 177.912 C 130.288 176.843,130.109 175.968,129.891 175.968 C 129.672 175.968,129.494 175.094,129.494 174.025 C 129.494 172.663,129.315 172.013,128.898 171.852 C 128.476 171.691,128.302 171.033,128.302 169.602 C 128.302 168.355,128.150 167.674,127.905 167.825 C 127.650 167.982,127.507 166.704,127.507 164.274 L 127.507 160.477 135.266 160.477 C 141.782 160.477,143.060 160.382,143.252 159.883 C 143.377 159.557,143.639 159.388,143.835 159.509 C 144.031 159.630,144.191 159.470,144.191 159.152 C 144.191 158.835,144.459 158.473,144.786 158.347 C 145.114 158.221,145.382 157.774,145.382 157.354 C 145.382 156.933,145.650 156.487,145.978 156.361 C 147.430 155.804,146.759 150.832,144.985 149.005 C 144.111 148.104,143.396 147.159,143.396 146.905 C 143.396 146.650,143.286 146.552,143.150 146.687 C 143.015 146.823,142.645 146.674,142.328 146.356 C 141.845 145.873,139.427 145.780,127.479 145.780 L 113.208 145.780 113.208 114.598 L 113.208 83.416 200.397 83.416 L 287.587 83.416 287.587 114.598 M97.534 137.339 C 97.429 137.612,97.159 137.835,96.934 137.835 C 96.285 137.835,96.372 90.683,97.021 90.467 C 97.513 90.303,98.014 136.083,97.534 137.339 M305.555 114.219 L 305.660 137.871 304.071 137.754 L 302.483 137.637 302.483 128.898 C 302.483 122.207,302.597 120.181,302.970 120.255 C 303.339 120.328,303.447 118.914,303.414 114.429 C 303.379 109.745,303.262 108.548,302.854 108.705 C 302.440 108.863,302.330 107.084,302.299 99.734 L 302.261 90.566 303.855 90.566 L 305.449 90.566 305.555 114.219 M218.614 93.148 C 218.777 93.572,218.578 93.744,217.924 93.744 C 216.326 93.744,215.690 94.912,215.690 97.847 C 215.690 99.348,215.862 100.497,216.087 100.497 C 216.306 100.497,216.485 101.038,216.485 101.701 C 216.485 102.405,216.732 103.000,217.080 103.133 C 217.466 103.281,217.676 103.897,217.676 104.875 C 217.676 105.708,217.845 106.448,218.052 106.521 C 218.259 106.594,218.471 107.502,218.524 108.540 C 218.587 109.785,218.797 110.427,219.141 110.427 C 219.472 110.427,219.662 110.934,219.662 111.817 C 219.662 112.582,219.841 113.208,220.060 113.208 C 220.278 113.208,220.457 113.731,220.457 114.371 C 220.457 115.011,220.708 115.786,221.016 116.093 C 221.323 116.401,221.632 117.262,221.702 118.008 C 221.773 118.754,221.948 119.454,222.092 119.563 C 222.237 119.672,222.447 120.451,222.559 121.293 C 222.672 122.135,222.960 123.019,223.199 123.259 C 223.439 123.498,223.635 124.184,223.635 124.783 C 223.635 125.382,223.813 125.982,224.032 126.117 C 224.250 126.252,224.429 126.876,224.429 127.503 C 224.429 128.129,224.697 128.910,225.025 129.238 C 225.353 129.566,225.621 130.102,225.621 130.429 C 225.621 131.115,227.451 132.671,228.256 132.671 C 228.554 132.671,228.798 132.850,228.798 133.069 C 228.798 133.680,233.295 133.540,234.602 132.888 C 236.731 131.825,237.537 130.780,237.537 129.081 C 237.537 128.215,237.716 127.507,237.934 127.507 C 238.153 127.507,238.332 127.080,238.332 126.557 C 238.332 126.034,238.600 125.503,238.928 125.378 C 239.336 125.221,239.523 124.583,239.523 123.349 C 239.523 122.359,239.702 121.549,239.921 121.549 C 240.139 121.549,240.318 120.853,240.318 120.003 C 240.318 118.995,240.525 118.377,240.914 118.228 C 241.258 118.095,241.509 117.501,241.509 116.818 C 241.509 116.169,241.688 115.527,241.907 115.392 C 242.125 115.257,242.304 114.372,242.304 113.425 C 242.304 112.261,242.497 111.630,242.900 111.475 C 243.227 111.349,243.496 110.871,243.496 110.411 C 243.496 109.952,243.752 109.319,244.066 109.005 C 244.437 108.635,244.562 107.978,244.424 107.129 C 244.276 106.216,244.404 105.663,244.847 105.295 C 245.196 105.006,245.482 104.265,245.482 103.649 C 245.482 103.033,245.660 102.419,245.879 102.284 C 246.097 102.149,246.276 101.535,246.276 100.919 C 246.276 100.303,246.544 99.577,246.872 99.305 C 247.420 98.850,247.659 109.810,247.574 131.579 C 247.572 131.961,247.771 132.289,248.016 132.307 C 249.816 132.441,250.426 132.609,250.559 133.008 C 250.802 133.736,253.426 133.589,253.426 132.846 C 253.426 132.506,253.615 132.344,253.846 132.487 C 254.643 132.979,256.148 132.297,256.288 131.380 C 256.363 130.888,256.643 130.531,256.911 130.586 C 257.179 130.641,257.377 130.551,257.351 130.387 C 257.098 128.784,257.483 118.371,257.795 118.371 C 258.394 118.371,259.782 119.881,259.782 120.533 C 259.782 120.847,259.960 121.216,260.179 121.351 C 260.397 121.486,260.576 122.013,260.576 122.523 C 260.576 123.033,260.863 123.560,261.213 123.695 C 261.563 123.829,261.753 124.191,261.635 124.499 C 261.517 124.807,261.677 125.157,261.991 125.277 C 262.305 125.398,262.562 125.865,262.562 126.316 C 262.562 126.766,262.830 127.238,263.158 127.364 C 263.486 127.490,263.754 127.920,263.754 128.321 C 263.754 128.722,263.932 129.160,264.151 129.295 C 264.369 129.430,264.548 129.781,264.548 130.075 C 264.548 132.535,268.857 134.274,271.525 132.890 C 272.135 132.574,272.781 132.406,272.961 132.516 C 273.251 132.696,273.466 131.799,273.330 130.972 C 273.302 130.802,273.549 130.560,273.879 130.433 C 274.654 130.136,274.734 126.102,273.971 125.809 C 273.692 125.702,273.418 125.029,273.364 124.313 C 273.303 123.510,272.889 122.690,272.283 122.169 C 271.743 121.705,271.301 121.168,271.301 120.975 C 271.301 120.318,269.957 117.577,269.636 117.577 C 269.459 117.577,269.315 117.041,269.315 116.385 C 269.315 115.730,269.464 115.238,269.647 115.293 C 270.170 115.450,273.265 111.894,273.276 111.122 C 273.282 110.740,273.555 110.427,273.883 110.427 C 274.380 110.427,274.479 109.614,274.479 105.490 C 274.479 101.631,274.349 100.423,273.883 99.957 C 273.555 99.630,273.287 99.122,273.287 98.830 C 273.287 98.288,269.722 94.333,269.700 94.851 C 269.693 95.007,269.506 94.821,269.283 94.439 C 269.020 93.988,268.393 93.744,267.495 93.744 C 266.663 93.744,266.025 93.518,265.894 93.177 C 265.559 92.303,249.798 92.265,248.927 93.136 C 248.593 93.470,248.127 93.744,247.893 93.744 C 247.659 93.744,247.489 93.878,247.515 94.042 C 247.742 95.480,247.428 96.519,246.910 96.043 C 246.603 95.762,246.356 95.442,246.361 95.333 C 246.414 94.174,246.168 93.744,245.453 93.744 C 245.001 93.744,244.362 93.476,244.035 93.148 C 243.226 92.339,238.729 92.303,238.729 93.105 C 238.729 93.410,238.475 93.756,238.164 93.876 C 237.835 94.002,237.682 94.411,237.799 94.856 C 237.921 95.326,237.756 95.713,237.371 95.861 C 237.021 95.995,236.743 96.560,236.743 97.136 C 236.743 97.705,236.475 98.438,236.147 98.766 C 235.819 99.093,235.551 100.053,235.551 100.899 C 235.551 101.744,235.372 102.546,235.154 102.681 C 234.935 102.816,234.757 103.523,234.757 104.251 C 234.757 105.062,234.526 105.664,234.161 105.804 C 233.754 105.960,233.565 106.596,233.565 107.809 C 233.565 108.786,233.386 109.696,233.168 109.831 C 232.949 109.966,232.771 110.580,232.771 111.196 C 232.771 111.812,232.502 112.538,232.175 112.810 C 231.847 113.082,231.579 113.640,231.579 114.051 C 231.579 114.461,231.311 114.796,230.983 114.796 C 230.565 114.796,230.387 114.374,230.387 113.380 C 230.387 112.601,230.219 111.649,230.013 111.264 C 229.807 110.879,229.597 109.657,229.546 108.549 C 229.479 107.063,229.316 106.586,228.928 106.735 C 228.550 106.880,228.401 106.529,228.401 105.492 C 228.401 104.574,228.184 103.963,227.805 103.818 C 227.441 103.678,227.210 103.076,227.210 102.265 C 227.210 101.537,227.031 100.830,226.812 100.695 C 226.594 100.560,226.415 99.933,226.415 99.301 C 226.415 98.656,226.133 97.995,225.772 97.793 C 225.299 97.528,225.170 97.008,225.282 95.825 C 225.400 94.593,225.268 94.112,224.718 93.769 C 224.324 93.522,224.108 93.148,224.238 92.936 C 224.383 92.702,223.291 92.552,221.431 92.552 C 218.887 92.552,218.423 92.650,218.614 93.148 M260.720 101.887 C 260.865 102.266,261.476 102.483,262.397 102.483 C 263.635 102.483,263.817 102.595,263.645 103.251 C 263.529 103.696,263.677 104.110,263.996 104.232 C 264.604 104.465,264.770 106.852,264.179 106.852 C 263.975 106.852,263.752 107.254,263.682 107.746 C 263.599 108.332,263.282 108.640,262.761 108.640 C 262.324 108.640,261.823 108.863,261.649 109.136 C 261.465 109.424,260.503 109.633,259.365 109.633 L 257.398 109.633 257.398 106.190 C 257.398 103.445,257.539 102.605,258.093 102.043 C 258.952 101.173,260.412 101.086,260.720 101.887 M80.636 132.473 C 80.636 139.490,80.778 143.396,81.033 143.396 C 81.251 143.396,81.430 144.027,81.430 144.799 C 81.430 145.679,81.652 146.287,82.026 146.430 C 82.354 146.556,82.622 146.911,82.622 147.218 C 82.622 147.980,85.937 151.341,86.688 151.341 C 87.020 151.341,87.514 151.609,87.786 151.936 C 88.057 152.264,88.616 152.532,89.026 152.532 C 89.436 152.532,89.772 152.711,89.772 152.929 C 89.772 153.173,91.691 153.327,94.737 153.327 C 100.034 153.327,100.147 153.376,99.716 155.511 C 99.672 155.730,99.752 155.792,99.894 155.650 C 100.201 155.344,102.483 157.486,102.483 158.080 C 102.483 158.306,102.756 158.491,103.091 158.491 C 103.425 158.491,103.802 158.759,103.928 159.086 C 104.054 159.414,104.495 159.682,104.908 159.682 C 105.322 159.682,105.660 159.861,105.660 160.079 C 105.660 160.307,106.861 160.477,108.469 160.477 C 112.369 160.477,112.366 160.471,112.436 166.985 C 112.482 171.326,112.603 172.393,113.049 172.393 C 113.524 172.393,113.918 175.572,113.652 177.259 C 113.626 177.423,113.828 177.512,114.101 177.458 C 114.440 177.390,114.598 177.928,114.598 179.146 C 114.598 180.142,114.818 181.074,115.094 181.251 C 115.367 181.426,115.591 182.074,115.591 182.692 C 115.591 183.310,115.859 184.038,116.187 184.310 C 116.514 184.582,116.783 185.408,116.783 186.146 C 116.783 186.884,116.961 187.488,117.180 187.488 C 117.398 187.488,117.577 187.922,117.577 188.452 C 117.577 188.983,117.815 189.655,118.105 189.945 C 118.396 190.236,118.569 190.669,118.489 190.907 C 118.410 191.146,118.619 191.568,118.954 191.846 C 119.289 192.124,119.563 192.776,119.563 193.296 C 119.563 193.887,119.795 194.240,120.184 194.240 C 120.567 194.240,120.757 194.521,120.680 194.974 C 120.612 195.377,120.790 195.988,121.075 196.332 C 121.360 196.676,121.621 197.317,121.654 197.756 C 121.687 198.195,121.830 198.483,121.971 198.396 C 122.407 198.127,124.032 200.113,123.750 200.569 C 123.604 200.805,123.764 201.106,124.106 201.237 C 124.475 201.379,124.727 201.951,124.727 202.648 C 124.727 203.328,124.894 203.717,125.124 203.575 C 125.343 203.440,125.521 203.619,125.521 203.972 C 125.521 204.326,125.668 204.524,125.848 204.413 C 126.397 204.074,127.686 205.903,127.565 206.850 C 127.479 207.521,127.606 207.683,128.075 207.503 C 128.418 207.371,128.699 207.440,128.699 207.657 C 128.699 208.143,131.840 211.321,132.321 211.321 C 132.514 211.321,132.671 211.671,132.671 212.099 C 132.671 212.557,134.345 214.542,136.743 216.930 C 138.982 219.159,140.770 221.132,140.715 221.315 C 140.660 221.499,140.839 221.604,141.112 221.549 C 141.385 221.495,141.564 221.673,141.509 221.946 C 141.455 222.219,141.591 222.443,141.811 222.443 C 142.423 222.443,145.768 225.716,145.537 226.088 C 145.426 226.268,145.532 226.415,145.771 226.415 C 146.011 226.415,146.952 227.130,147.861 228.004 C 148.770 228.878,149.747 229.593,150.030 229.593 C 150.314 229.593,150.546 229.872,150.546 230.212 C 150.546 230.553,150.737 230.714,150.970 230.570 C 151.203 230.426,151.644 230.638,151.950 231.043 C 152.634 231.945,152.808 252.812,152.135 253.227 C 151.917 253.362,151.738 254.155,151.738 254.990 C 151.738 255.853,151.481 256.719,151.142 257.001 C 150.814 257.273,150.546 257.831,150.546 258.241 C 150.546 258.651,150.323 258.942,150.050 258.888 C 149.777 258.833,149.577 258.967,149.607 259.186 C 149.672 259.668,146.274 262.924,145.995 262.646 C 145.887 262.537,145.686 262.742,145.548 263.101 C 145.382 263.532,144.831 263.754,143.923 263.754 C 143.168 263.754,142.235 263.922,141.851 264.128 C 141.466 264.333,140.138 264.543,138.898 264.593 C 137.334 264.656,136.643 264.846,136.643 265.212 C 136.643 265.581,136.044 265.740,134.657 265.740 C 133.107 265.740,132.671 265.878,132.671 266.371 C 132.671 266.892,132.258 266.979,130.292 266.867 C 128.649 266.775,127.853 266.887,127.722 267.229 C 127.602 267.545,126.721 267.726,125.307 267.726 C 123.858 267.726,122.873 267.934,122.485 268.322 C 122.124 268.683,121.151 268.918,120.011 268.918 C 118.978 268.918,117.963 269.086,117.756 269.292 C 117.548 269.498,116.278 269.705,114.933 269.753 C 113.076 269.819,112.536 269.968,112.691 270.372 C 112.847 270.778,112.362 270.904,110.645 270.904 C 109.245 270.904,108.487 271.054,108.640 271.301 C 108.792 271.547,108.057 271.698,106.705 271.698 C 105.297 271.698,104.314 271.909,103.930 272.294 C 103.531 272.693,102.536 272.890,100.922 272.890 C 99.579 272.890,98.510 273.066,98.510 273.287 C 98.510 273.505,97.790 273.684,96.909 273.684 C 95.852 273.684,95.230 273.887,95.079 274.280 C 94.912 274.715,94.227 274.876,92.538 274.876 C 90.950 274.876,90.027 275.075,89.591 275.510 C 89.136 275.965,88.461 276.095,87.200 275.969 C 86.060 275.855,85.471 275.946,85.522 276.229 C 85.572 276.505,84.479 276.706,82.522 276.779 C 80.829 276.843,79.444 277.067,79.444 277.276 C 79.444 277.485,78.640 277.656,77.656 277.656 C 76.332 277.656,75.869 277.811,75.869 278.252 C 75.869 278.721,75.317 278.848,73.287 278.848 C 71.486 278.848,70.705 278.998,70.706 279.345 C 70.706 279.698,70.077 279.802,68.521 279.705 L 66.336 279.569 66.336 203.581 C 66.336 138.245,66.415 127.562,66.901 127.376 C 67.246 127.243,67.383 126.841,67.252 126.340 C 67.101 125.763,67.227 125.521,67.680 125.521 C 68.100 125.521,68.322 125.178,68.322 124.528 C 68.322 123.795,68.533 123.535,69.129 123.535 C 69.572 123.535,70.044 123.253,70.176 122.907 C 70.324 122.522,70.712 122.357,71.181 122.479 C 71.627 122.596,72.036 122.443,72.162 122.114 C 72.330 121.676,73.304 121.549,76.507 121.549 L 80.636 121.549 80.636 132.473 M233.583 251.744 C 233.620 256.697,233.760 258.543,234.096 258.479 C 234.364 258.428,234.610 259.015,234.681 259.881 C 234.749 260.700,234.973 261.370,235.178 261.370 C 235.383 261.370,235.551 261.894,235.551 262.534 C 235.551 263.173,235.811 263.957,236.128 264.274 C 236.445 264.591,236.620 264.936,236.516 265.040 C 236.412 265.144,236.599 265.456,236.932 265.732 C 237.265 266.008,237.537 266.486,237.537 266.794 C 237.537 267.102,237.805 267.457,238.133 267.582 C 238.461 267.708,238.729 268.110,238.729 268.475 C 238.729 268.841,239.355 269.730,240.119 270.451 C 240.884 271.173,241.509 271.927,241.509 272.128 C 241.509 272.328,241.778 272.493,242.105 272.493 C 242.433 272.493,242.701 272.771,242.701 273.112 C 242.701 273.452,242.848 273.640,243.027 273.529 C 243.207 273.418,243.675 273.702,244.067 274.160 C 244.760 274.970,244.756 274.987,243.938 274.773 C 243.449 274.645,242.972 274.773,242.799 275.079 C 242.636 275.369,241.877 275.684,241.112 275.779 C 240.347 275.875,239.767 276.157,239.821 276.407 C 239.876 276.657,239.484 276.862,238.951 276.862 C 238.418 276.862,237.871 277.041,237.736 277.259 C 237.601 277.478,237.163 277.656,236.762 277.656 C 236.361 277.656,235.930 277.925,235.805 278.252 C 235.661 278.626,235.054 278.848,234.173 278.848 C 233.402 278.848,232.771 279.027,232.771 279.245 C 232.771 279.464,231.877 279.643,230.785 279.643 C 229.284 279.643,228.798 279.788,228.798 280.238 C 228.798 280.609,228.423 280.834,227.805 280.834 C 227.259 280.834,226.812 281.013,226.812 281.231 C 226.812 281.452,225.749 281.629,224.417 281.629 C 222.653 281.629,221.960 281.786,221.792 282.224 C 221.620 282.674,220.895 282.820,218.849 282.820 C 217.356 282.820,216.024 282.999,215.889 283.217 C 215.754 283.436,214.246 283.615,212.538 283.615 C 210.262 283.615,209.300 283.774,208.937 284.211 C 208.213 285.084,193.278 285.086,191.604 284.213 C 190.955 283.874,189.412 283.619,188.008 283.617 C 186.655 283.616,185.438 283.436,185.303 283.217 C 185.168 282.999,183.717 282.820,182.078 282.820 C 180.440 282.820,179.197 282.662,179.317 282.468 C 179.581 282.040,178.217 281.641,176.465 281.634 C 175.755 281.631,175.174 281.461,175.174 281.255 C 175.174 281.050,174.503 280.827,173.684 280.759 C 172.753 280.682,172.232 280.450,172.294 280.139 C 172.349 279.866,172.259 279.664,172.095 279.690 C 170.962 279.869,169.208 279.578,169.414 279.245 C 169.567 278.999,168.822 278.848,167.451 278.848 C 165.916 278.848,165.243 278.692,165.243 278.337 C 165.243 278.056,164.853 277.796,164.376 277.760 C 163.899 277.724,163.358 277.425,163.174 277.096 C 162.982 276.753,162.568 276.602,162.204 276.741 C 161.832 276.884,161.422 276.721,161.211 276.344 C 161.014 275.992,160.591 275.804,160.271 275.927 C 159.944 276.052,159.582 275.870,159.444 275.513 C 159.287 275.103,158.683 274.859,157.753 274.830 C 156.957 274.804,156.621 274.702,157.006 274.601 C 157.391 274.501,157.618 274.276,157.511 274.103 C 157.403 273.929,158.474 272.691,159.889 271.353 C 161.305 270.014,162.463 268.669,162.463 268.364 C 162.463 268.059,162.907 267.388,163.449 266.874 C 163.991 266.359,164.438 265.626,164.442 265.243 C 164.446 264.861,164.628 264.548,164.846 264.548 C 165.065 264.548,165.243 264.120,165.243 263.598 C 165.243 263.075,165.511 262.544,165.839 262.418 C 166.245 262.263,166.435 261.627,166.435 260.423 C 166.435 259.451,166.620 258.594,166.846 258.519 C 167.098 258.435,167.291 256.229,167.343 252.825 C 167.396 249.342,167.576 247.315,167.825 247.392 C 168.044 247.459,168.313 247.130,168.424 246.659 C 168.620 245.830,168.693 245.848,170.748 247.231 C 171.915 248.017,173.031 248.659,173.228 248.659 C 173.424 248.659,173.585 248.838,173.585 249.057 C 173.585 249.275,174.032 249.454,174.578 249.454 C 175.124 249.454,175.571 249.629,175.571 249.843 C 175.571 250.058,176.018 250.345,176.564 250.482 C 177.110 250.619,177.557 250.891,177.557 251.086 C 177.557 251.281,178.253 251.440,179.103 251.440 C 180.112 251.440,180.729 251.647,180.879 252.036 C 181.023 252.412,181.632 252.632,182.533 252.632 C 183.383 252.632,183.860 252.792,183.714 253.029 C 183.560 253.278,184.438 253.426,186.074 253.426 C 188.101 253.426,188.679 253.556,188.679 254.010 C 188.679 254.510,190.379 254.593,200.596 254.593 C 210.813 254.593,212.512 254.510,212.512 254.010 C 212.512 253.561,213.064 253.426,214.896 253.426 C 216.220 253.426,217.279 253.249,217.279 253.029 C 217.279 252.810,217.886 252.632,218.627 252.632 C 219.458 252.632,220.062 252.403,220.203 252.036 C 220.338 251.683,220.964 251.428,221.735 251.411 C 222.452 251.395,223.575 251.039,224.230 250.621 C 224.886 250.202,225.690 249.754,226.018 249.626 C 226.346 249.497,227.080 249.142,227.650 248.837 C 228.220 248.532,228.801 248.398,228.941 248.537 C 229.081 248.677,229.196 248.514,229.196 248.175 C 229.196 247.836,229.866 247.244,230.685 246.859 C 231.504 246.475,232.440 245.841,232.764 245.450 C 233.572 244.477,233.528 244.141,233.583 251.744 " stroke="none" fill="#fcbcb4" fill-rule="evenodd"></path><path id="path1" d="" stroke="none" fill="#100bcb4" fill-rule="evenodd"></path></g></svg>